<?xml version="1.0" standalone="no"?>
<!DOCTYPE svg PUBLIC "-//W3C//DTD SVG 1.1//EN" "http://www.w3.org/Graphics/SVG/1.1/DTD/svg11.dtd" >
<svg xmlns="http://www.w3.org/2000/svg" xmlns:xlink="http://www.w3.org/1999/xlink" version="1.1">
<metadata></metadata>
<defs>
<font id="lady_ice_-_extra_lightregular" horiz-adv-x="815" >
<font-face units-per-em="2048" ascent="1638" descent="-410" />
<missing-glyph horiz-adv-x="512" />
<glyph horiz-adv-x="0" />
<glyph horiz-adv-x="682" />
<glyph horiz-adv-x="714" d="M289 1642h143v193h-143v-193z" />
<glyph horiz-adv-x="499" d="M104 1362q0 -63 41 -104t105 -41q61 0 104 43t43 104q-4 63 -45 104t-102 41q-63 0 -105.5 -43t-40.5 -104zM182 1364q6 10 13.5 20.5t5.5 26.5q23 0 49 21q20 -20 49 -21q0 -29 18 -49q-18 -29 -18 -47q-23 0 -49 -21q-20 20 -49 21q0 27 -19 49z" />
<glyph horiz-adv-x="516" d="M53 1968l221 -205l199 209l-102 101l-97 -109l-120 104z" />
<glyph unicode="&#xd;" horiz-adv-x="1024" />
<glyph horiz-adv-x="796" d="M121 6l43 -10l399 1477l-45 12z" />
<glyph horiz-adv-x="761" d="M111 883l55 -56v-827h43v827l55 56h176l56 -56v-827h45v926h-277l-55 55v254q0 41 16.5 78t44 63.5t63.5 42t75 15.5h22v45h-22q-49 0 -93.5 -19.5t-77 -52.5t-52 -77t-19.5 -95v-254l-55 -55v-43z" />
<glyph horiz-adv-x="761" d="M111 885l55 -56v-829h43v829l55 56h176l56 -56v-829h45v1479h-133q-49 0 -93.5 -19.5t-77 -52.5t-52 -77t-19.5 -95v-252l-55 -55v-43zM209 983v252q0 41 16.5 78t44 63.5t63.5 42t75 15.5h32l56 -56v-395l-56 -55h-176z" />
<glyph horiz-adv-x="956" d="M135 463l29 -31l104 107l97 -41l-3 -498h375v45h-276l-55 53l2 555l16 39l211 213l-29 29l-106 -105l-94 39l2 611h-99v-45l56 -56v-663l-17 -39z" />
<glyph horiz-adv-x="880" d="M135 463l29 -31l104 107l97 -41v-498h43v653l16 39l211 213l-29 29l-106 -105l-94 39l2 510v101h-43v-764l-17 -39z" />
<glyph horiz-adv-x="741" d="M78 0h485v45h-387l-55 53v127l6 25l436 868v361h-485v-45h385l55 -56v-235l-6 -25l-434 -868v-250zM162 2064l155 -143l140 145l-29 31l-66 -74l-77 -6l-90 80z" />
<glyph horiz-adv-x="765" d="M86 0h485v45h-387l-53 53v107l21 45l419 313v363h-485v-43h385l55 -56l2 -217l-20 -43l-422 -315v-252zM178 1522l150 -150l153 150l-28 30l-84 -84h-80l-82 82z" />
<glyph unicode=" "  horiz-adv-x="512" />
<glyph unicode="&#x09;" horiz-adv-x="512" />
<glyph unicode="&#xa0;" horiz-adv-x="512" />
<glyph unicode="!" horiz-adv-x="374" d="M111 0h43v94h-43v-94zM111 440h43v1039h-43v-1039z" />
<glyph unicode="&#x22;" horiz-adv-x="630" d="M74 1143h37v200zM111 1343l32 177h-32v-177zM324 1143h38v194zM362 1337l35 183h-35v-183z" />
<glyph unicode="#" horiz-adv-x="1036" d="M111 455h55l55 -56v-399h43v399l55 56h287l56 -56v-399h45v399l55 56h53v43h-53l-55 55v287l55 55h53v45h-53l-55 55v484h-45v-484l-56 -55h-287l-55 55v484h-43v-484l-55 -55h-55v-45h55l55 -55v-287l-55 -55h-55v-43zM264 553v287l55 55h287l56 -55v-287l-56 -55h-287z " />
<glyph unicode="$" horiz-adv-x="710" d="M47 1235q0 -51 18.5 -95t51.5 -77t77 -51.5t95 -18.5q84 0 141 -57t57 -141v-553q0 -41 -16 -77t-43 -62.5t-63.5 -42t-75.5 -15.5q-51 0 -89 20.5t-69 51.5l-29 -29q23 -23 50.5 -44t74.5 -38l39 -53v-62h45l-2 64l41 53q82 23 132 86.5t50 147.5v553q0 49 -19 93 t-52 76.5t-77 52t-95 19.5q-84 0 -141.5 57.5t-57.5 141.5t57.5 141.5t141.5 57.5q51 0 88 -21.5t69 -52.5l31 29q-23 25 -51.5 46t-75.5 35l-39 54v63h-45v-65l-41 -54q-82 -20 -130 -84.5t-48 -148.5zM109 141q4 -6 10 -13t12 -11h2zM446 1360l23 -23q-6 4 -11.5 10.5 t-11.5 12.5z" />
<glyph unicode="%" horiz-adv-x="1378" d="M63 1225q0 -51 19.5 -95.5t52.5 -77t77 -52t95 -19.5q49 0 93 19.5t77 52t52.5 77t19.5 95.5q0 49 -19.5 93t-52.5 76.5t-77 52t-93 19.5q-51 0 -95 -19.5t-77 -52t-52.5 -76.5t-19.5 -93zM109 1225q0 41 16 77.5t43 63.5t62.5 42t76.5 15q84 0 141.5 -57t57.5 -141 t-57.5 -141.5t-141.5 -57.5t-141 57.5t-57 141.5zM412 6l43 -10l399 1477l-45 12zM719 242q0 -49 19.5 -93.5t52 -77t76.5 -52t96 -19.5q49 0 93 19.5t76.5 52t52 77t19.5 93.5q0 51 -19.5 95t-52 76.5t-76.5 52t-93 19.5q-51 0 -95.5 -19.5t-77 -52t-52 -76.5t-19.5 -95z M764 242q0 41 16.5 77.5t43 63.5t62.5 42t77 15q82 0 139 -57t57 -141q0 -82 -57.5 -139.5t-138.5 -57.5q-84 0 -141.5 57.5t-57.5 139.5z" />
<glyph unicode="&#x26;" horiz-adv-x="837" d="M111 242q0 -49 19.5 -93.5t52 -77t76.5 -52t93 -19.5q29 0 59.5 15.5t61.5 40t59.5 53t53.5 57.5q6 6 6 7t-2 1l6 4l-29 27l-2 -2q-23 -25 -47 -53.5t-52 -51t-56.5 -38t-57.5 -15.5q-84 0 -141 57.5t-57 139.5q0 35 8 113.5t27.5 159.5t50 142.5t75.5 61.5h60v45h-23 q-84 0 -141 57.5t-57 141.5v272q0 41 16 78t44 63.5t63.5 42t74.5 15.5q84 0 141.5 -57.5t57.5 -141.5v-23h45v23q0 51 -19.5 95t-52 77t-77 52.5t-95.5 19.5q-49 0 -93 -19.5t-76.5 -52.5t-52 -77t-19.5 -95v-272q0 -109 79 -183l3 -80q-18 -18 -34 -80.5t-26 -136 t-16 -142.5t-6 -99zM565 207l2 -2q8 10 6 10t-8 -8z" />
<glyph unicode="'" horiz-adv-x="374" d="M70 1143h41v211zM111 1354l30 166h-30v-166z" />
<glyph unicode="(" horiz-adv-x="528" d="M111 96q0 -49 19.5 -93t52 -76.5t76.5 -51t93 -18.5h23v41h-23q-41 0 -77.5 15t-63.5 43t-42 63.5t-15 76.5v1139q0 37 15 88t42 99t63.5 82t77.5 34h23v43h-23q-49 0 -93 -34t-76.5 -85t-52 -112.5t-19.5 -114.5v-1139z" />
<glyph unicode=")" horiz-adv-x="532" d="M47 -111v-41h21q51 0 95 18.5t76.5 50.5t52 76t19.5 95v1247q0 49 -19.5 93.5t-52 77t-76.5 52t-95 19.5h-21v-45h21q84 0 141 -57.5t57 -139.5v-1247q0 -84 -57 -141.5t-141 -57.5h-21z" />
<glyph unicode="*" horiz-adv-x="1284" d="M12 1288q53 6 106.5 17t86.5 34q-33 20 -84 32.5t-105 23.5zM141 1712q33 -29 74 -52.5t90 -35.5q-14 47 -37.5 87t-48.5 75zM143 971l76 -76q25 35 47.5 74t36.5 86q-47 -14 -86 -36t-74 -48zM205 1339q10 -6 16 -12l10 -10q6 6 13.5 11t15.5 11q-6 4 -14.5 9.5 t-14.5 11.5q-8 -12 -26 -21zM260 1339q18 -10 36.5 -17t45.5 -11t62.5 -6t84.5 -2h9l45 38l-45 35h-9q-49 0 -84.5 -1t-62.5 -5t-45 -11t-37 -20zM303 1055q16 4 33.5 6t36.5 4h-23q0 12 1 22.5t3 20.5q-8 -2 -18.5 -4t-20.5 -2v22q-2 -35 -12 -69zM305 1624q4 -20 7 -39.5 t3 -42.5v37q10 -2 20.5 -3t18.5 -3q-2 10 -3 20.5t-1 20.5h23q-33 0 -68 10zM354 1108q43 8 84 37t109 96l4 4v-4q0 -98 6 -146t33 -83q23 35 30 83t7 146v8l6 -8q68 -70 107.5 -97.5t80.5 -35.5q-10 43 -38.5 82t-96.5 106l-8 7l-8 6l-49 2l6 -60l-41 47l-29 -41v52h-49 l-8 -6l-8 -7q-68 -68 -97.5 -106.5t-40.5 -81.5zM354 1573q10 -45 39 -84t99 -107l4 -4l55 -6v60l-4 4q-70 68 -109 97.5t-84 39.5zM537 762h104q-6 53 -17.5 103t-33.5 85q-25 -35 -36 -85t-17 -103zM537 1915q6 -53 17 -104.5t36 -86.5q23 35 34 86.5t17 104.5h-104z M543 1341l10 -10q4 -14 4 -22h10q-2 2 15 -2l4 -9l4 2q12 6 18 8.5t13 2.5v6l4 14l12 12l-12 15q0 -6 -4 6l2 12h-23h-2q-2 0 -6 2h-2q-16 -4 -19 -6q-4 0 -9 -2t5 2h-16v-20q2 4 3 3t-1 -5zM549 1350l2 2q-2 0 -2 -2zM551 1432l39 -54l37 54v8q0 94 -7.5 141t-29.5 84 q-12 -18 -20.5 -37.5t-12.5 -45.5t-5 -60.5t-1 -81.5v-8zM565 981q12 -12 25 -31q8 16 22 31q-6 8 -12 15.5t-10 15.5zM565 1698q6 -8 12.5 -16.5t12.5 -16.5q10 19 22 33q-12 8 -22 26q-6 -8 -12.5 -15t-12.5 -11zM573 1374l5 2zM623 1376h57l-43 -33l43 -40h8 q98 0 145.5 7t84.5 29q-37 23 -84.5 30t-145.5 7h-8l6 6q33 33 57.5 59.5t40 48t24.5 41t13 42.5q-43 -10 -82 -40t-104 -95zM803 1065q39 -4 69 -12q-4 18 -7 35.5t-3 35.5v-22q-10 0 -20.5 2t-20.5 4q2 -10 3 -20.5t3 -22.5h-24zM803 1614h24q-2 -10 -3 -20.5t-3 -20.5 q10 4 21 4q10 0 20 2v-25q0 33 10 70q-35 -10 -69 -10zM872 1053q14 -45 37.5 -84t48.5 -74l76 76q-35 27 -74.5 48t-87.5 34zM872 1624q47 12 88 35.5t76 52.5l-78 74q-27 -35 -49 -75t-37 -87zM918 1339q6 -6 14 -12l16 -12q4 6 12.5 12t16.5 12q-8 4 -16.5 10.5 t-12.5 14.5q-8 -8 -16 -14.5t-14 -10.5zM977 1339q35 -23 85 -34t103 -17l-2 107q-53 -10 -102 -21.5t-84 -34.5z" />
<glyph unicode="+" d="M111 655h165l56 -55v-166h43v166l55 55h166v43h-166l-55 56v166h-43v-166l-56 -56h-165v-43z" />
<glyph unicode="," horiz-adv-x="335" d="M53 -297h45l43 234l-16 14zM76 0h10l39 -49l8 20v109h-57v-80z" />
<glyph unicode="-" horiz-adv-x="512" d="M59 657h281v43h-281v-43z" />
<glyph unicode="." horiz-adv-x="327" d="M86 6h45v98h-45v-98z" />
<glyph unicode="/" horiz-adv-x="663" d="M55 6l41 -10l400 1477l-43 12z" />
<glyph unicode="0" d="M111 242q0 -49 19.5 -93.5t52 -77t76.5 -52t93 -19.5q51 0 95.5 19.5t77 52t52 77t19.5 93.5v993q0 51 -19.5 95t-52 77t-77 52.5t-95.5 19.5q-49 0 -93 -19.5t-76.5 -52.5t-52 -77t-19.5 -95v-993zM154 242v993q0 41 16 78t44 63.5t63.5 42t74.5 15.5q84 0 141.5 -57.5 t57.5 -141.5v-993q0 -82 -57.5 -139.5t-141.5 -57.5t-141 57.5t-57 139.5z" />
<glyph unicode="1" horiz-adv-x="487" d="M39 1434h125l55 -56v-1378h51l-2 1479h-229v-45z" />
<glyph unicode="2" horiz-adv-x="765" d="M90 0h485v45h-385l-55 53v422q0 84 57.5 141.5t141.5 57.5q49 0 93 19.5t77 52t52 76.5t19 96v272q0 51 -19 95t-52 77t-77 52.5t-93 19.5q-51 0 -95 -19.5t-77 -52.5t-52.5 -77t-19.5 -95v-23h45v23q0 41 16.5 78t43 63.5t62.5 42t77 15.5t76.5 -15.5t63.5 -42t43 -63.5 t15 -78v-272q0 -41 -15 -78t-43 -63.5t-63.5 -42t-76.5 -15.5q-51 0 -95 -19.5t-77 -52.5t-52.5 -77t-19.5 -95v-520z" />
<glyph unicode="3" horiz-adv-x="755" d="M53 1212h43v23q0 41 16.5 78t44 63.5t63.5 42t75 15.5q84 0 141.5 -57.5t57.5 -141.5v-262q0 -84 -57.5 -141.5t-141.5 -57.5h-21l2 -78h21q84 0 141.5 -57t57.5 -141v-262q0 -84 -57.5 -141.5t-141.5 -57.5q-39 0 -75 15.5t-63.5 42t-44 63.5t-16.5 78v22h-43v-22 q0 -49 19.5 -93.5t52.5 -77t77 -51t93 -18.5q51 0 95 18.5t77 51t52.5 76.5t19.5 94v262q0 104 -80 182l-8 70q2 2 2 -9q0 -18 6 -24v80q78 78 78 176v262q0 51 -19.5 95t-52.5 77t-77 52.5t-95 19.5q-49 0 -93 -19.5t-77 -52.5t-52.5 -77t-19.5 -95v-23z" />
<glyph unicode="4" horiz-adv-x="829" d="M76 721h387l55 -55v-666h49v666l56 55v45l-56 55v658h-49v-658l-55 -55h-291l-55 55v649h-41v-749z" />
<glyph unicode="5" horiz-adv-x="751" d="M86 248q0 -51 19.5 -95t52 -77t77 -52.5t93.5 -19.5q51 0 95 19.5t76.5 52.5t52 77t19.5 95v303q0 39 -13 79t-35.5 71.5t-55.5 52t-72 22.5h-205l-55 55v547l55 56l355 2v43h-455v-729h238q84 0 141 -57.5t57 -141.5v-303q0 -84 -57 -141.5t-141 -57.5q-39 0 -75 15.5 t-62.5 42t-43 63.5t-16.5 78v20h-45v-20z" />
<glyph unicode="6" horiz-adv-x="765" d="M111 242q0 -49 19.5 -93.5t52 -77t76.5 -52t93 -19.5q51 0 95.5 19.5t77 52t52 77t19.5 93.5v295q0 49 -19.5 93t-52 76.5t-77 52t-95.5 19.5q-55 0 -116 -30l-82 49v438q0 41 16 78t44 63.5t63.5 42t74.5 15.5q57 0 92 -21.5t66 -52.5l31 29q-39 37 -77 63.5t-112 26.5 q-49 0 -93 -19.5t-76.5 -52.5t-52 -77t-19.5 -95v-993zM154 242v295q0 84 57 141t141 57t141.5 -57t57.5 -141v-295q0 -82 -57.5 -139.5t-141.5 -57.5t-141 57.5t-57 139.5zM510 1360q2 -4 14.5 -13.5t7.5 -5.5q-16 13 -22 19z" />
<glyph unicode="7" horiz-adv-x="729" d="M53 1378h43l56 56h286l56 -56v-243l-2 -15l-146 -585q-6 -33 -19.5 -85.5t-27.5 -99.5q-10 -41 -17.5 -71.5t-7.5 -26.5v-252h43v233l2 17q4 14 22.5 83.5t43.5 166t51.5 204t49 198.5t38 151.5t15.5 62.5v363h-486v-101z" />
<glyph unicode="8" horiz-adv-x="776" d="M98 1073q0 -59 33 -116.5t62 -100.5l-11 -72q-78 -74 -78 -180v-362q0 -49 18.5 -93.5t51.5 -77t77 -52t95 -19.5t95 19.5t77 52t52.5 77t19.5 93.5v362q0 106 -80 180h43l-39 17l-2 2l10 69q-6 -2 -18 -28l2 49q78 74 78 180v164q0 51 -18.5 95t-51.5 77t-77 52.5 t-95 19.5t-95 -19.5t-77 -52.5t-52.5 -77t-19.5 -95v-164zM143 1073v164q0 41 16.5 78t43 63.5t62.5 42t77 15.5q84 0 141.5 -57.5t57.5 -141.5v-164q0 -82 -57.5 -139t-141.5 -57t-141.5 57t-57.5 139zM147 242v362q0 84 57.5 141.5t141.5 57.5t141.5 -57.5t57.5 -141.5 v-362q0 -41 -16.5 -77t-43 -62.5t-63.5 -42t-76 -15.5q-84 0 -141.5 57.5t-57.5 139.5z" />
<glyph unicode="9" horiz-adv-x="784" d="M80 956q0 -49 19.5 -93t52 -76.5t76.5 -52t94 -19.5q59 0 118 30l82 -49l-2 -454q0 -82 -57 -139.5t-141 -57.5q-51 0 -89 20.5t-69 51.5l-29 -29q35 -39 75 -63.5t112 -24.5q51 0 95 19.5t76.5 52t52 77t19.5 93.5v993q0 51 -19.5 95t-52 77t-76.5 52.5t-95 19.5 q-49 0 -93.5 -19.5t-77 -52.5t-52 -77t-19.5 -95v-279zM123 956v279q0 41 16.5 78t44 63.5t63.5 42t75 15.5q84 0 141 -57.5t57 -141.5v-279q0 -41 -15.5 -76.5t-42 -63.5t-63.5 -43t-77 -15q-41 0 -78 15t-63.5 43t-42 63.5t-15.5 76.5zM141 141q4 -6 10.5 -13t12.5 -11h2z " />
<glyph unicode=":" horiz-adv-x="348" d="M84 6h66v98h-66v-98zM94 801h68v98h-68v-98z" />
<glyph unicode=";" horiz-adv-x="368" d="M80 -291h45l43 232l-16 18zM88 4h25l39 -45l8 18v109h-72v-82zM90 803h78v96h-78v-96z" />
<glyph unicode="&#x3c;" horiz-adv-x="659" d="M135 684l250 -250l29 29l-181 180v80l181 182l-29 29z" />
<glyph unicode="=" d="M111 553h485v45h-485v-45zM111 831h485v46h-485v-46z" />
<glyph unicode="&#x3e;" horiz-adv-x="659" d="M135 463l29 -31l250 252l-248 252l-31 -31l180 -182v-80z" />
<glyph unicode="?" horiz-adv-x="743" d="M37 1212h45v23q0 41 16.5 78t43 63.5t62.5 42t77 15.5q84 0 141 -57.5t57 -141.5v-502q0 -84 -57 -141t-141 -57h-45v-236h47v158l43 55q82 16 139 72.5t57 148.5v502q0 51 -19.5 95t-52 77t-76.5 52.5t-93 19.5q-51 0 -95.5 -19.5t-77 -52.5t-52 -77t-19.5 -95v-23z M246 0h43v94h-43v-94z" />
<glyph unicode="@" horiz-adv-x="1363" d="M74 541q0 -57 6 -109q18 -152 70.5 -259t125 -179t159.5 -111t173 -51q58 -12 119 -12q111 0 210 39t200 135l-7 8l9 -8l80 78l-19 18q-18 -20 -39.5 -41.5l-38.5 -38.5q-106 -96 -204.5 -131t-206.5 -35q-23 0 -48.5 2t-50.5 7q-82 16 -164.5 57t-152.5 112.5t-120 177 t-69 253.5v-2q-6 61 -6 112q0 111 25 215q29 104 81 193.5t122.5 153t157.5 99.5t186 36q47 0 88 -8.5t78 -20.5q123 -49 200.5 -168t100.5 -285q0 -4 1 -9t1 -9q4 -20 6 -42t2 -42q0 -41 -6 -86q-2 -10 -2 -19q0 -6 -2 -16l20 -4q12 61 12 133q0 63 -8 111 q-18 174 -99 291.5t-218 164.5q-39 16 -81 25.5t-95 9.5q-113 0 -205 -39t-164 -107.5t-122 -160.5t-75 -197q-31 -115 -30 -241zM348 524q0 -41 8 -82q6 -72 25.5 -123t47.5 -82.5t60.5 -46t63.5 -14.5q14 0 30.5 5t41.5 20q37 10 65.5 31.5t50.5 50.5l50 -4 q49 -68 74.5 -86.5t45.5 -18.5q47 0 101.5 46t99.5 151h2q31 84 43 172l-20 4q-23 -129 -75 -217t-106 -113l2 2l-24 -4h2q-33 0 -60.5 9t-37.5 61q0 4 -1 9t-1 9q0 16 -2 23v2q-2 18 -3 26q0 10 -4 49v21q0 12 2 20v25q0 31 3.5 74t11.5 102l18 240h-33l-2 -27l-90 -14 q-12 31 -30.5 47t-38 23.5t-38 9.5t-30.5 2h-14q-51 0 -94 -32t-75 -87t-50.5 -128t-18.5 -155zM395 516q0 66 14.5 131.5t42 117.5t68.5 85t94 33q31 0 57.5 -14.5t49.5 -37.5q0 -4 6 -6q37 -49 56.5 -113.5t19.5 -125.5q0 -16 -1 -30.5t-3 -29.5q-6 -51 -20.5 -110.5 t-47.5 -112.5l-22 2l-54.5 -54.5t-31.5 -29.5h-2q-10 -2 -20.5 -3t-20.5 -1q-47 0 -82 24.5t-57.5 66.5t-34 95.5t-11.5 112.5z" />
<glyph unicode="A" horiz-adv-x="854" d="M92 881l55 -56v-825h46v825l55 56h287l55 -56v-825h43v1235q0 51 -19.5 95t-52.5 77t-77 52.5t-93 19.5q-51 0 -95 -19.5t-77 -52.5t-52.5 -77t-19.5 -95v-256l-55 -55v-43zM193 979v256q0 41 16 78t43 63.5t62.5 42t76.5 15.5t77 -15.5t63.5 -42t43 -63.5t15.5 -78v-256 l-55 -55h-287z" />
<glyph unicode="B" horiz-adv-x="823" d="M78 881l55 -56v-825h242q51 0 95 19.5t77 52t52 77t19 93.5v440q0 51 -22.5 96t-58.5 84l2 80q80 74 79 180v140l-12 57q-25 68 -85 114t-142 46h-246v-500l-55 -55v-43zM174 1378l55 56h150q72 0 124 -45.5t68 -110.5l2 -14v-142q0 -84 -57 -141t-141 -57h-144l-55 55z M176 98v727l55 56h144q84 0 141 -57.5t57 -141.5v-440q0 -82 -57 -139.5t-141 -57.5h-144z" />
<glyph unicode="C" horiz-adv-x="706" d="M111 242q0 -49 19.5 -93.5t52 -77t76.5 -52t93 -19.5q59 0 102.5 23.5t84.5 62.5l-29 29q-33 -29 -69 -49.5t-89 -20.5q-84 0 -141 57.5t-57 139.5v993q0 41 16 78t44 63.5t63.5 42t74.5 15.5q53 0 89 -21.5t69 -52.5l31 29q-39 37 -77 63.5t-112 26.5q-49 0 -93 -19.5 t-76.5 -52.5t-52 -77t-19.5 -95v-993zM510 115q6 6 11 13t14 13l-25 -24v-2zM510 1360l25 -23q-8 4 -13.5 10.5t-11.5 12.5zM539 86l39 -37v76z" />
<glyph unicode="D" horiz-adv-x="796" d="M51 1434l55 -56v-1378h242q51 0 95 19.5t77 52t52.5 77t19.5 93.5v993q0 51 -19.5 95t-52.5 77t-77 52.5t-95 19.5h-297v-45zM150 98v1280l55 56h143q84 0 141.5 -57.5t57.5 -141.5v-993q0 -82 -57.5 -139.5t-141.5 -57.5h-143z" />
<glyph unicode="E" horiz-adv-x="733" d="M86 1434l55 -56v-1378h430v45h-331l-56 53v727l56 56h188v43h-188l-56 55v399l56 56h331v45h-485v-45z" />
<glyph unicode="F" horiz-adv-x="718" d="M90 1434l55 -56v-1378h45v827l56 56h186v43h-186l-56 55v397l56 56h329v45h-485v-45z" />
<glyph unicode="G" horiz-adv-x="780" d="M92 242q0 -49 19.5 -93.5t52.5 -77t77 -52t95 -19.5l242 2v926h-148v-43h49l56 -56v-727l-56 -55l-143 -2q-84 0 -141.5 57.5t-57.5 139.5v993q0 41 16.5 78t43 63.5t62.5 42t77 15.5q84 0 129 -29t76 -64l24 25q-4 2 -2 2q-47 41 -97 76t-130 35q-51 0 -95 -18.5 t-77 -51.5t-52.5 -78t-19.5 -96v-993zM539 1339q-2 2 2 -1t8 -8t7 -8t1 -1q-4 4 -8 10t-8 10zM564 1367q1 -1 2 -1t3 -2q-4 2 -5 3zM569 1364l5 -5t-3 5h-2z" />
<glyph unicode="H" horiz-adv-x="847" d="M86 881l55 -56v-825h43v825l56 56h286l56 -56v-825h45v1479h-45v-500l-56 -55h-286l-56 55v500h-43v-500l-55 -55v-43z" />
<glyph unicode="I" horiz-adv-x="385" d="M59 0h154v45l-53 53v1280l53 56v45h-154v-45l56 -56v-1280l-56 -53v-45z" />
<glyph unicode="J" horiz-adv-x="512" d="M45 0h21q51 0 95 19.5t76.5 52t52 77t19.5 93.5v1237h-246v-45h146l55 -56v-1136q0 -82 -57 -139.5t-141 -57.5h-21v-45z" />
<glyph unicode="K" horiz-adv-x="829" d="M90 881l55 -56v-825h45v825l56 56h143q82 0 139.5 -57.5t57.5 -141.5v-682h45v682q0 102 -80 180l-2 80q39 39 60.5 84t21.5 96v357h-45v-357q0 -84 -57.5 -141t-139.5 -57h-143l-56 55v500h-45v-500l-55 -55v-43z" />
<glyph unicode="L" horiz-adv-x="634" d="M111 0h374v45h-276l-55 53v1381h-43v-1479z" />
<glyph unicode="M" horiz-adv-x="1257" d="M111 0h43v1235q0 41 16 78t44 63.5t63.5 42t74.5 15.5q84 0 141.5 -57.5t57.5 -141.5v-1235h45v1235q0 41 16.5 78t43 63.5t62.5 42t77 15.5q84 0 141 -57.5t57 -141.5v-1235h43v1235q0 84 -45 147.5t-123 83.5h-145q-55 -12 -109 -67h-79q-55 55 -107 67h-145 q-78 -20 -125 -83.5t-47 -147.5v-1235z" />
<glyph unicode="N" horiz-adv-x="825" d="M63 45h48v-45h53v1235q0 41 16.5 78t43 63.5t62.5 42t76 15.5q41 0 77 -15.5t63.5 -42t43 -63.5t15.5 -78v-1235h43v1235q0 84 -45 147.5t-123 83.5h-145q-76 -20 -124 -83.5t-48 -147.5v-1137z" />
<glyph unicode="O" horiz-adv-x="784" d="M96 242q0 -49 19.5 -93.5t52.5 -77t77 -52t95 -19.5t95 19.5t77 52t51.5 77t18.5 93.5v993q0 51 -18.5 95t-51.5 77t-77 52.5t-95 19.5t-95 -19.5t-77 -52.5t-52.5 -77t-19.5 -95v-993zM141 242v993q0 41 16.5 78t43 63.5t62.5 42t77 15.5q84 0 141.5 -57.5t57.5 -141.5 v-993q0 -82 -57.5 -139.5t-141.5 -57.5t-141.5 57.5t-57.5 139.5z" />
<glyph unicode="P" horiz-adv-x="780" d="M80 881l55 -56v-825h43v825l55 56h144q51 0 95 18.5t77 51t52.5 76.5t19.5 95v113q0 51 -19.5 95t-52.5 77t-77 52.5t-95 19.5h-242v-500l-55 -55v-43zM178 979v399l55 56h144q84 0 141 -57.5t57 -141.5v-113q0 -84 -57 -141t-141 -57h-144z" />
<glyph unicode="Q" horiz-adv-x="765" d="M82 242q0 -86 52 -150.5t132 -85.5l41 -39q23 -82 87.5 -134t150.5 -52h22v45h-6q-59 0 -109.5 22.5t-84.5 85.5l30 78q76 27 123 88.5t47 141.5v993q0 51 -19.5 95t-52 77t-76.5 52.5t-95 19.5q-49 0 -93.5 -19.5t-77 -52.5t-52 -77t-19.5 -95v-993zM125 242v993 q0 41 16.5 78t44 63.5t63.5 42t75 15.5q84 0 141 -57.5t57 -141.5v-993q0 -82 -57 -139.5t-141 -57.5t-141.5 57.5t-57.5 139.5z" />
<glyph unicode="R" horiz-adv-x="821" d="M68 883l55 -56v-827h45v827l55 56h144q84 0 141 -57.5t57 -141.5v-684h43v684q0 102 -80 180l-2 80q39 39 60.5 84t21.5 96v111q0 51 -19.5 95t-52 77t-76.5 52.5t-93 19.5h-244v-498l-55 -55v-43zM168 981v397l55 56h144q84 0 141 -57.5t57 -141.5v-111q0 -84 -57 -141 t-141 -57h-144z" />
<glyph unicode="S" horiz-adv-x="710" d="M53 1239q0 -49 19.5 -93t52.5 -77t77 -52.5t93 -19.5q84 0 141.5 -57t57.5 -141v-551q0 -41 -16.5 -78t-43 -63.5t-63.5 -42t-76 -15.5q-51 0 -89 20.5t-69 51.5l-28 -29q35 -39 74.5 -63.5t111.5 -24.5q51 0 95 19.5t77 52.5t52.5 77t19.5 95v551q0 51 -19.5 95 t-52.5 77t-77 51t-95 18q-84 0 -141.5 57.5t-57.5 141.5t57.5 141.5t141.5 57.5q53 0 89 -21.5t69 -50.5l30 29q-18 18 -36.5 33.5t-40 27.5t-48 19.5t-63.5 7.5q-49 0 -93 -19.5t-77 -52.5t-52.5 -77t-19.5 -95zM115 145q4 -6 11 -13l11 -11h2zM453 1366l24 -25 q-8 4 -13 10.5t-11 14.5z" />
<glyph unicode="T" horiz-adv-x="698" d="M49 1434h162l55 -56v-1378h49v1378l56 56h164v45h-486v-45z" />
<glyph unicode="U" d="M111 242q0 -49 19.5 -93.5t52 -77t76.5 -52t93 -19.5h244v1479h-45v-1381l-55 -53h-144q-84 0 -141 57.5t-57 139.5v1237h-43v-1237z" />
<glyph unicode="V" horiz-adv-x="782" d="M92 311q0 -55 27.5 -109.5t67.5 -97.5t83 -71.5t72 -34.5q41 8 83 42t76 81t55.5 98t21.5 92v1174h-43v-1174q0 -23 -15.5 -56.5t-38 -69t-47 -68.5t-41.5 -54l-80 -6q-25 20 -55.5 52t-57 67t-45 71t-18.5 64v1174h-45v-1174z" />
<glyph unicode="W" horiz-adv-x="1257" d="M111 242q0 -82 46 -147.5t124 -84.5h145q29 8 55.5 24.5t53.5 45.5h79q27 -29 52.5 -45.5t54.5 -24.5h145q78 18 124 84t46 148v1237h-43v-1237q0 -82 -57 -139.5t-141 -57.5t-141.5 57.5t-57.5 139.5v1237h-45v-1237q0 -82 -57.5 -139.5t-141.5 -57.5t-141 57.5 t-57 139.5v1237h-43v-1237z" />
<glyph unicode="X" d="M111 0h43v688q0 84 57 141.5t141 57.5t141.5 -57.5t57.5 -141.5v-467h2v-55v-166h43v688q0 106 -80 180l-2 80q39 39 60.5 84t21.5 96v351h-45v-351q0 -41 -15.5 -76.5t-42 -63t-63.5 -43t-78 -15.5t-77.5 15.5t-63.5 43t-42 63t-15 76.5v351h-43v-351q0 -106 79 -180 l3 -80q-39 -37 -60.5 -83t-21.5 -97v-688z" />
<glyph unicode="Y" horiz-adv-x="765" d="M86 1122q0 -84 48 -148.5t130 -84.5l43 -53v-836h43v836l43 53q80 20 129 84.5t49 148.5v357h-45v-357q0 -84 -57 -141t-141 -57q-82 0 -139.5 57t-57.5 141v357h-45v-357z" />
<glyph unicode="Z" d="M111 0h485v45h-387l-55 53v127l8 25l434 868v361h-485v-45h385l55 -56v-235l-6 -25l-434 -868v-250z" />
<glyph unicode="[" horiz-adv-x="507" d="M98 -152h267v41h-166l-56 56v1544l56 55h166v43h-267v-1739z" />
<glyph unicode="\" horiz-adv-x="618" d="M70 1473l342 -1477l43 10l-342 1477z" />
<glyph unicode="]" horiz-adv-x="595" d="M111 -111v-41h264v1739h-264v-43h165l56 -55v-1544l-56 -56h-165z" />
<glyph unicode="^" horiz-adv-x="593" d="M135 1346l31 -31l39 39l78 -2l34 -37l31 31l-106 106z" />
<glyph unicode="_" horiz-adv-x="1257" d="M111 -285v-43h925v43h-925z" />
<glyph unicode="`" horiz-adv-x="536" d="M125 1556l141 -202l33 30l-139 203z" />
<glyph unicode="a" horiz-adv-x="774" d="M76 242q0 -49 18.5 -93.5t51 -77t76.5 -52t95 -19.5q70 0 129 35l82 -45v10h33v684q0 51 -19.5 95t-52 77t-76.5 51.5t-96 18.5q-72 0 -111.5 -26t-74.5 -62l29 -29q31 31 68.5 52.5t88.5 21.5q84 0 141.5 -57.5t57.5 -141.5v-143l-55 -56h-144q-51 0 -95 -19.5 t-76.5 -52t-51 -76.5t-18.5 -95zM119 242q0 84 57 141t141 57h152l55 -55v-143q0 -41 -17.5 -77t-46 -62.5t-65.5 -42t-78 -15.5q-84 0 -141 57.5t-57 139.5zM137 784l25 25h-2l-12.5 -12.5t-10.5 -12.5z" />
<glyph unicode="b" horiz-adv-x="796" d="M111 0h241q51 0 95.5 19.5t77 52t52 77t19.5 93.5v442q0 51 -19.5 95t-52 77t-77 51.5t-95.5 18.5h-143l-55 55v498h-43v-1479zM154 98v729l55 56h143q84 0 141.5 -57.5t57.5 -141.5v-442q0 -82 -57.5 -139.5t-141.5 -57.5h-143z" />
<glyph unicode="c" horiz-adv-x="677" d="M84 242q0 -49 19.5 -93.5t52 -77t76.5 -52t94 -19.5q59 0 102 23.5t84 62.5l-29 29q-33 -29 -68.5 -49.5t-88.5 -20.5q-41 0 -77 15.5t-63.5 42t-43 62.5t-15.5 77v442q0 41 15.5 78t43 63.5t63.5 42t77 15.5q53 0 89 -21.5t68 -52.5l31 29q-39 37 -77 62.5t-111 25.5 q-49 0 -93.5 -18.5t-77 -51.5t-52 -77t-19.5 -95v-442zM483 115v2v-2zM483 809q10 -12 8 -9t-8 9z" />
<glyph unicode="d" horiz-adv-x="792" d="M86 242q0 -49 19.5 -93.5t52 -77t77 -52t93.5 -19.5q74 0 125 33l84 -45v12h34v1479h-45v-498l-55 -55h-143q-49 0 -93.5 -18.5t-77 -51.5t-52 -77t-19.5 -95v-442zM131 242v442q0 84 57.5 141.5t139.5 57.5h143l55 -56v-585q0 -82 -57 -139.5t-141 -57.5 q-82 0 -139.5 57.5t-57.5 139.5z" />
<glyph unicode="e" horiz-adv-x="770" d="M86 242q0 -49 19.5 -93.5t52 -77t77 -52t93.5 -19.5h209v45h-209q-82 0 -139.5 57.5t-57.5 139.5v143l53 55h387v244q0 51 -19.5 95t-52 77t-76.5 51.5t-95 18.5q-49 0 -93.5 -18.5t-77 -51.5t-52 -77t-19.5 -95v-442zM131 541v143q0 84 57.5 141.5t139.5 57.5 q84 0 141 -57.5t57 -141.5v-143l-55 -56h-287z" />
<glyph unicode="f" horiz-adv-x="526" d="M111 0h43v831l55 56h166v43h-166l-55 55v250q0 41 16 78t44 63.5t63.5 42t74.5 15.5h23v45h-23q-49 0 -93 -19.5t-76.5 -52.5t-52 -77t-19.5 -95v-1235z" />
<glyph unicode="g" horiz-adv-x="776" d="M90 236q0 -51 19.5 -95.5t52.5 -76t77 -49t95 -17.5q61 0 119 29l79 -52v-176q0 -41 -15 -77.5t-43 -63.5t-63.5 -42t-76.5 -15q-53 0 -90 21.5t-70 51.5l-29 -28q37 -39 76 -63.5t113 -24.5q49 0 93 18t77 51t52 77t19 95v889q0 51 -19 95t-52 77t-77 51.5t-93 18.5 q-51 0 -95 -18.5t-77 -51.5t-52.5 -77t-19.5 -95v-452zM135 236v452q0 84 57.5 141.5t141.5 57.5q41 0 76.5 -15.5t63.5 -42t43 -63.5t15 -78v-452q0 -41 -15 -78t-43 -63.5t-63.5 -42t-76.5 -15.5q-84 0 -141.5 57.5t-57.5 141.5zM152 -303q12 -11 22 -23h2z" />
<glyph unicode="h" horiz-adv-x="784" d="M111 0h43v827l55 56h143q84 0 141.5 -57.5t57.5 -141.5v-684h45v684q0 51 -19.5 95t-52 77t-77 51.5t-95.5 18.5h-143l-55 55v498h-43v-1479z" />
<glyph unicode="i" horiz-adv-x="382" d="M111 1348h43v98h-43v-98zM119 0h45v926h-45v-926z" />
<glyph unicode="j" horiz-adv-x="344" d="M-113 -391v-43h23q45 0 88 19.5t75.5 52t52 76.5t19.5 93v1119h-43v-1119q0 -41 -16 -77.5t-44 -63t-62.5 -42t-69.5 -15.5h-23zM98 1329h45v101h-45v-101z" />
<glyph unicode="k" horiz-adv-x="774" d="M94 0h45v442l56 56h143q84 0 141.5 -57.5t57.5 -141.5v-299h43v299q0 104 -80 182l-2 80q39 37 60.5 82t21.5 98v179h-43v-179q0 -84 -57.5 -141t-141.5 -57h-143l-56 55v881h-45v-1479z" />
<glyph unicode="l" horiz-adv-x="374" d="M111 0h43v1479h-43v-1479z" />
<glyph unicode="m" horiz-adv-x="1257" d="M111 0h43v692q0 84 57 141.5t141 57.5t141.5 -57.5t57.5 -141.5v-692h45v692q0 84 57.5 141.5t141.5 57.5t141 -57.5t57 -141.5v-692h43v692q0 84 -46 148.5t-124 83.5h-145q-53 -12 -107 -68h-79q-55 55 -109 68h-145q-78 -18 -124 -83t-46 -149v-692z" />
<glyph unicode="n" horiz-adv-x="780" d="M94 0h45v692q0 84 57.5 141.5t141.5 57.5t141.5 -57.5t57.5 -141.5v-692h43v692q0 84 -46.5 148.5t-123.5 83.5h-146q-76 -18 -123 -83t-47 -149v-692z" />
<glyph unicode="o" horiz-adv-x="770" d="M90 242q0 -49 19.5 -93.5t52.5 -77t77 -52t95 -19.5q49 0 93 19.5t77 52t52 77t19 93.5v442q0 51 -19 95t-52 77t-77 51.5t-93 18.5q-51 0 -95 -18.5t-77 -51.5t-52.5 -77t-19.5 -95v-442zM135 242v442q0 84 57.5 141.5t141.5 57.5q41 0 76.5 -15.5t63.5 -42t43 -63.5 t15 -78v-442q0 -41 -15 -77t-43 -62.5t-63.5 -42t-76.5 -15.5q-84 0 -141.5 57.5t-57.5 139.5z" />
<glyph unicode="p" horiz-adv-x="780" d="M104 -219l9 -55v-164h41v383l55 55h143q51 0 95.5 19.5t77 52t52 77t19.5 93.5v442q0 51 -19.5 95t-52 77t-77 51.5t-95.5 18.5h-241v-1145h-7zM154 98v729l55 56h143q84 0 141.5 -57.5t57.5 -141.5v-442q0 -82 -57.5 -139.5t-141.5 -57.5h-143z" />
<glyph unicode="q" horiz-adv-x="792" d="M86 242q0 -49 19.5 -93.5t52 -77t77 -52t93.5 -19.5h143l55 -55v-381h43v166l-2 53h4v1143h-243q-49 0 -93.5 -18.5t-77 -51.5t-52 -77t-19.5 -95v-442zM131 242v442q0 84 57.5 141.5t139.5 57.5h143l55 -56v-729l-55 -53h-143q-82 0 -139.5 57.5t-57.5 139.5z" />
<glyph unicode="r" horiz-adv-x="655" d="M92 0h45v684q0 84 57.5 141.5t141.5 57.5q55 0 91 -21.5t65 -52.5l30 29q-23 23 -50.5 44t-68.5 36h-141q-76 -23 -123 -86.5t-47 -147.5v-684zM492 809q2 -4 13 -14.5t9 -3.5q-4 4 -11 9t-11 9z" />
<glyph unicode="s" horiz-adv-x="733" d="M74 684q0 -51 18.5 -95t51 -77t76.5 -52.5t95 -19.5q84 0 141.5 -57t57.5 -141q0 -82 -57.5 -139.5t-141.5 -57.5q-51 0 -89 20.5t-70 51.5l-29 -29q37 -39 77 -63.5t111 -24.5q51 0 95.5 19.5t77 52t51 77t18.5 93.5q0 51 -18.5 95t-51 76.5t-76.5 52t-96 19.5 q-84 0 -141 57.5t-57 141.5t57 141.5t141 57.5q57 0 92 -21.5t64 -52.5l33 29q-39 37 -78 62.5t-111 25.5q-51 0 -95 -18.5t-76.5 -51.5t-51 -77t-18.5 -95zM135 141q13 -16 21 -24h4zM471 809q2 -4 13.5 -14.5t9.5 -3.5q-7 6 -23 18z" />
<glyph unicode="t" horiz-adv-x="524" d="M98 242q0 -49 19.5 -93.5t52.5 -77t77 -52t95 -19.5h23v45h-23q-84 0 -141.5 57.5t-57.5 139.5v585l56 56h166v43h-166l-56 55v498h-45v-1237z" />
<glyph unicode="u" horiz-adv-x="790" d="M84 242q0 -49 19.5 -93.5t52 -77t76.5 -52t94 -19.5h243v926h-45v-828l-55 -53h-143q-41 0 -77 15.5t-63.5 42t-43 62.5t-15.5 77v684h-43v-684z" />
<glyph unicode="v" d="M111 311q0 -43 25.5 -95t64.5 -99t84 -80t82 -39l22 -8l-14 8q37 8 77 43t71.5 81t52 97t20.5 92v619h-45v-619q0 -23 -15.5 -56.5t-38 -69t-46 -68.5t-41.5 -54l-78 -6q-25 20 -56.5 52t-58.5 67t-45 71t-18 64v619h-43v-619z" />
<glyph unicode="w" horiz-adv-x="1257" d="M111 242q0 -82 46 -147.5t124 -84.5h145q29 8 54.5 24.5t54.5 45.5h79q27 -29 52.5 -45.5t54.5 -24.5h145q78 18 124 84t46 148v684h-43v-684q0 -82 -57 -139.5t-141 -57.5t-141.5 57.5t-57.5 139.5v684h-45v-684q0 -82 -57.5 -139.5t-141.5 -57.5t-141 57.5t-57 139.5 v684h-43v-684z" />
<glyph unicode="x" horiz-adv-x="782" d="M92 0h45v242q0 84 57.5 141t141.5 57t141.5 -57t57.5 -141v-242h43v242q0 109 -80 182l-2 80q39 37 60.5 82t21.5 98v242h-43v-242q0 -84 -57.5 -141.5t-141.5 -57.5t-141.5 57.5t-57.5 141.5v242h-45v-242q0 -111 80 -180l2 -80q-39 -39 -60.5 -84t-21.5 -98v-242z" />
<glyph unicode="y" horiz-adv-x="784" d="M88 242q0 -49 19.5 -93.5t52.5 -77t77 -52t95 -19.5h143l53 -55v-142q0 -41 -16 -77.5t-43 -63.5t-62.5 -42t-74.5 -15h-191v-43h191q49 0 93 18.5t77 51t52 76.5t19 95v1123h-45v-828l-53 -53h-143q-84 0 -141.5 57.5t-57.5 139.5v684h-45v-684z" />
<glyph unicode="z" horiz-adv-x="765" d="M86 0h485v41l-387 4l-53 53v107l21 45l419 313v363h-485v-43h389l53 -56v-217l-20 -43l-422 -315v-252z" />
<glyph unicode="{" horiz-adv-x="526" d="M33 662l53 -44q10 -41 15 -90t5 -104v-76q0 -25 -1 -49.5t-1 -50.5v-160q0 -51 18.5 -95t51.5 -76t77 -50.5t95 -18.5h23v41h-23q-84 0 -141.5 57.5t-57.5 141.5v66q0 33 1.5 69.5t1.5 75.5q0 53 -1.5 107.5t-5.5 103.5t-10 89t-14 63v45q18 41 23 95t5 103v418 q0 41 16.5 78t43 63.5t62.5 42t77 15.5h23v45h-23q-51 0 -95 -19.5t-77 -52.5t-51.5 -77t-18.5 -95v-418q0 -39 -2 -80t-16 -82l-53 -36h16v-45h-16z" />
<glyph unicode="|" horiz-adv-x="374" d="M111 0h43v1479h-43v-1479z" />
<glyph unicode="}" horiz-adv-x="526" d="M49 -111v-41h21q51 0 95 18.5t76.5 50.5t52 76t19.5 95v160q0 27 -1 51.5t-1 48.5v76q0 55 3 107.5t18 93.5l51 37h-14v45h14l-51 36q-14 41 -16.5 82t-2.5 80v422q0 51 -19.5 95t-52 77t-76.5 52.5t-95 19.5h-21v-45h21q84 0 141 -57.5t57 -141.5v-422q0 -51 6.5 -104 t22.5 -94v-43q-8 -25 -14.5 -65t-9.5 -88t-5 -101.5t-2 -104.5q0 -41 1 -78t1 -67v-72q0 -84 -57 -141.5t-141 -57.5h-21z" />
<glyph unicode="~" horiz-adv-x="880" d="M117 1348l4 -2q4 16 11 29.5t15 25.5q-8 -10 -16 -23.5t-14 -29.5zM147 1401q39 49 109 49q39 0 61.5 -12.5t47.5 -26.5l2 -2q4 -4 8 -5t8 -5q29 -18 56.5 -33.5t66.5 -15.5q109 0 143 108q-20 -33 -34.5 -53.5t-29 -30.5t-31.5 -14t-44 -4q-35 0 -62.5 13t-56.5 32 q-4 2 0 1t0 1l-6 2q-27 16 -54.5 31.5t-64.5 15.5q-43 0 -71.5 -13.5t-47.5 -37.5z" />
<glyph unicode="&#xa1;" horiz-adv-x="374" d="M111 467v-1036h43v1036h-43zM111 825h43v99h-43v-99z" />
<glyph unicode="&#xa2;" horiz-adv-x="782" d="M111 242q0 -82 48 -147.5t130 -86.5l43 -53v-64h43v64l39 53q41 10 70.5 29.5t56.5 46.5l-31 31q-33 -29 -69 -49.5t-89 -20.5q-84 0 -141 57.5t-57 139.5v442q0 84 57 141.5t141 57.5q57 0 92 -21.5t66 -52.5l31 29q-23 23 -51.5 44t-75.5 38l-39 53v63h-43v-65l-43 -53 q-82 -20 -130 -85t-48 -149v-442zM510 115q6 6 11 13t14 13l-25 -24v-2zM510 809q2 -4 13.5 -14.5t8.5 -3.5q-16 12 -22 18zM541 84l37 -35v74l-19.5 -19.5t-17.5 -19.5z" />
<glyph unicode="&#xa3;" horiz-adv-x="749" d="M111 0h241q51 0 95.5 19.5t77 52t52 77t19.5 93.5v22h-45v-22q0 -82 -57.5 -139.5t-141.5 -57.5h-143l-55 53v729l55 56h166v43h-166l-55 55v254q0 41 16 78t44 63.5t63.5 42t74.5 15.5q57 0 92 -21.5t66 -52.5l31 29q-39 37 -76 63.5t-113 26.5q-49 0 -93 -19.5 t-76.5 -52.5t-52 -77t-19.5 -95v-1235zM510 1360q2 -4 14.5 -13.5t7.5 -5.5q-16 13 -22 19z" />
<glyph unicode="&#xa5;" horiz-adv-x="735" d="M63 221h166l56 -55v-166h43v166l55 55h166v43h-166l-55 55v287l55 56h166v45h-166l-55 55v76l43 53q82 20 130 84.5t48 148.5v355h-43v-355q0 -84 -57.5 -141t-141.5 -57t-141 57t-57 141v355h-46v-355q0 -84 49.5 -148.5t129.5 -84.5l43 -53v-76l-56 -55h-166v-45h166 l56 -56v-287l-56 -55h-166v-43z" />
<glyph unicode="&#xa6;" horiz-adv-x="374" d="M111 0h43v412h-43v-412zM111 1073h43v406h-43v-406z" />
<glyph unicode="&#xa7;" horiz-adv-x="747" d="M61 684q0 -47 13.5 -81t36.5 -62l6 -9q25 -53 82 -81.5t133 -28.5h22l45 -4q47 -27 76 -72t29 -104q0 -41 -15.5 -77t-43 -62.5t-63.5 -42t-77 -15.5q-53 0 -90 20.5t-70 51.5l-28 -29q37 -39 75.5 -63.5t112.5 -24.5q49 0 93 19.5t77 52t52.5 77t19.5 93.5t-16.5 89 t-45.5 72l4 78q39 35 61.5 82.5t22.5 100.5q0 68 -33.5 123t-86.5 85l-11 9q-27 23 -59.5 34t-77.5 11q-12 0 -22 -2h-13q-2 0 -4 -1t-4 -1l-26 6q-47 27 -75 74t-28 104q0 82 57.5 139.5t141.5 57.5q55 0 91 -21.5t64 -50.5l31 29q-39 37 -77 62.5t-109 25.5 q-51 0 -95 -19.5t-77 -52.5t-52.5 -77t-19.5 -93t16.5 -90t45.5 -74l-5 -78q-39 -35 -61.5 -81t-22.5 -99zM106 684q0 61 34 110.5t89 73.5l35 2q16 -4 32.5 -6t35.5 -2q55 0 100 -28l4 -5q12 -10 19.5 -17t11.5 -11l27 -27l6 -10q29 -49 28 -100q0 -66 -34.5 -115 t-94.5 -72h-30q-16 4 -31.5 6t-32.5 2q-57 0 -96 23l-10 6q-16 14 -31.5 28.5t-28.5 28.5l-8 13q-25 43 -25 100zM123 141q6 -6 12 -13t10 -11h2zM487 1231q2 -4 14.5 -14.5t8.5 -6.5t-11.5 10.5t-11.5 10.5z" />
<glyph unicode="&#xa8;" horiz-adv-x="657" d="M111 1378h43v101h-43v-101zM393 1378h43v101h-43v-101z" />
<glyph unicode="&#xa9;" horiz-adv-x="1196" d="M82 715q0 -139 45 -248t113.5 -183.5t149.5 -113.5t153 -39q104 0 190 51t145.5 134t92.5 187t33 210q0 84 -28 185t-84 189.5t-143 147.5t-206 59q-78 0 -160 -41t-148.5 -115.5t-109.5 -182t-43 -240.5zM111 715q0 141 43 244.5t107.5 171t140 100.5t141.5 33 q98 0 167.5 -37t118 -93.5t77 -125t44 -130t20.5 -107.5t5 -60q0 -158 -48 -262.5t-116 -168t-141.5 -90t-126.5 -26.5q-109 0 -191 52t-135 132t-79.5 177.5t-26.5 189.5zM389 668v84q0 70 48 119t120 49q51 0 75.5 -15.5t47.5 -38.5l-4 -2q-25 20 -51.5 34.5t-67.5 14.5 q-68 0 -115 -47t-47 -114v-84q0 -68 47 -115t115 -47q41 0 67.5 12t51.5 35l2 -4q-27 -23 -54.5 -36t-66.5 -13q-72 0 -120 49t-48 119zM678 549l39 -37v78q-12 -12 -20.5 -21.5t-18.5 -19.5z" />
<glyph unicode="&#xab;" horiz-adv-x="890" d="M135 467l133 -135l31 30l-66 68v76l82 88l-26 29zM469 463l135 -137l31 30l-66 70v74l82 90l-26 28z" />
<glyph unicode="&#xac;" horiz-adv-x="1036" d="M111 621h606l55 -56v-166h43v265h-704v-43z" />
<glyph unicode="&#xad;" horiz-adv-x="512" d="M59 657h281v43h-281v-43z" />
<glyph unicode="&#xae;" horiz-adv-x="1196" d="M82 715q0 -139 45 -248t113.5 -183.5t149.5 -113.5t153 -39q104 0 190 51t145.5 134t92.5 187t33 210q0 84 -28 185t-84 189.5t-143 147.5t-206 59q-78 0 -160 -41t-148.5 -115.5t-109.5 -182t-43 -240.5zM111 715q0 141 43 244.5t107.5 171t140 100.5t141.5 33 q98 0 167.5 -37t118 -93.5t77 -125t44 -130t20.5 -107.5t5 -60q0 -158 -48 -262.5t-116 -168t-141.5 -90t-126.5 -26.5q-109 0 -191 52t-135 132t-79.5 177.5t-26.5 189.5zM393 797l10 10l-10 12h21l22 21l33 -33l-33 -33l-22 23h-21zM426 313h23v451l-13 10l-10 -10v-451z M426 852l10 -12l13 12v248l-23 -21v-227zM449 1100v14h12zM461 1114h102q47 0 80 -35t33 -82v-61q0 -53 -39 -88v-29q27 18 43 49t16 68v61q0 55 -39 96.5t-94 41.5h-82zM469 807l12 -10h82q25 0 51 10q-12 4 -25.5 8t-25.5 4h-82zM614 807q15 4 23 12v-24q-4 4 -10 6t-13 6 zM637 768q39 -39 39 -88v-367h20v367q0 35 -16 65.5t-43 49.5v-27z" />
<glyph unicode="&#xb0;" d="M111 1235q0 -51 19.5 -95t52 -77t76.5 -51.5t93 -18.5q51 0 95.5 18.5t77 51.5t52 77t19.5 95t-19.5 95t-52 77t-77 52.5t-95.5 19.5q-49 0 -93 -19.5t-76.5 -52.5t-52 -77t-19.5 -95zM154 1235q0 41 16 78t44 63.5t63.5 42t74.5 15.5q84 0 141.5 -57.5t57.5 -141.5 t-57.5 -141.5t-141.5 -57.5t-141 57.5t-57 141.5z" />
<glyph unicode="&#xb1;" d="M111 440h485v45h-485v-45zM111 883h165l56 -56v-165h43v165l55 56h166v43h-166l-55 55v166h-43v-166l-56 -55h-165v-43z" />
<glyph unicode="&#xb4;" horiz-adv-x="536" d="M125 1360l35 -31l139 203l-33 33z" />
<glyph unicode="&#xb5;" horiz-adv-x="927" d="M111 -389h43v358l82 49q14 -8 25 -13t22 -7q70 0 112.5 6t68 14.5t37 17.5t17.5 15l2 2q27 25 55 25q4 0 12.5 -1t20.5 -9l6 -2q35 -23 59.5 -36.5t44 -20.5t38 -9t43.5 -2h2v43h-2q-41 0 -78 15.5t-63.5 43t-42 63.5t-15.5 77l-2 682h-45v-693q0 -84 -57.5 -141 t-141.5 -57q-41 0 -76.5 15t-63.5 42t-43 63.5t-15 77.5v693h-45v-1311z" />
<glyph unicode="&#xb6;" horiz-adv-x="765" d="M68 578q0 -80 44 -142.5t113 -87.5l35 -51v-406h92v1285l56 55h96l49 -51v82h-242q-51 0 -95 -19.5t-77 -52.5t-52 -77t-19 -93v-442zM551 -102h6v1278l-4 4z" />
<glyph unicode="&#xb7;" horiz-adv-x="389" d="M111 606h57v101h-57v-101z" />
<glyph unicode="&#xb8;" horiz-adv-x="485" d="M80 -285q4 0 10 -1t14 -1h7v2h-31zM111 -287v-41h22q53 0 92 39t39 92v242h-43v-242q0 -53 -34.5 -70.5t-75.5 -19.5z" />
<glyph unicode="&#xbb;" horiz-adv-x="890" d="M131 590l80 -90v-74l-66 -70l31 -30l135 137l-155 155zM465 594l82 -88v-76l-66 -68l31 -30l135 135l-155 156z" />
<glyph unicode="&#xbf;" horiz-adv-x="612" d="M111 229v-551q0 -51 19.5 -95t52 -76.5t76.5 -52t93 -19.5q51 0 95.5 19.5t77 52t52 76.5t19.5 95v23h-45v-23q0 -84 -57.5 -141t-141.5 -57t-141 57t-57 141v551q0 84 57 141.5t141 57.5h23v164h-39v-74l-43 -53q-82 -20 -132 -85t-50 -151zM334 829h43v99h-43v-99z" />
<glyph unicode="&#xc0;" horiz-adv-x="854" d="M84 883l55 -56v-827h43v827l56 56h286l56 -56v-827h45v1235q0 51 -19.5 95t-52.5 77t-77 52.5t-95 19.5q-49 0 -93 -19.5t-77 -52.5t-52.5 -77t-19.5 -95v-254l-55 -55v-43zM182 981v254q0 41 16.5 78t44 63.5t63.5 42t75 15.5q84 0 141.5 -57.5t57.5 -141.5v-254 l-56 -55h-286zM332 1884l82 -84l28 29l-82 84z" />
<glyph unicode="&#xc1;" horiz-adv-x="854" d="M86 887l55 -56v-831h43v831l56 56h286l56 -56v-831h45v1235q0 51 -19.5 95t-52.5 77t-77 52.5t-95 19.5q-49 0 -93 -19.5t-77 -52.5t-52.5 -77t-19.5 -95v-250l-55 -55v-43zM184 985v250q0 41 16.5 78t44 63.5t63.5 42t75 15.5q84 0 141.5 -57.5t57.5 -141.5v-250 l-56 -55h-286zM375 1819l28 -31l89 86l-29 31z" />
<glyph unicode="&#xc2;" horiz-adv-x="854" d="M86 887l55 -56v-831h43v831l56 56h286l56 -56v-831h45v1235q0 51 -19.5 96t-52.5 79t-77 54.5t-95 20.5q-49 0 -93 -20.5t-77 -54.5t-52.5 -79t-19.5 -96v-250l-55 -55v-43zM184 985v250q0 41 16.5 78t44 63.5t63.5 42t75 15.5q84 0 141.5 -57.5t57.5 -141.5v-250 l-56 -55h-286zM276 1790l31 -31l35 39l78 2l39 -41l30 31l-106 106z" />
<glyph unicode="&#xc3;" horiz-adv-x="854" d="M80 887l55 -56v-831h43v831l55 56h287l55 -56v-831h46v1235q0 51 -19.5 95t-52.5 77t-77 52.5t-95 19.5t-95 -19.5t-77 -52.5t-51.5 -77t-18.5 -95v-250l-55 -55v-43zM98 1769l6 -2q11 33 27 56q-10 -10 -17.5 -23.5t-15.5 -30.5zM131 1823q35 47 107 47q39 0 61.5 -11.5 t46.5 -25.5l2 -2q4 -4 9 -6t10 -6q27 -16 54.5 -31.5t65.5 -15.5q109 0 144 108q-20 -35 -34.5 -54.5t-29 -30.5t-32 -14t-43.5 -3q-35 0 -63 13t-56 32q-4 2 0 1t0 1l-4 2q-27 16 -55.5 30.5t-63.5 14.5q-86 0 -119 -49zM178 985v250q0 41 16.5 78t43 63.5t62.5 42t77 15.5 q84 0 141 -57.5t57 -141.5v-250l-55 -55h-287z" />
<glyph unicode="&#xc4;" horiz-adv-x="854" d="M84 885l55 -56v-829h43v829l56 56h286l56 -56v-829h45v1235q0 51 -19.5 95t-52.5 77t-77 52.5t-95 19.5q-49 0 -93 -19.5t-77 -52.5t-52.5 -77t-19.5 -95v-252l-55 -55v-43zM182 983v252q0 41 16.5 78t44 63.5t63.5 42t75 15.5q84 0 141.5 -57.5t57.5 -141.5v-252 l-56 -55h-286zM213 1769h45v99h-45v-99zM516 1769h45v99h-45v-99z" />
<glyph unicode="&#xc5;" horiz-adv-x="854" d="M84 885l55 -56v-829h43v829l56 56h286l56 -56v-829h45v1235q0 51 -19.5 95t-52.5 77t-77 52.5t-95 19.5q-49 0 -93 -19.5t-77 -52.5t-52.5 -77t-19.5 -95v-252l-55 -55v-43zM182 983v252q0 41 16.5 78t44 63.5t63.5 42t75 15.5q84 0 141.5 -57.5t57.5 -141.5v-252 l-56 -55h-286zM246 1892l6 -59q6 -10 6 -18l55 -56q6 0 13 -6l73 -4q15 10 21 10l55 56q0 4 10 20l-4 66q-6 6 -6 18l-55 55q-8 0 -14 6l-72 5q-16 -10 -21 -11l-55 -55v-4l-2 -2l-4 -10q-2 -4 -3 -5.5t-3 -5.5zM264 1866v4q0 41 30 70.5t73 29.5t70.5 -29.5t31.5 -76.5 q-2 -41 -31.5 -70t-70.5 -29q-45 0 -74 28t-29 73z" />
<glyph unicode="&#xc6;" horiz-adv-x="1191" d="M96 879l56 -56v-823h45v823l55 56h287l55 -56v-823h430v45h-332l-55 53v725l55 56h166v43h-166l-55 55v258q0 41 16.5 78t43 63.5t62.5 42t77 15.5h188v45h-188q-109 0 -179 -80h-82q-74 80 -180 80q-51 0 -95 -19.5t-77 -52.5t-52 -77t-19 -95v-258l-56 -55v-43z M197 977v258q0 41 16 78t43 63.5t62.5 42t76.5 15.5q84 0 141.5 -57.5t57.5 -141.5v-258l-55 -55h-287z" />
<glyph unicode="&#xc7;" horiz-adv-x="708" d="M111 242q0 -82 48 -147.5t130 -86.5l43 -53v-152q0 -53 -35 -70.5t-76 -19.5v-41h21q55 0 94 39t39 92v152l39 53q41 10 70.5 29.5t56.5 46.5l-31 31q-33 -29 -69 -49.5t-89 -20.5q-84 0 -141 57.5t-57 139.5v993q0 41 16 78t44 63.5t63.5 42t74.5 15.5q53 0 89 -21.5 t69 -52.5l31 29q-39 37 -77 63.5t-112 26.5q-49 0 -93 -19.5t-76.5 -52.5t-52 -77t-19.5 -95v-993zM190 -285q4 0 10.5 -1t12.5 -1h8v2h-31zM510 115q6 6 11 13t14 13l-25 -24v-2zM510 1360l25 -23q-8 4 -13.5 10.5t-11.5 12.5zM541 84l37 -35v74l-19.5 -19.5t-17.5 -19.5z " />
<glyph unicode="&#xc8;" horiz-adv-x="718" d="M80 1434l55 -56v-1378h430v45h-332l-55 53v733l55 56h166v43h-166l-55 55v393l55 56h332v45h-485v-45zM207 1874l84 -84l28 29l-83 84z" />
<glyph unicode="&#xc9;" horiz-adv-x="716" d="M80 1434l55 -56v-1378h430v45h-332l-55 53v733l55 56h166v43h-166l-55 55v393l55 56h332v45h-485v-45zM270 1817l29 -31l90 86l-29 31z" />
<glyph unicode="&#xca;" horiz-adv-x="720" d="M84 1434l55 -56v-1378h430v45h-331l-56 53v733l56 56h165v43h-165l-56 55v393l56 56h331v45h-485v-45zM170 1810l29 -30l39 39h79l37 -37l29 28l-104 107z" />
<glyph unicode="&#xcb;" horiz-adv-x="727" d="M76 1769h43v99h-43v-99zM82 1479l2 -45l55 -56l-2 -1378h430v45h-331l-56 53v733l56 56h165v43h-165l-56 55l2 393l56 56h331l-2 45h-485zM516 1769h45v99h-45v-99z" />
<glyph unicode="&#xcc;" horiz-adv-x="389" d="M68 0h155v45l-55 53v1280l55 56v45h-155v-45l55 -56v-1280l-55 -53v-45zM80 1864l84 -84l29 28l-84 84z" />
<glyph unicode="&#xcd;" horiz-adv-x="389" d="M39 0h156v45l-56 53l2 1280l56 56v45h-156v-45l55 -56l-2 -1280l-55 -53v-45zM98 1806l29 -28l86 84l-29 28z" />
<glyph unicode="&#xce;" horiz-adv-x="389" d="M31 1823l28 -33l39 41h80l39 -37l29 29l-107 104zM70 0h155v45l-55 53l2 1280l55 56v45h-153v-45l53 -56l-2 -1280l-55 -53v-45z" />
<glyph unicode="&#xcf;" horiz-adv-x="389" d="M-35 1769h43v99h-43v-99zM61 0h156v45l-55 53v1280l55 56v45h-156v-45l56 -56v-1280l-56 -53v-45zM268 1769h45v99h-45v-99z" />
<glyph unicode="&#xd0;" horiz-adv-x="860" d="M0 885h127l55 -56v-829h244q51 0 95 19.5t77 52t51.5 77t18.5 93.5v993q0 51 -18.5 95t-51.5 77t-77 52.5t-95 19.5h-299v-45l55 -56v-395l-55 -55h-127v-43zM227 98v731l56 56h143v43h-143l-56 55v395l56 56h143q84 0 141.5 -57.5t57.5 -141.5v-993q0 -82 -57.5 -139.5 t-141.5 -57.5h-143z" />
<glyph unicode="&#xd1;" horiz-adv-x="888" d="M57 45h54v-45h45v1235q0 41 16 78t44 63.5t63.5 42t74.5 15.5q84 0 141.5 -57.5t57.5 -141.5v-1235h45v1235q0 84 -45 147.5t-123 83.5h-145q-78 -20 -125 -83.5t-47 -147.5v-1137zM125 1759l6 -2q9 32 25 55q-14 -16 -31 -53zM156 1812q38 50 108 50q39 0 61.5 -12.5 t47.5 -24.5l2 -2q6 -6 18 -13q27 -18 54.5 -33.5t66.5 -15.5q109 0 143 109q-20 -33 -34.5 -52.5t-28.5 -30.5t-31.5 -14.5t-44.5 -3.5q-35 0 -62.5 12.5t-56.5 30.5q-4 2 0 1t0 2l-4 2q-27 16 -55.5 31.5t-63.5 15.5q-82 0 -120 -52z" />
<glyph unicode="&#xd2;" horiz-adv-x="784" d="M96 242q0 -49 19.5 -93.5t52.5 -77t77 -52t95 -19.5t95 19.5t77 52t51.5 77t18.5 93.5v993q0 51 -18.5 95t-51.5 77t-77 52.5t-95 19.5t-95 -19.5t-77 -52.5t-52.5 -77t-19.5 -95v-993zM141 242v993q0 41 16.5 78t43 63.5t62.5 42t77 15.5q84 0 141.5 -57.5t57.5 -141.5 v-993q0 -82 -57.5 -139.5t-141.5 -57.5t-141.5 57.5t-57.5 139.5zM250 1874l84 -84l28 29l-83 84z" />
<glyph unicode="&#xd3;" horiz-adv-x="790" d="M104 242q0 -49 18.5 -93.5t51.5 -77t77 -52t95 -19.5t95 19.5t77 52t52.5 77t19.5 93.5v993q0 51 -19.5 95t-52.5 77t-77 52.5t-95 19.5t-95 -19.5t-77 -52.5t-51.5 -77t-18.5 -95v-993zM147 242v993q0 41 16.5 78t43 63.5t62.5 42t77 15.5q84 0 141.5 -57.5t57.5 -141.5 v-993q0 -82 -57.5 -139.5t-141.5 -57.5t-141.5 57.5t-57.5 139.5zM326 1812l28 -30l88 86l-28 30z" />
<glyph unicode="&#xd4;" horiz-adv-x="784" d="M92 242q0 -49 19.5 -93.5t52.5 -77t77 -52t95 -19.5q49 0 93 19.5t77 52t52.5 77t19.5 93.5v993q0 51 -19.5 95t-52.5 77t-77 52.5t-93 19.5q-51 0 -95 -19.5t-77 -52.5t-52.5 -77t-19.5 -95v-993zM137 242v993q0 41 16.5 78t43 63.5t62.5 42t77 15.5q84 0 141.5 -57.5 t57.5 -141.5v-993q0 -82 -57.5 -139.5t-141.5 -57.5t-141.5 57.5t-57.5 139.5zM221 1823l29 -33l39 41h80l37 -37l28 29l-106 104z" />
<glyph unicode="&#xd5;" horiz-adv-x="796" d="M74 1755l4 -2q10 35 26 55q-18 -18 -30 -53zM102 242q0 -49 18.5 -93.5t51.5 -77t77 -52t95 -19.5t95 19.5t77 52t51.5 77t18.5 93.5v993q0 51 -18.5 95t-51.5 77t-76 52.5t-94 19.5t-95 -19.5t-77 -52.5t-51.5 -77t-18.5 -95zM104 1808q39 50 107 50q39 0 61.5 -12.5 t46.5 -26.5l3 -2q4 -4 9 -5.5t9 -5.5q27 -18 54.5 -33.5t66.5 -15.5q109 0 143 109q-20 -33 -34.5 -52.5t-29 -30.5t-31.5 -14.5t-44 -3.5q-35 0 -62.5 12.5t-56.5 30.5q-4 2 0 1t0 1l-4 2q-27 16 -55.5 32t-63.5 16q-84 0 -119 -52zM145 242v993q0 84 57.5 141.5 t141.5 57.5q39 0 76 -15.5t63.5 -42t43 -63.5t16.5 -78v-993q0 -82 -57.5 -139.5t-141.5 -57.5t-141.5 57.5t-57.5 139.5z" />
<glyph unicode="&#xd6;" horiz-adv-x="794" d="M96 242q0 -49 19.5 -93.5t52.5 -77t77 -52t95 -19.5t95 19.5t77 52t51.5 77t18.5 93.5v993q0 51 -18.5 95t-51.5 77t-77 52.5t-95 19.5t-95 -19.5t-77 -52.5t-52.5 -77t-19.5 -95v-993zM111 1765h43v99h-43v-99zM141 242v993q0 41 16.5 78t43 63.5t62.5 42t77 15.5 q84 0 141.5 -57.5t57.5 -141.5v-993q0 -82 -57.5 -139.5t-141.5 -57.5t-141.5 57.5t-57.5 139.5zM516 1765h45v99h-45v-99z" />
<glyph unicode="&#xd7;" horiz-adv-x="686" d="M109 520l28 -28l117 116h80l117 -116l28 28l-117 117v80l117 117l-28 28l-117 -117h-80l-117 117l-28 -28l116 -117v-80z" />
<glyph unicode="&#xd8;" d="M111 242q0 -49 19.5 -93.5t52 -77t76.5 -52t93 -19.5q51 0 95.5 19.5t77 52t52 77t19.5 93.5v993q0 23 -6 47.5t-23 60.5q-33 59 -88 97.5t-127 38.5q-49 0 -93 -19.5t-76.5 -52.5t-52 -77t-19.5 -95v-993zM154 563v672q0 41 16 78t44 63.5t63.5 42t74.5 15.5 q86 0 146 -64l14 -55l-250 -770zM184 174l258 791l109 -19v-704q0 -82 -57.5 -139.5t-141.5 -57.5q-96 0 -157 78z" />
<glyph unicode="&#xd9;" d="M111 242q0 -49 19.5 -93.5t52 -77t76.5 -52t93 -19.5h244v1479h-45v-1381l-55 -53h-144q-84 0 -141 57.5t-57 139.5v1237h-43v-1237zM293 1864l84 -84l29 28l-84 84z" />
<glyph unicode="&#xda;" d="M111 242q0 -49 19.5 -93.5t52 -77t76.5 -52t93 -19.5h244v1479h-45v-1381l-55 -53h-144q-84 0 -141 57.5t-57 139.5v1237h-43v-1237zM356 1815l29 -31l90 86l-29 31z" />
<glyph unicode="&#xdb;" d="M111 242q0 -49 19.5 -93.5t52 -77t76.5 -52t93 -19.5h244v1479h-45v-1381l-55 -53h-144q-84 0 -141 57.5t-57 139.5v1237h-43v-1237zM246 1804l28 -30l39 38h80l37 -36l29 28l-107 107z" />
<glyph unicode="&#xdc;" d="M111 242q0 -49 19.5 -93.5t52 -77t76.5 -52t93 -19.5h244v1479h-45v-1381l-55 -53h-144q-84 0 -141 57.5t-57 139.5v1237h-43v-1237zM111 1772h43v98h-43v-98zM551 1772h45v98h-45v-98z" />
<glyph unicode="&#xdd;" horiz-adv-x="757" d="M78 1124q0 -84 48 -148.5t130 -84.5l41 -53v-836h45v836l41 53q82 20 131 84.5t49 148.5v357h-45v-357q0 -84 -57.5 -141t-141.5 -57t-141 57t-57 141v357h-43v-357zM291 1808l28 -30l89 86l-29 30z" />
<glyph unicode="&#xde;" horiz-adv-x="870" d="M111 0h98v166l55 55h144q51 0 95 18.5t76.5 51.5t52 77t19.5 95v551q0 51 -19.5 95t-52 77t-76.5 52t-95 19h-144l-55 56v166h-98v-45l55 -56v-1280l-55 -53v-45zM209 319v838l55 55h144q84 0 141 -57t57 -141v-551q0 -84 -57 -141.5t-141 -57.5h-144z" />
<glyph unicode="&#xdf;" horiz-adv-x="944" d="M111 -211h45v1438q0 104 42 178t130 76h4q57 0 92 -19.5t53.5 -48.5t24.5 -60.5t6 -58.5q0 -29 -21.5 -78t-52.5 -106q-35 -72 -66.5 -145.5t-31.5 -126.5q0 -78 24.5 -124t69.5 -93h2l146 -166q53 -57 76.5 -127t23.5 -152q0 -55 -9.5 -90t-28.5 -54.5t-49 -26.5t-69 -7 q-76 0 -107.5 36t-31.5 134v51h-47v-49q0 -92 51 -139t133 -47q96 0 149.5 53t53.5 176q0 145 -102 258l-142 156l-14 14v2q-23 25 -41 46.5t-30.5 44t-19.5 48t-7 60.5q0 61 26.5 117.5t61.5 113.5q33 57 61.5 114.5t28.5 110.5q0 88 -62.5 141.5t-160.5 53.5 q-43 0 -81 -15.5t-67 -49t-46 -88t-17 -130.5v-1421z" />
<glyph unicode="&#xe0;" horiz-adv-x="774" d="M74 246q0 -51 18.5 -95.5t51 -77t76.5 -52t95 -19.5q35 0 67 9t60 26l84 -45v10h29l2 684q0 51 -18.5 95t-51 77t-76.5 51.5t-96 18.5q-72 0 -111.5 -25.5t-76.5 -62.5l29 -29q33 31 70.5 52.5t88.5 21.5q84 0 141.5 -57.5t57.5 -141.5v-143l-55 -56h-144q-51 0 -95 -19 t-76.5 -52t-51 -77t-18.5 -93zM117 246q0 82 57 139t141 57h152l55 -53v-143q0 -41 -17.5 -78t-46 -63.5t-65.5 -42t-78 -15.5q-84 0 -141 57.5t-57 141.5zM135 786l25 25h-4q-4 -6 -10.5 -12.5t-10.5 -12.5zM268 1407l84 -84l29 29l-84 84z" />
<glyph unicode="&#xe1;" horiz-adv-x="774" d="M80 240q0 -49 19.5 -93.5t52 -77t76.5 -51t94 -18.5q76 0 129 33l84 -45v12h30v682q0 49 -19.5 93t-52 77t-76.5 52.5t-95 19.5q-72 0 -112 -26t-75 -62l29 -29q31 31 68.5 52.5t89.5 21.5q84 0 141 -57.5t57 -141.5v-143l-55 -56h-143q-49 0 -93.5 -19.5t-77 -52 t-52 -76.5t-19.5 -95zM123 240q0 84 57.5 141t141.5 57h153l53 -55v-143q0 -41 -17 -77t-46 -63.5t-66 -43t-77 -15.5q-41 0 -78 15.5t-63.5 43t-42 63.5t-15.5 77zM141 782l25 25h-2l-12.5 -12.5t-10.5 -12.5zM281 1354l28 -31l88 86l-28 31z" />
<glyph unicode="&#xe2;" horiz-adv-x="774" d="M78 248q0 -51 18.5 -95t51 -77t76.5 -52.5t95 -19.5q35 0 68 9.5t62 25.5l83 -45v10h31v684q0 51 -19.5 95t-52 77t-76.5 51.5t-96 18.5q-72 0 -111.5 -25.5t-74.5 -62.5l29 -29q31 31 68.5 52.5t88.5 21.5q84 0 141.5 -57.5t57.5 -141.5v-143l-55 -56h-144 q-51 0 -95 -19t-76.5 -52t-51 -77t-18.5 -93zM121 248q0 41 15.5 76.5t42 63.5t63.5 43t77 15h152l55 -55v-143q0 -41 -17 -78t-46 -63.5t-66 -42t-78 -15.5q-84 0 -141 57.5t-57 141.5zM139 791l25 22h-2zM227 1317l29 -31l39 39h80l37 -37l28 29l-104 106z" />
<glyph unicode="&#xe3;" horiz-adv-x="772" d="M61 1321l5 -2q10 30 26 55q-8 -10 -16 -23.5t-15 -29.5zM80 238q0 -51 19.5 -94.5t52 -75t76.5 -50t94 -18.5q74 0 131 33l82 -49v16h32l-2 680q0 49 -19.5 93t-52 77t-76.5 52.5t-95 19.5q-72 0 -112 -26t-75 -62l29 -29q31 29 68.5 51.5t89.5 22.5q84 0 141 -57.5 t57 -141.5v-143l-55 -56h-143q-49 0 -93.5 -19.5t-77 -52t-52 -76.5t-19.5 -95zM92 1374q39 49 109 49q39 0 61.5 -12t46.5 -27l2 -2q4 -4 8.5 -5t8.5 -5q29 -18 56.5 -33.5t66.5 -15.5q109 0 143 109q-20 -33 -34.5 -53.5t-29 -31t-32 -14.5t-43.5 -4q-35 0 -62.5 13.5 t-56.5 31.5q-4 2 0 1t0 1l-4 2q-29 16 -56.5 31.5t-64.5 15.5q-43 0 -71.5 -13t-47.5 -38zM123 238q0 84 57.5 141t141.5 57h153l53 -55v-143q0 -41 -17 -78t-46 -63.5t-66 -42t-77 -15.5q-84 0 -141.5 57.5t-57.5 141.5zM141 780l25 25h-2q-6 -6 -12.5 -13.5t-10.5 -11.5z " />
<glyph unicode="&#xe4;" horiz-adv-x="778" d="M74 248q0 -51 18.5 -95t51 -77t76.5 -52.5t95 -19.5q35 0 67 9.5t60 25.5l84 -45v10l31 -2v686q0 51 -18.5 95t-51 77t-76.5 51.5t-96 18.5q-72 0 -111.5 -25.5t-76.5 -62.5l29 -29q33 31 70.5 52.5t88.5 21.5q84 0 141.5 -57.5t57.5 -141.5v-143l-55 -56h-144 q-51 0 -95 -19t-76.5 -52t-51 -77t-18.5 -93zM117 248q0 41 15 76.5t42 63.5t63.5 43t77.5 15h152l55 -55v-143q0 -41 -17.5 -78t-46 -63.5t-65.5 -42t-78 -15.5q-84 0 -141 57.5t-57 141.5zM135 791l25 22h-4q-4 -6 -10.5 -12t-10.5 -10zM168 1327h43v100h-43v-100z M500 1327h45v100h-45v-100z" />
<glyph unicode="&#xe5;" horiz-adv-x="770" d="M84 242q0 -49 19.5 -93.5t52 -77t76.5 -52t94 -19.5q72 0 129 35l84 -45v10h28l2 684q0 51 -19.5 95t-52 77t-76.5 51.5t-95 18.5q-72 0 -111 -26t-76 -62l29 -29q31 31 68.5 52.5t89.5 21.5q84 0 141 -57.5t57 -141.5v-143l-55 -56h-143q-49 0 -93.5 -19.5t-77 -52 t-52 -76.5t-19.5 -95zM127 242q0 41 15.5 77.5t43 63.5t63.5 42t77 15h153l56 -55v-143q0 -41 -17.5 -77t-46.5 -62.5t-66.5 -42t-78.5 -15.5t-77 15.5t-63.5 42t-43 62.5t-15.5 77zM145 784l25 25h-2q-4 -6 -11.5 -12.5t-11.5 -12.5zM240 1442l8 -60q6 -10 6 -16l55 -55 q6 0 13 -8l73 -5q13 13 19 13l55 55q0 2 4 6t8 12l-4 68q-8 6 -8 16l-55 56q-6 0 -13 6l-73 6q-12 -12 -19 -12l-55 -56v-4l-2 -2l-4 -8q-2 -4 -4 -6t-4 -6zM260 1415v6q0 41 29.5 70t72.5 29t71 -30t32 -77q-2 -41 -32 -69.5t-71 -28.5q-45 0 -73.5 27.5t-28.5 72.5z" />
<glyph unicode="&#xe6;" horiz-adv-x="1200" d="M80 242q0 -49 19.5 -93.5t52 -77t76.5 -52t94 -19.5q111 0 178 80h82q74 -80 182 -80h215v45h-215q-84 0 -141.5 57.5t-57.5 139.5v143l56 55h385v244q0 51 -19.5 95t-52.5 77t-77 51.5t-93 18.5q-109 0 -180 -78h-80q-74 78 -182 78q-72 0 -112 -26t-75 -62l29 -29 q31 31 68.5 52.5t89.5 21.5q84 0 141 -57.5t57 -141.5v-143l-55 -56h-143q-49 0 -93.5 -19.5t-77 -52t-52 -76.5t-19.5 -95zM123 242q0 84 57.5 141t141.5 57h143l55 -55v-143q0 -82 -57 -139.5t-141 -57.5t-141.5 57.5t-57.5 139.5zM141 784l25 25h-2l-12.5 -12.5 t-10.5 -12.5zM565 541v143q0 84 57.5 141.5t141.5 57.5q41 0 77 -15.5t63.5 -42t43 -63.5t15.5 -78v-143l-56 -56h-286z" />
<glyph unicode="&#xe7;" horiz-adv-x="714" d="M111 242q0 -82 48 -147.5t130 -86.5l43 -53v-152q0 -53 -35 -70.5t-76 -19.5v-41h21q55 0 94 39t39 92v152l39 53q41 10 70.5 29.5t56.5 46.5l-31 31q-33 -29 -69 -49.5t-89 -20.5q-84 0 -141 57.5t-57 139.5v442q0 84 57 141.5t141 57.5q57 0 92 -21.5t66 -52.5l31 29 q-39 37 -77 62.5t-112 25.5q-49 0 -93 -18.5t-76.5 -51.5t-52 -77t-19.5 -95v-442zM190 -285q4 0 10.5 -1t12.5 -1h8v2h-31zM510 115q6 6 11 13t14 13l-25 -24v-2zM510 809q2 -4 13.5 -14.5t8.5 -3.5q-16 12 -22 18zM541 84l37 -35v74l-19.5 -19.5t-17.5 -19.5z" />
<glyph unicode="&#xe8;" horiz-adv-x="780" d="M92 250q0 -51 19.5 -95t52.5 -77t77 -52.5t95 -19.5h207v45h-207q-84 0 -141.5 57.5t-57.5 141.5v143l56 56h385v241q0 51 -19.5 95t-52.5 77t-77 52.5t-93 19.5q-51 0 -95 -19.5t-77 -52.5t-52.5 -77t-19.5 -95v-440zM137 547v143q0 84 57.5 141.5t141.5 57.5 t141.5 -57.5t57.5 -141.5v-143l-56 -55h-286zM276 1415l84 -84l29 29l-84 84z" />
<glyph unicode="&#xe9;" horiz-adv-x="780" d="M92 250q0 -51 19.5 -95t52.5 -77t77 -52.5t95 -19.5h207v45h-207q-84 0 -141.5 57.5t-57.5 141.5v143l56 56h385v241q0 51 -19.5 95t-52.5 77t-77 52.5t-93 19.5q-51 0 -95 -19.5t-77 -52.5t-52.5 -77t-19.5 -95v-440zM137 547v143q0 84 57.5 141.5t141.5 57.5 t141.5 -57.5t57.5 -141.5v-143l-56 -55h-286zM295 1352l29 -31l88 86l-29 31z" />
<glyph unicode="&#xea;" horiz-adv-x="780" d="M92 242q0 -49 19.5 -93.5t52.5 -77t77 -52t95 -19.5h207v45h-207q-84 0 -141.5 57.5t-57.5 139.5v143l56 55h385v244q0 51 -19.5 95t-52.5 77t-77 51.5t-93 18.5q-51 0 -95 -18.5t-77 -51.5t-52.5 -77t-19.5 -95v-442zM137 541v143q0 84 57.5 141.5t141.5 57.5 t141.5 -57.5t57.5 -141.5v-143l-56 -56h-286zM252 1309l29 -31l38 39h80l37 -37l29 29l-105 104z" />
<glyph unicode="&#xeb;" horiz-adv-x="780" d="M92 252q0 -51 19.5 -95t52.5 -77t77 -52.5t95 -19.5h207v45h-207q-84 0 -141.5 57.5t-57.5 141.5v143l56 56h385v241q0 51 -19.5 95t-52.5 77t-77 52.5t-93 19.5q-51 0 -95 -19.5t-77 -52.5t-52.5 -77t-19.5 -95v-440zM137 549v143q0 84 57.5 141.5t141.5 57.5 t141.5 -57.5t57.5 -141.5v-143l-56 -55h-286zM154 1325h45v100h-45v-100zM506 1325h43v100h-43v-100z" />
<glyph unicode="&#xec;" horiz-adv-x="493" d="M135 1421l86 -86l29 31l-86 86zM168 0h43l2 926h-43z" />
<glyph unicode="&#xed;" horiz-adv-x="493" d="M135 1401l29 -29l86 84l-29 29zM154 0h43l2 926h-45v-926z" />
<glyph unicode="&#xee;" horiz-adv-x="593" d="M135 1298l29 -30l39 41h80l36 -39l29 28l-106 107zM238 0h47v926h-45z" />
<glyph unicode="&#xef;" horiz-adv-x="581" d="M111 1335h43v99h-43v-99zM209 0h45v926h-45v-926zM317 1337h45v99h-45v-99z" />
<glyph unicode="&#xf0;" horiz-adv-x="778" d="M74 242q0 -49 18.5 -93.5t51 -77t76.5 -52t95 -19.5t95.5 19.5t77 52t51 77t18.5 93.5v993q0 27 -6 55l12 53l107 121l-31 29l-74 -84l-82 -2q-72 72 -168 72q-72 0 -111.5 -27t-76.5 -63l29 -29q33 31 67.5 52.5t91.5 21.5q88 0 148 -68v-74l-117 -129l31 -28l41 43 l96 -37v-344l-82 -49q-59 31 -117 30q-51 0 -95 -19.5t-76.5 -52t-51 -76.5t-18.5 -93v-295zM117 242v295q0 84 57 141t141 57t141.5 -57t57.5 -141v-295q0 -82 -57.5 -139.5t-141.5 -57.5t-141 57.5t-57 139.5zM137 1341l19 19zM156 1360h4h-4z" />
<glyph unicode="&#xf1;" horiz-adv-x="792" d="M90 1329l4 -2q15 37 27 55q-8 -10 -16.5 -23t-14.5 -30zM102 0h43v690q0 84 58.5 141.5t142.5 57.5q82 0 139.5 -57.5t57.5 -141.5v-690h43v690q0 84 -45 147.5t-121 84.5h-146q-78 -20 -125 -84t-47 -148v-690zM121 1382q38 50 108 50q39 0 61.5 -12.5t47.5 -24.5l2 -2 q4 -4 8 -6.5t8 -6.5q29 -18 56.5 -33.5t66.5 -15.5q109 0 144 109q-20 -33 -35 -52.5t-29 -30.5t-31.5 -14.5t-44.5 -3.5q-35 0 -62.5 12.5t-55.5 30.5q-4 2 0 1t0 1l-5 2q-29 16 -56.5 32t-63.5 16q-43 0 -72 -13.5t-47 -38.5z" />
<glyph unicode="&#xf2;" horiz-adv-x="772" d="M88 242q0 -49 19.5 -93.5t52.5 -77t77 -52t95 -19.5q49 0 93 19.5t77 52t52 77t19 93.5v442q0 51 -19 95t-52 77t-77 51.5t-93 18.5q-51 0 -95 -18.5t-77 -51.5t-52.5 -77t-19.5 -95v-442zM133 242v442q0 84 57.5 141.5t141.5 57.5q82 0 139 -57.5t57 -141.5v-442 q0 -82 -57 -139.5t-139 -57.5q-84 0 -141.5 57.5t-57.5 139.5zM313 1430l84 -84l29 28l-84 84z" />
<glyph unicode="&#xf3;" horiz-adv-x="772" d="M88 242q0 -49 19.5 -93.5t52.5 -77t77 -52t95 -19.5q49 0 93 19.5t77 52t52 77t19 93.5v442q0 51 -19 95t-52 77t-77 51.5t-93 18.5q-51 0 -95 -18.5t-77 -51.5t-52.5 -77t-19.5 -95v-442zM133 242v442q0 84 57.5 141.5t141.5 57.5q82 0 139 -57.5t57 -141.5v-442 q0 -82 -57 -139.5t-139 -57.5q-84 0 -141.5 57.5t-57.5 139.5zM307 1370l29 -31l88 86l-29 31z" />
<glyph unicode="&#xf4;" horiz-adv-x="772" d="M88 242q0 -49 19.5 -93.5t52.5 -77t77 -52t95 -19.5q49 0 93 19.5t77 52t52 77t19 93.5v442q0 51 -19 95t-52 77t-77 51.5t-93 18.5q-51 0 -95 -18.5t-77 -51.5t-52.5 -77t-19.5 -95v-442zM133 242v442q0 84 57.5 141.5t141.5 57.5q82 0 139 -57.5t57 -141.5v-442 q0 -82 -57 -139.5t-139 -57.5q-84 0 -141.5 57.5t-57.5 139.5zM217 1309l29 -31l39 39h80l36 -37l29 29l-106 104z" />
<glyph unicode="&#xf5;" horiz-adv-x="772" d="M61 1325l5 -2q14 37 26 55q-8 -10 -16 -23.5t-15 -29.5zM78 242q0 -49 18.5 -93.5t51 -77t76.5 -52t95 -19.5t95.5 19.5t77 52t52 77t19.5 93.5v442q0 51 -18.5 95t-51 77t-77.5 51.5t-97 18.5q-51 0 -95 -18.5t-76.5 -51.5t-51 -77t-18.5 -95v-442zM92 1378 q39 49 109 49q39 0 61.5 -12t46.5 -26l2 -3q4 -4 8.5 -5t8.5 -5q29 -18 56.5 -33.5t66.5 -15.5q109 0 143 109q-20 -33 -34.5 -52.5t-29 -31t-32 -14.5t-43.5 -3q-35 0 -62.5 12.5t-56.5 30.5q-4 2 0 1t0 1l-4 2q-29 16 -56.5 32t-64.5 16q-43 0 -71.5 -13.5t-47.5 -38.5z M121 242v442q0 84 58.5 141.5t142.5 57.5q82 0 139 -57.5t57 -141.5v-442q0 -82 -57.5 -139.5t-141.5 -57.5t-141 57.5t-57 139.5z" />
<glyph unicode="&#xf6;" horiz-adv-x="772" d="M88 242q0 -49 19.5 -93.5t52.5 -77t77 -52t95 -19.5q49 0 93 19.5t77 52t52 77t19 93.5v442q0 51 -19 95t-52 77t-77 51.5t-93 18.5q-51 0 -95 -18.5t-77 -51.5t-52.5 -77t-19.5 -95v-442zM133 242v442q0 84 57.5 141.5t141.5 57.5q82 0 139 -57.5t57 -141.5v-442 q0 -82 -57 -139.5t-139 -57.5q-84 0 -141.5 57.5t-57.5 139.5zM154 1323h45v100h-45v-100zM487 1323h45v100h-45v-100z" />
<glyph unicode="&#xf7;" d="M111 440h485v45h-485v-45zM332 45v-98h43v98h-43zM332 883h43v98h-43v-98z" />
<glyph unicode="&#xf8;" horiz-adv-x="772" d="M88 242q0 -49 19.5 -93.5t52.5 -77t77 -52t95 -19.5q49 0 93 19.5t77 52t52 77t19 93.5v442q0 51 -19 95t-52 77t-77 51.5t-93 18.5q-51 0 -95 -18.5t-77 -51.5t-52.5 -77t-19.5 -95v-442zM133 291v393q0 84 57.5 141.5t141.5 57.5q55 0 104 -31l23 -70l-221 -514z M223 76l10 98l-10 -4l201 467l104 -23v-372q0 -82 -57 -139.5t-139 -57.5q-63 0 -109 31z" />
<glyph unicode="&#xf9;" horiz-adv-x="780" d="M68 242q0 -49 19 -93.5t52 -77t77 -52t95 -19.5h242v926h-43v-828l-55 -53h-144q-84 0 -141 57.5t-57 139.5v684h-45v-684zM287 1432l84 -84l28 28l-84 84z" />
<glyph unicode="&#xfa;" horiz-adv-x="780" d="M70 242q0 -49 19.5 -93.5t52 -77t76.5 -52t95 -19.5h242v926h-43v-828l-55 -53h-144q-84 0 -141 57.5t-57 139.5v684h-45v-684zM297 1364l29 -33l88 86l-29 33z" />
<glyph unicode="&#xfb;" horiz-adv-x="780" d="M68 242q0 -49 19 -93.5t52 -77t77 -52t95 -19.5h242v926h-43v-828l-55 -53h-144q-84 0 -141 57.5t-57 139.5v684h-45v-684zM225 1321l29 -31l39 39h80l37 -37l28 29l-104 106z" />
<glyph unicode="&#xfc;" horiz-adv-x="780" d="M68 242q0 -49 19 -93.5t52 -77t77 -52t95 -19.5h242v926h-43v-828l-55 -53h-144q-84 0 -141 57.5t-57 139.5v684h-45v-684zM76 1327h43v100h-43v-100zM516 1327h45v100h-45v-100z" />
<glyph unicode="&#xfd;" horiz-adv-x="784" d="M94 242q0 -49 19.5 -93.5t52.5 -77t77 -52t95 -19.5h143l56 -55v-140q0 -41 -16.5 -77.5t-44 -63t-63.5 -42t-75 -15.5h-166v-43h166q49 0 93 19.5t77 52t52.5 76.5t19.5 93v1121h-43v-828l-56 -53h-143q-84 0 -141.5 57.5t-57.5 139.5v684h-45v-684zM322 1360l28 -31 l88 86l-28 31z" />
<glyph unicode="&#xfe;" horiz-adv-x="870" d="M111 -395v-43h98v383l55 55h144q51 0 95 19.5t76.5 52t52 77t19.5 93.5v442q0 51 -19.5 95t-52 77t-76.5 51.5t-95 18.5h-144l-55 55v387h-98v-45l55 -55v-1608zM209 98v729l55 56h144q84 0 141 -57.5t57 -141.5v-442q0 -82 -57 -139.5t-141 -57.5h-144z" />
<glyph unicode="&#xff;" horiz-adv-x="780" d="M94 242q0 -49 19.5 -93.5t52.5 -77t77 -52t95 -19.5h143l56 -55v-140q0 -41 -16.5 -77.5t-44 -63t-63.5 -42t-75 -15.5h-182v-43h182q49 0 93 19.5t77 52t52.5 76.5t19.5 93v1121h-43v-828l-56 -53h-143q-84 0 -141.5 57.5t-57.5 139.5v684h-45v-684zM102 1329h43v101 h-43v-101zM543 1329h43v101h-43v-101z" />
<glyph unicode="&#x152;" horiz-adv-x="1136" d="M98 242q0 -49 19.5 -93.5t52.5 -77t77 -52t95 -19.5q111 0 178 80h82q74 -80 180 -80h189v45h-189q-84 0 -141 57.5t-57 139.5v583l55 56h166v43h-166l-55 55v256q0 41 16 78t44 63.5t63.5 42t74.5 15.5h189v45h-189q-109 0 -178 -80h-82q-72 80 -180 80q-51 0 -95 -19.5 t-77 -52.5t-52.5 -77t-19.5 -95v-993zM143 242v993q0 41 16.5 78t43 63.5t62.5 42t77 15.5q84 0 141.5 -57.5t57.5 -141.5v-993q0 -82 -57.5 -139.5t-141.5 -57.5t-141.5 57.5t-57.5 139.5z" />
<glyph unicode="&#x153;" horiz-adv-x="1210" d="M94 242q0 -49 19.5 -93.5t52.5 -77t77 -52t95 -19.5q106 0 178 80h82q74 -80 180 -80h199v45h-199q-84 0 -141 57.5t-57 139.5v143l55 55h387v244q0 51 -19.5 95t-52 77t-77 51.5t-95.5 18.5q-106 0 -178 -78h-82q-74 78 -180 78q-51 0 -95 -18.5t-77 -51.5t-52.5 -77 t-19.5 -95v-442zM139 242v442q0 84 57.5 141.5t141.5 57.5t141.5 -57.5t57.5 -141.5v-442q0 -82 -57.5 -139.5t-141.5 -57.5t-141.5 57.5t-57.5 139.5zM580 541v143q0 84 57 141.5t141 57.5t141.5 -57.5t57.5 -141.5v-143l-55 -56h-287z" />
<glyph unicode="&#x178;" horiz-adv-x="743" d="M74 1122q0 -84 48 -148.5t130 -84.5l41 -53v-836h45v836l41 53q82 20 130 84.5t48 148.5v357h-43v-357q0 -84 -57.5 -141t-141.5 -57t-141 57t-57 141v357h-43v-357zM74 1769h43v99h-43v-99zM514 1769h43v99h-43v-99z" />
<glyph unicode="&#x2c6;" horiz-adv-x="655" d="M131 1348l31 -29l61 65l76 2l80 -73l33 30l-148 144z" />
<glyph unicode="&#x2dc;" horiz-adv-x="880" d="M117 1335l4 -4q4 16 11 30.5t15 24.5q-8 -10 -16 -22t-14 -29zM147 1386q37 50 109 50q39 0 61.5 -12.5t47.5 -24.5l2 -2q4 -4 8 -6t8 -7q29 -18 56.5 -32.5t66.5 -14.5q109 0 143 107q-20 -33 -34.5 -52.5t-29 -30.5t-31.5 -14.5t-44 -3.5q-35 0 -62.5 13.5t-56.5 29.5 q-4 2 0 1t0 2l-6 4q-27 16 -54.5 30.5t-64.5 14.5q-82 0 -119 -52z" />
<glyph unicode="&#x2000;" horiz-adv-x="1048" />
<glyph unicode="&#x2001;" horiz-adv-x="2097" />
<glyph unicode="&#x2002;" horiz-adv-x="1048" />
<glyph unicode="&#x2003;" horiz-adv-x="2097" />
<glyph unicode="&#x2004;" horiz-adv-x="699" />
<glyph unicode="&#x2005;" horiz-adv-x="524" />
<glyph unicode="&#x2006;" horiz-adv-x="349" />
<glyph unicode="&#x2007;" horiz-adv-x="349" />
<glyph unicode="&#x2008;" horiz-adv-x="262" />
<glyph unicode="&#x2009;" horiz-adv-x="419" />
<glyph unicode="&#x200a;" horiz-adv-x="116" />
<glyph unicode="&#x2010;" horiz-adv-x="512" d="M59 657h281v43h-281v-43z" />
<glyph unicode="&#x2011;" horiz-adv-x="512" d="M59 657h281v43h-281v-43z" />
<glyph unicode="&#x2012;" horiz-adv-x="512" d="M59 657h281v43h-281v-43z" />
<glyph unicode="&#x2013;" horiz-adv-x="1036" d="M111 440h704v45h-704v-45z" />
<glyph unicode="&#x2014;" horiz-adv-x="1257" d="M111 440h925v45h-925v-45z" />
<glyph unicode="&#x2018;" horiz-adv-x="389" d="M102 1309l13 -19l75 250h-47zM111 1159h57v82h-12l-41 49l-4 -20v-111z" />
<glyph unicode="&#x2019;" horiz-adv-x="389" d="M88 1159h47l41 236l-14 16zM111 1458h10l41 -47l6 21v108h-57v-82z" />
<glyph unicode="&#x201a;" horiz-adv-x="389" d="M88 -293h47l41 230l-14 16zM111 0h10l41 -47l6 22v111h-57v-86z" />
<glyph unicode="&#x201c;" horiz-adv-x="651" d="M102 1309l13 -19l78 250h-48zM111 1159h57v82h-12l-41 49l-4 -20v-111zM365 1309l12 -19l78 250h-47zM373 1159h57v82h-10l-43 49l-4 -20v-111z" />
<glyph unicode="&#x201d;" horiz-adv-x="651" d="M88 1159h47l41 234l-14 16zM111 1458h10l41 -49l6 23v108h-57v-82zM348 1159h47l43 234l-14 16zM373 1458h10l41 -49l6 23v108h-57v-82z" />
<glyph unicode="&#x201e;" horiz-adv-x="651" d="M88 -293h47l41 227l-14 17zM111 0h10l41 -49l6 24v111h-57v-86zM348 -293h47l43 227l-14 17zM373 0h10l41 -49l6 24v111h-57v-86z" />
<glyph unicode="&#x2022;" horiz-adv-x="886" d="M172 649l125 -65l25 -21l63 -112l76 116l20 17l123 71l-121 62l-22 20l-72 121l-76 -125l-22 -20z" />
<glyph unicode="&#x2026;" horiz-adv-x="1257" d="M111 2h43v96h-43v-96zM551 2h45v96h-45v-96zM993 2h43v96h-43v-96z" />
<glyph unicode="&#x202f;" horiz-adv-x="419" />
<glyph unicode="&#x2039;" horiz-adv-x="555" d="M135 467l133 -135l31 30l-66 68v76l82 88l-26 29z" />
<glyph unicode="&#x203a;" horiz-adv-x="555" d="M131 594l80 -88v-76l-66 -68l31 -30l135 135l-155 156z" />
<glyph unicode="&#x205f;" horiz-adv-x="524" />
<glyph unicode="&#x20ac;" horiz-adv-x="745" d="M59 600h45l56 -55v-303q0 -49 18.5 -93.5t51 -77t76.5 -52t95 -19.5q72 0 111 24.5t78 63.5l-33 29q-31 -31 -67.5 -51.5t-88.5 -20.5q-84 0 -141 57.5t-57 139.5v303l55 55h270v29h-270l-55 55v166l55 55h277v29h-277l-55 53v248q0 41 16.5 78t43 63.5t62 42t76.5 15.5 q51 0 88 -21.5t68 -52.5l33 29q-39 37 -78 63.5t-111 26.5q-51 0 -95 -19.5t-76.5 -52.5t-51 -77t-18.5 -95v-248l-56 -53h-41v-29h41l56 -55v-166l-56 -55h-45v-29zM557 117q8 4 13 11t12 13zM557 1360l25 -23q-6 4 -11.5 10.5t-13.5 12.5z" />
<glyph unicode="&#x2122;" horiz-adv-x="1617" d="M41 1434h143l56 -56v-610h28v610l56 56h143v45h-426v-45zM621 770h28v467q0 41 15.5 78t40 63.5t57.5 42t69 15.5q39 0 73 -15.5t58.5 -42t39 -63.5t14.5 -78v-467h28v467q0 41 15.5 78t40 63.5t58.5 42t71 15.5q78 0 131 -57.5t53 -141.5v-467h29v467q0 84 -41 148.5 t-107 82.5h-127q-51 -12 -94 -65l-86 -2q-45 51 -94 67h-121q-70 -18 -110.5 -82.5t-40.5 -148.5v-467z" />
<glyph unicode="&#x25fc;" horiz-adv-x="921" d="M0 0v922h922v-922h-922z" />
</font>
</defs>
</svg>
