<?xml version="1.0" standalone="no"?>
<!DOCTYPE svg PUBLIC "-//W3C//DTD SVG 1.1//EN" "http://www.w3.org/Graphics/SVG/1.1/DTD/svg11.dtd" >
<svg xmlns="http://www.w3.org/2000/svg" xmlns:xlink="http://www.w3.org/1999/xlink" version="1.1">
<metadata></metadata>
<defs>
<font id="lady_ice_-_lightregular" horiz-adv-x="792" >
<font-face units-per-em="2048" ascent="1638" descent="-410" />
<missing-glyph horiz-adv-x="512" />
<glyph horiz-adv-x="0" />
<glyph horiz-adv-x="682" />
<glyph horiz-adv-x="714" d="M289 1642h143v193h-143v-193z" />
<glyph horiz-adv-x="522" d="M109 1391q0 -51 33.5 -85t86.5 -34q51 0 86 34.5t35 86.5q-4 53 -38 86.5t-83 33.5q-53 0 -86.5 -33.5t-33.5 -84.5v-4zM131 1407l3 6l3 6l2 4q2 4 4 7.5t2 7.5v4l33 33q14 0 31 14l43 -2q12 -12 29 -12l32 -33q0 -14 11 -29l2 -39q-12 -23 -13 -33l-32 -32 q-16 0 -33 -15l-43 2q-12 12 -27 13l-33 32q0 16 -10 31z" />
<glyph horiz-adv-x="516" d="M53 1968l221 -205l199 209l-102 101l-97 -109l-120 104z" />
<glyph unicode="&#xd;" horiz-adv-x="1024" />
<glyph horiz-adv-x="772" d="M113 12l84 -18l397 1470l-84 21z" />
<glyph horiz-adv-x="737" d="M106 856h23l31 -33v-823h86v823l33 33h170l32 -33v-823h86v942h-288l-33 31v248q0 70 51 120t121 50h43v86h-43q-53 0 -100.5 -19.5t-82 -54.5t-55 -82t-20.5 -100v-248l-31 -31h-23v-86z" />
<glyph horiz-adv-x="737" d="M106 858h23l31 -33v-825h86v825l33 33h170l32 -33v-825h86v1477h-149q-53 0 -100.5 -19.5t-82 -54.5t-55 -82t-20.5 -100v-246l-31 -31h-23v-86zM246 975v246q0 70 51 120t121 50h31l32 -33v-383l-32 -31h-170z" />
<glyph horiz-adv-x="927" d="M123 471l57 -59l117 116l55 -22l-2 -506h408v86h-289l-33 31l2 538l8 23l222 221l-58 57l-118 -114l-56 22l2 613h-139v-86h23l30 -33v-643l-8 -25z" />
<glyph horiz-adv-x="854" d="M123 471l57 -59l117 116l55 -22v-506h86v655l8 23l222 221l-58 57l-118 -114l-56 22l2 494v119h-86v-762l-8 -25z" />
<glyph horiz-adv-x="718" d="M76 0h512v86h-395l-33 31v123l4 14l424 848v375h-512v-86h395l33 -33v-228l-6 -16l-422 -846v-268zM147 2023l183 -168l164 173l-60 59l-80 -88l-45 -2l-102 88z" />
<glyph horiz-adv-x="743" d="M84 0h512v86h-395l-31 31v104l12 25l414 313v383h-512v-86h395l33 -33l2 -209l-14 -26l-416 -312v-276zM164 1497l176 -174l178 174l-57 62l-96 -97h-48l-94 94z" />
<glyph unicode=" "  horiz-adv-x="512" />
<glyph unicode="&#x09;" horiz-adv-x="512" />
<glyph unicode="&#xa0;" horiz-adv-x="512" />
<glyph unicode="!" horiz-adv-x="364" d="M106 0h87v135h-87v-135zM106 428h87v1049h-87v-1049z" />
<glyph unicode="&#x22;" horiz-adv-x="612" d="M106 1108h3l79 410h-82v-410zM350 1108h2l80 410h-82v-410z" />
<glyph unicode="#" horiz-adv-x="1005" d="M106 440h76l31 -30v-410h86v410l33 30h278l31 -30v-410h86v410l33 30h74v86h-74l-33 33v279l33 30h74v86h-74l-33 33v490h-86v-490l-31 -33h-278l-33 33v490h-86v-490l-31 -33h-76v-86h76l31 -30v-279l-31 -33h-76v-86zM299 559v279l33 30h278l31 -30v-279l-31 -33h-278z " />
<glyph unicode="$" horiz-adv-x="688" d="M45 1221q0 -53 19.5 -100.5t54.5 -82t82 -55t100 -20.5q72 0 122 -49.5t50 -120.5v-537q0 -72 -51 -121t-121 -49q-51 0 -86 22.5t-68 55.5l-57 -58q31 -31 64.5 -57t81.5 -43l22 -29v-81h86l-2 84l25 28q86 23 139 91.5t53 156.5v537q0 53 -20.5 100t-55 82t-82 54.5 t-100.5 19.5q-72 0 -121 50t-49 122q0 70 49 120t121 50q53 0 88 -24t64 -56l61 59q-31 31 -64.5 57.5t-80.5 42.5l-25 29v84h-86v-86l-22 -31q-86 -23 -138.5 -91t-52.5 -154zM139 178l2 -4q4 -8 6 -10h3q-4 4 -5.5 7t-5.5 7zM453 1311q8 -4 12 -13l-2 5q-2 2 -4 3t-6 5z " />
<glyph unicode="%" horiz-adv-x="1337" d="M61 1208q0 -53 20.5 -100t55.5 -82t82 -54.5t100 -19.5t100.5 19.5t82.5 54.5t54 82t19 100t-19 100.5t-54 82t-82 55t-101 20.5q-53 0 -100 -20.5t-82 -55t-55.5 -81.5t-20.5 -101zM147 1208q0 72 51.5 122t120.5 50q72 0 121 -50t49 -122t-49 -121t-121 -49t-122 49.5 t-50 120.5zM395 12l84 -18l398 1470l-84 21zM698 256q0 -53 19.5 -100t54.5 -82t82 -54.5t100 -19.5t100.5 19.5t82 54.5t54 82t19.5 100t-19.5 100t-54 82t-81.5 55.5t-101 20.5q-53 0 -100 -20.5t-82 -55.5t-54.5 -82t-19.5 -100zM782 256q0 72 51.5 122t120.5 50 q72 0 122 -50t50 -122t-50 -121t-122 -49t-122 49t-50 121z" />
<glyph unicode="&#x26;" horiz-adv-x="813" d="M106 256q0 -53 20.5 -100t55.5 -82t82 -54.5t101 -19.5q31 0 62.5 16.5t63 41t61.5 54t56 58.5q10 12 10 13t11 12l-60 57q-6 -8 -14 -19l-2 -2q-20 -23 -44 -48t-47.5 -46.5t-48 -36t-48.5 -14.5q-72 0 -122 49t-50 121q0 20 3 61t9 90.5t17 101.5t25.5 94t35 68.5 t45.5 26.5h80v84h-43q-72 0 -122 50.5t-50 121.5v267q0 70 51 120t121 50q72 0 121 -50.5t49 -119.5v-43h86v43q0 53 -19.5 100t-54.5 82t-82 54.5t-100 19.5t-100.5 -19.5t-82.5 -54.5t-55.5 -82t-20.5 -100v-267q0 -113 84 -190l3 -47q-12 -12 -23.5 -46t-22 -79 t-17.5 -95.5t-12 -97.5t-8.5 -85t-3.5 -58z" />
<glyph unicode="'" horiz-adv-x="364" d="M106 1108l80 410h-80v-410z" />
<glyph unicode="(" horiz-adv-x="514" d="M106 115q0 -53 20.5 -100.5t55.5 -81t82 -53t101 -19.5h43v84h-43q-72 0 -122 49t-50 121v1106q0 33 13 79t36.5 89t55.5 72.5t67 29.5h43v86h-43q-53 0 -100.5 -35t-82.5 -88t-55.5 -115.5t-20.5 -117.5v-1106z" />
<glyph unicode=")" horiz-adv-x="516" d="M45 -63v-84h43q53 0 100.5 19t82 53t54 81t19.5 100v1211q0 53 -19.5 100t-54 82t-82 54.5t-100.5 19.5h-43v-86h43q72 0 121 -49t49 -121v-1211q0 -72 -49 -120.5t-121 -48.5h-43z" />
<glyph unicode="*" horiz-adv-x="1245" d="M27 1292q35 4 69.5 10.5t63.5 18.5q-29 10 -63 17.5t-68 13.5zM160 1321q27 -10 48 -23.5t36 -29.5q23 18 43 30.5t45 22.5q-25 6 -45 18t-43 35q-14 -20 -36 -31.5t-48 -21.5zM170 942l41 -43q35 46 68 109q-31 -12 -58.5 -29.5t-50.5 -36.5zM170 1704q43 -41 109 -70 q-14 31 -32 58.5t-36 54.5zM279 1008q27 10 52 17t54 9h-2q2 29 7 53.5t18 47.5q-25 -12 -49.5 -16.5t-53.5 -6.5q-2 -29 -9 -54.5t-17 -49.5zM279 1634q10 -27 17 -51t9 -53v2q31 -4 55.5 -9t47.5 -16q-12 23 -17.5 46.5t-7.5 56.5q-59 4 -104 24zM332 1321 q29 -10 66.5 -12t97.5 -2h10l16 16l-16 12h-10q-59 0 -97.5 -3t-66.5 -11zM408 1135q27 14 57.5 39.5t71.5 66.5l2 6l4 6v19h-17l-6 -4l-6 -4q-41 -41 -67.5 -71t-38.5 -58zM408 1507q12 -29 38.5 -58.5t67.5 -70.5l4 -4l23 -2v23l-4 4q-80 80 -129 108zM522 1323l15 -14 q4 -12 8 -21l-2 -16l18 2q8 -6 21 -6l10 -15l8 9q20 10 27 12l14 -2l-2 16q8 12 10 21l17 14l-17 16q-6 8 -10 15l4 18h-25q-6 6 -16 8l-10 9l-6 -9l-13 -4l-4 -2q-4 -2 -12 -4t2 2h-18v-24q-2 -2 -4 -13zM539 971q33 -29 53 -78q10 23 23.5 42t31.5 36q-23 23 -34 43 t-21 45q-8 -25 -20.5 -45t-32.5 -43zM539 1671q20 -25 32.5 -45t20.5 -45q10 25 21 45t34 45q-18 14 -31.5 36t-23.5 48q-10 -27 -22.5 -48t-30.5 -36zM561 754h64q-4 35 -11.5 70.5t-21.5 68.5q-12 -33 -19.5 -68.5t-11.5 -70.5zM563 1886q6 -68 29 -131q12 31 19 64.5 t12 66.5h-60zM578 1227q0 -61 2 -100.5t12 -67.5q10 29 13 67.5t3 100.5v8l-16 18l-14 -20v-6zM578 1411l14 -22l16 22v8q0 55 -3 94t-13 68q-10 -29 -12 -67.5t-2 -94.5v-8zM641 1272l2 -25l8 -6q41 -41 71 -66.5t56 -39.5q-14 29 -39.5 58.5t-66.5 70.5l-6 4l-7 4h-18z M643 1372h23l6 6q41 41 66.5 71t39.5 58q-29 -16 -59.5 -43.5t-75.5 -70.5l8 4zM666 1323l14 -16h8q59 0 98 2t68 12q-29 8 -67.5 11t-98.5 3h-8zM778 1135q12 -23 16.5 -47.5t8.5 -53.5q29 -2 53.5 -9t50.5 -17q-10 25 -18 51t-10 55v-2q-29 2 -53.5 6t-47.5 17zM778 1507 q23 10 47.5 15.5t53.5 9.5q2 29 9 54.5t17 47.5q-49 -23 -104 -24h2q-4 -33 -8 -56.5t-17 -46.5zM854 1321q25 -10 45 -22.5t45 -30.5q16 16 38 29.5t48 23.5q-57 16 -86 53q-25 -23 -45 -35t-45 -18zM905 1634q31 14 59.5 30.5t51.5 39.5l-43 43q-18 -27 -35.5 -54.5 t-32.5 -58.5zM907 1008q12 -31 30 -58.5t36 -50.5l43 43q-25 18 -52.5 35.5t-56.5 30.5zM1030 1321q29 -12 61.5 -18.5t67.5 -10.5l-2 60q-35 -6 -66.5 -13.5t-60.5 -17.5z" />
<glyph unicode="+" d="M106 635h183l33 -31v-182h86v182l30 31h183v86h-183l-30 33v182h-86v-182l-33 -33h-183v-86z" />
<glyph unicode="," horiz-adv-x="325" d="M74 0h30l33 -39l-43 -231l78 258v133h-98v-121zM90 -289h2l2 19z" />
<glyph unicode="-" horiz-adv-x="495" d="M57 637h316v86h-316v-86z" />
<glyph unicode="." horiz-adv-x="319" d="M84 6h86v137h-86v-137z" />
<glyph unicode="/" horiz-adv-x="643" d="M49 12l84 -18l397 1470l-86 21z" />
<glyph unicode="0" d="M106 256q0 -53 20.5 -100t55.5 -82t82 -54.5t101 -19.5q53 0 100 19.5t82 54.5t54.5 82t19.5 100v965q0 53 -19.5 100t-54.5 82t-82 54.5t-100 19.5t-100.5 -19.5t-82.5 -54.5t-55.5 -82t-20.5 -100v-965zM193 256v965q0 70 51 120t121 50q72 0 121 -50.5t49 -119.5v-965 q0 -72 -49.5 -121t-120.5 -49q-72 0 -122 49t-50 121z" />
<glyph unicode="1" horiz-adv-x="473" d="M39 1391h141l31 -33v-1358h94l-2 1477h-264v-86z" />
<glyph unicode="2" horiz-adv-x="743" d="M88 0h514v86h-397l-31 31v409q0 72 49 122t121 50q53 0 100.5 19.5t82 54.5t55 82t20.5 100v267q0 53 -20.5 100t-55 82t-82 54.5t-100.5 19.5t-100 -19.5t-82 -54.5t-54.5 -82t-19.5 -100v-43h86v43q0 70 50 120t120 50q72 0 122 -50.5t50 -119.5v-267q0 -72 -50 -122 t-122 -50q-53 0 -100 -19.5t-82 -54t-54.5 -81.5t-19.5 -101v-526z" />
<glyph unicode="3" horiz-adv-x="733" d="M51 1178h86v43q0 35 14.5 65.5t37 54t53 37t65.5 13.5q72 0 122 -50.5t50 -119.5v-256q0 -72 -50 -121t-122 -49h-41l2 -119h41q72 0 122 -49t50 -121v-256q0 -72 -50 -121t-122 -49q-35 0 -65.5 13t-53 36t-37 54.5t-14.5 66.5v43h-86v-43q0 -53 19.5 -100.5t54.5 -81 t82 -53t100 -19.5t100.5 19.5t82 53t55 81t20.5 100.5v256q0 106 -84 190l-4 39q2 4 4 4v39q82 82 82 187v256q0 53 -20.5 100t-55 82t-82 54.5t-100.5 19.5t-100 -19.5t-82 -54.5t-54.5 -82t-19.5 -100v-43z" />
<glyph unicode="4" horiz-adv-x="804" d="M74 700h397l33 -32v-668h88v668l33 32h22v84h-22l-33 33v660h-88v-660l-33 -33h-283l-32 33v653h-82v-770z" />
<glyph unicode="5" horiz-adv-x="729" d="M84 260q0 -53 19.5 -100t54.5 -82t82 -54.5t100 -19.5t100 19.5t82 54.5t54.5 82t19.5 100v297q0 43 -13.5 85t-39 76t-61.5 55.5t-79 23.5h-198l-31 30v531l31 33l366 2v84h-483v-750h252q72 0 122 -49t50 -121v-297q0 -72 -50 -121t-122 -49q-70 0 -120 49t-50 121v43 h-86v-43z" />
<glyph unicode="6" horiz-adv-x="743" d="M106 256q0 -53 20.5 -100t55.5 -82t82 -54.5t101 -19.5q53 0 100 19.5t82 54.5t54.5 82t19.5 100v285q0 53 -19.5 100t-54.5 82t-82 55.5t-100 20.5q-59 0 -125 -33l-47 29v426q0 70 51 120t121 50q53 0 86.5 -25t64.5 -55l59 59q-45 45 -89 76t-121 31 q-53 0 -100.5 -19.5t-82.5 -54.5t-55.5 -82t-20.5 -100v-965zM193 256v285q0 72 50 122t122 50t121 -50.5t49 -121.5v-285q0 -72 -49.5 -121t-120.5 -49q-72 0 -122 49t-50 121zM516 1311q2 -4 6 -6t0 2q-2 2 -4 2z" />
<glyph unicode="7" horiz-adv-x="708" d="M51 1337h86v21l33 33h276l33 -33v-246l-141 -569q-6 -29 -20.5 -78t-26.5 -96q-10 -41 -17.5 -70t-7.5 -33v-266h84v248l2 8q4 14 21.5 83t42 162t50.5 198.5t48.5 194.5t36.5 148.5t14 61.5v373h-514v-140z" />
<glyph unicode="8" horiz-adv-x="753" d="M96 1063q0 -66 33 -122t61 -101l-6 -41q-84 -80 -84 -191v-352q0 -53 19.5 -100t54.5 -82t82 -54.5t100 -19.5t100.5 19.5t82 54.5t55 82t20.5 100v352q0 111 -84 191v6h29l-24 8l-3 2l5 35q-4 -4 -13 -27v4l2 45q84 78 84 191v160q0 53 -20.5 100t-55 82t-81.5 54.5 t-101 19.5q-53 0 -100 -19.5t-82 -54.5t-54.5 -82t-19.5 -100v-160zM182 1063v160q0 72 50.5 121t119.5 49q72 0 122 -49.5t50 -120.5v-160q0 -72 -50 -121t-122 -49t-121 49t-49 121zM186 256v352q0 72 50.5 121t119.5 49q72 0 122 -49t50 -121v-352q0 -72 -51 -121 t-121 -49t-120 49t-50 121z" />
<glyph unicode="9" horiz-adv-x="761" d="M78 950q0 -53 19.5 -100t54 -82t82 -54.5t100.5 -19.5q66 0 127 31l47 -27l-2 -442q0 -72 -50 -121t-122 -49q-51 0 -86 22.5t-68 55.5l-57 -58q45 -45 89 -75.5t122 -30.5q53 0 100 19.5t82 54.5t54.5 82t19.5 100v965q0 53 -19.5 100t-54.5 82t-82 54.5t-100 19.5 t-100.5 -19.5t-82 -54.5t-54 -82t-19.5 -100v-271zM162 950v271q0 70 51 120t121 50q72 0 122 -50.5t50 -119.5v-271q0 -72 -50 -122t-122 -50t-122 50.5t-50 121.5zM172 178l2 -4q4 -8 6 -10h2q-4 4 -5 7t-5 7z" />
<glyph unicode=":" horiz-adv-x="337" d="M82 6h106v137h-106v-137zM92 776h107v139h-107v-139z" />
<glyph unicode=";" horiz-adv-x="356" d="M86 4h45l31 -39l-41 -229l76 258v133h-111v-123zM88 778h117v137h-117v-137zM115 -283h2l4 19z" />
<glyph unicode="&#x3c;" horiz-adv-x="638" d="M123 684l272 -270l58 57l-189 191v47l189 190l-58 57z" />
<glyph unicode="=" d="M106 537h515v86h-515v-86zM106 807h515v86h-515v-86z" />
<glyph unicode="&#x3e;" horiz-adv-x="638" d="M123 471l57 -59l273 272l-271 274l-59 -59l190 -190v-47z" />
<glyph unicode="?" horiz-adv-x="720" d="M37 1178h86v43q0 70 50 120t120 50q72 0 122 -50.5t50 -119.5v-490q0 -72 -50 -121t-122 -49h-64v-270h88v174l25 31q86 16 147.5 78.5t61.5 156.5v490q0 53 -20.5 100t-55.5 82t-82 54.5t-100 19.5t-100.5 -19.5t-82 -54.5t-54 -82t-19.5 -100v-43zM238 0h86v135h-86 v-135z" />
<glyph unicode="@" horiz-adv-x="1343" d="M80 565q0 -53 6 -114q20 -178 89 -298t161 -194t195.5 -105.5t195.5 -31.5q129 0 248 59.5t246 204.5l-25 31q-68 -74 -129 -121t-119.5 -76t-117 -40t-119.5 -11q-88 0 -183.5 28.5t-178.5 94t-144.5 175t-81.5 273.5q-4 27 -6 52.5t-2 50.5q0 143 42 270t117.5 222 t177 149.5t222.5 54.5q197 0 313.5 -121t138.5 -327q6 -53 7 -107q0 -86 -17.5 -160.5t-44.5 -133t-59.5 -98.5t-63.5 -54l-14 -5q-31 0 -53.5 9.5t-32.5 50.5v2q-2 10 -2 18q0 10 -2 19v4q-2 16 -4 44t-2 32v18t2 16v27q0 33 3 74t11 100l18 246h-55l-2 -45l-61 -8 q-12 33 -33 52t-42.5 28.5t-42 11.5t-34.5 2h-14q-53 0 -97.5 -33t-78 -88t-52 -129t-18.5 -156q0 -39 6 -84q8 -74 29.5 -125t51.5 -83.5t62.5 -47t65.5 -14.5t70 21.5t102 91.5l49 -2q53 -76 81 -94.5t48 -18.5q53 0 109.5 49t101.5 158q29 74 42.5 151.5t13.5 145.5 q0 29 -3.5 55.5t-7.5 48.5q-14 113 -55 207t-104.5 160.5t-147.5 103.5t-184 37q-141 0 -251 -60.5t-185.5 -159.5t-115.5 -230t-40 -273zM414 520q0 61 13 124t39 113t63.5 80.5t86.5 30.5q43 0 76 -24.5t55.5 -64.5t34 -90t11.5 -101q0 -33 -7 -58q-4 -45 -16 -96 t-35.5 -95t-61.5 -72.5t-91 -28.5q-43 0 -75 23.5t-52.5 62t-30.5 90t-10 106.5z" />
<glyph unicode="A" horiz-adv-x="827" d="M90 854h21l32 -33v-821h86v821l31 33h279l32 -33v-821h86v1221q0 53 -20.5 100t-55 82t-81.5 54.5t-101 19.5q-53 0 -100 -19.5t-82 -54.5t-54.5 -82t-19.5 -100v-250l-32 -31h-21v-86zM229 971v250q0 70 50.5 120t119.5 50q72 0 122 -50.5t50 -119.5v-250l-32 -31h-279z " />
<glyph unicode="B" horiz-adv-x="798" d="M76 854h20l33 -33v-821h256q53 0 100 19.5t82 54.5t54.5 82t19.5 100v426q0 55 -21.5 102t-62.5 88l2 48q82 76 82 190v139l-10 60q-27 72 -90.5 120t-151.5 48h-260v-506l-33 -31h-20v-86zM211 1358l33 33h145q63 0 108.5 -39t59.5 -97v-145q0 -72 -50 -121t-122 -49 h-139l-33 31zM213 117v704l33 33h139q72 0 122 -50t50 -122v-426q0 -72 -50 -121t-122 -49h-139z" />
<glyph unicode="C" horiz-adv-x="684" d="M106 256q0 -53 20.5 -100t55.5 -82t82 -54.5t101 -19.5q70 0 115.5 28.5t92.5 75.5l-57 60q-33 -31 -66.5 -54.5t-84.5 -23.5q-72 0 -122 49t-50 121v965q0 70 51 120t121 50q51 0 85.5 -24t65.5 -56l59 59q-45 45 -89 76t-121 31q-53 0 -100.5 -19.5t-82.5 -54.5 t-55.5 -82t-20.5 -100v-965zM516 164l8 10l2 4q-4 -4 -5 -7t-5 -7zM516 1311q6 -6 10 -13l-2 5q-2 2 -4 3t-4 5zM573 104l23 -20v45z" />
<glyph unicode="D" horiz-adv-x="772" d="M49 1391h21l32 -33v-1358h258q53 0 100.5 19.5t82.5 54.5t54 82t19 100v965q0 53 -19 100t-54 82t-82 54.5t-101 19.5h-311v-86zM188 117v1241l33 33h139q70 0 120 -50.5t50 -119.5v-965q0 -72 -50 -121t-120 -49h-139z" />
<glyph unicode="E" horiz-adv-x="710" d="M84 1391h20l33 -33v-1358h459v86h-342l-31 31v704l31 33h205v86h-205l-31 31v387l31 33h342v86h-512v-86z" />
<glyph unicode="F" horiz-adv-x="698" d="M88 1391h21l32 -33v-1358h86v823l31 33h205v86h-205l-31 31v385l31 33h344v86h-514v-86z" />
<glyph unicode="G" horiz-adv-x="757" d="M90 256q0 -53 19.5 -100t54.5 -82t82 -54.5t100 -19.5l258 2v942h-186v-86h67l33 -33v-704l-33 -33l-139 -2q-72 0 -121 49t-49 121v965q0 70 50 120t120 50q78 0 123 -31t76 -68l57 54q-10 8 -7 6t-7 6v2q-47 45 -100.5 81t-141.5 36q-53 0 -100 -19.5t-82 -54.5 t-54.5 -81t-19.5 -101v-965zM543 1290q0 -2 10 -9t6 -3l-14 14z" />
<glyph unicode="H" horiz-adv-x="821" d="M84 854h20l33 -33v-821h86v821l31 33h278l33 -33v-821h86v1477h-86v-506l-33 -31h-278l-31 31v506h-86v-506l-33 -31h-20v-86z" />
<glyph unicode="I" horiz-adv-x="374" d="M57 0h193v86h-21l-32 31v1241l32 33h21v86h-193v-86h23l31 -33v-1241l-31 -31h-23v-86z" />
<glyph unicode="J" horiz-adv-x="495" d="M43 0h43q53 0 100 19.5t82 54.5t54.5 82t19.5 100v1221h-281v-86h164l31 -33v-1102q0 -72 -49 -121t-121 -49h-43v-86z" />
<glyph unicode="K" horiz-adv-x="804" d="M88 854h21l32 -33v-821h86v821l31 33h139q72 0 122 -50t50 -122v-682h86v682q0 111 -84 190l-2 48q41 41 63.5 89t22.5 101v367h-86v-367q0 -72 -50 -121t-122 -49h-139l-31 31v506h-86v-506l-32 -31h-21v-86z" />
<glyph unicode="L" horiz-adv-x="616" d="M106 0h408v86h-289l-32 31v1360h-87v-1477z" />
<glyph unicode="M" horiz-adv-x="1220" d="M106 0h87v1221q0 70 51 120t121 50q72 0 121 -50.5t49 -119.5v-1221h86v1221q0 70 51 120t121 50q72 0 121 -50.5t49 -119.5v-1221h86v1221q0 86 -51.5 154.5t-137.5 90.5h-135q-78 -18 -123 -73h-47q-57 57 -123 73h-141q-82 -23 -133.5 -91t-51.5 -154v-1221z" />
<glyph unicode="N" horiz-adv-x="800" d="M84 86h22v-86h95v1221q0 70 51 120t121 50q72 0 121 -50.5t49 -119.5v-1221h86v1221q0 86 -51.5 154.5t-137.5 90.5h-141q-82 -23 -133 -91t-51 -154v-1104z" />
<glyph unicode="O" horiz-adv-x="761" d="M94 256q0 -53 19.5 -100t54.5 -82t82 -54.5t100 -19.5t100.5 19.5t82 54.5t55 82t20.5 100v965q0 53 -20.5 100t-55 82t-82 54.5t-100.5 19.5t-100 -19.5t-82 -54.5t-54.5 -82t-19.5 -100v-965zM180 256v965q0 70 50.5 120t119.5 50q72 0 122 -50.5t50 -119.5v-965 q0 -72 -50 -121t-122 -49t-121 49t-49 121z" />
<glyph unicode="P" horiz-adv-x="757" d="M78 854h20l33 -33v-821h86v821l31 33h139q53 0 100.5 19.5t82 54.5t54 82t19.5 100v111q0 53 -19.5 100t-54 82t-82 54.5t-100.5 19.5h-256v-506l-33 -31h-20v-86zM217 971v387l31 33h139q72 0 122 -50.5t50 -119.5v-111q0 -72 -50 -121t-122 -49h-139z" />
<glyph unicode="Q" horiz-adv-x="743" d="M80 256q0 -90 54 -157.5t142 -90.5l21 -22q25 -88 93.5 -142.5t160.5 -54.5h41v84h-27q-53 0 -96 20.5t-74 73.5l19 45q80 29 129 93.5t49 150.5v965q0 53 -19.5 100t-54.5 82t-82 54.5t-100 19.5t-100.5 -19.5t-82 -54.5t-54 -82t-19.5 -100v-965zM164 256v965 q0 70 51 120t121 50q72 0 122 -50.5t50 -119.5v-965q0 -72 -50 -121t-122 -49t-122 49t-50 121z" />
<glyph unicode="R" horiz-adv-x="796" d="M66 856h22l33 -33v-823h84v823l33 33h139q72 0 121 -50t49 -122v-684h86v684q0 111 -82 190l-4 48q86 82 86 190v109q0 53 -19.5 100t-54.5 82t-82 54.5t-100 19.5h-256v-504l-33 -31h-22v-86zM205 973v385l33 33h139q72 0 121 -50.5t49 -119.5v-109q0 -72 -49 -121 t-121 -49h-139z" />
<glyph unicode="S" horiz-adv-x="688" d="M51 1225q0 -53 19.5 -100.5t54.5 -82t82 -55t100 -20.5q72 0 122 -49.5t50 -120.5v-537q0 -72 -51 -121t-121 -49q-51 0 -86 22.5t-67 57.5l-58 -59q45 -45 89 -76t122 -31q53 0 100.5 19.5t82 54.5t55 82t20.5 100v537q0 53 -20.5 100t-55 82t-82 54.5t-100.5 19.5 q-72 0 -121 50t-49 122t49.5 121t120.5 49q53 0 88 -23.5t66 -54.5l59 57q-45 45 -90 76t-123 31q-53 0 -100 -19.5t-82 -54.5t-54.5 -82t-19.5 -100zM145 182l2 -4q3 -4 7 -8h2q-6 6 -11 12zM461 1317q4 -4 5 -7t5 -7l-2 4l-4 4t-4 6z" />
<glyph unicode="T" horiz-adv-x="677" d="M47 1391h180l31 -33v-1358h90v1358l33 33h180v86h-514v-86z" />
<glyph unicode="U" d="M106 256q0 -53 20.5 -100t55.5 -82t82.5 -54.5t100.5 -19.5h256v1477h-86v-1360l-31 -31h-139q-72 0 -122 49t-50 121v1221h-87v-1221z" />
<glyph unicode="V" horiz-adv-x="759" d="M90 324q0 -57 30 -113.5t70.5 -102t84.5 -75t75 -35.5q45 8 90 43t82 83t59.5 102.5t22.5 97.5v1159h-86v-1159q0 -18 -14.5 -49t-36 -63t-44 -62.5t-38.5 -51.5l-45 -6q-23 18 -51.5 48t-53 61.5t-42 64.5t-17.5 58v1159h-86v-1159z" />
<glyph unicode="W" horiz-adv-x="1220" d="M106 256q0 -86 52.5 -154.5t138.5 -91.5h133q70 14 125 74h47q49 -57 123 -74h133q86 23 138.5 91.5t52.5 154.5v1221h-86v-1221q0 -72 -49.5 -121t-120.5 -49q-72 0 -122 49t-50 121v1221h-86v-1221q0 -72 -49.5 -121t-120.5 -49q-72 0 -122 49t-50 121v1221h-87v-1221z " />
<glyph unicode="X" d="M106 0h87v688q0 72 50 122t122 50t121 -50t49 -122v-475l2 -31v-182h84v688q0 111 -84 191l-2 47q41 41 63.5 89t22.5 101v361h-86v-361q0 -72 -49.5 -121t-120.5 -49q-72 0 -122 49t-50 121v361h-87v-361q0 -113 84 -190l3 -47q-41 -41 -64 -88.5t-23 -102.5v-688z" />
<glyph unicode="Y" horiz-adv-x="743" d="M84 1110q0 -86 52 -154.5t138 -91.5l23 -33v-831h86v831l25 33q86 23 137 91.5t51 154.5v367h-84v-367q0 -72 -50 -121t-122 -49t-121 49t-49 121v367h-86v-367z" />
<glyph unicode="Z" d="M106 0h515v86h-396l-32 31v123l4 14l424 848v375h-515v-86h398l31 -33v-228l-5 -16l-424 -846v-268z" />
<glyph unicode="[" horiz-adv-x="491" d="M96 -147h299v84h-182l-31 30v1499l31 31h182v86h-299v-1730z" />
<glyph unicode="\" horiz-adv-x="600" d="M63 1466l340 -1472l84 18l-340 1473z" />
<glyph unicode="]" horiz-adv-x="577" d="M106 -63v-84h302v1730h-302v-86h183l33 -31v-1499l-33 -30h-183z" />
<glyph unicode="^" horiz-adv-x="575" d="M123 1327l59 -59l54 53l45 -2l49 -51l59 59l-133 133z" />
<glyph unicode="_" horiz-adv-x="1220" d="M106 -233v-86h943v86h-943z" />
<glyph unicode="`" horiz-adv-x="520" d="M115 1534l164 -231l61 61l-162 229z" />
<glyph unicode="a" horiz-adv-x="751" d="M74 256q0 -53 19.5 -100t54 -82t81.5 -54.5t101 -19.5q76 0 135 39l49 -29v-10h72v684q0 53 -19.5 100t-54.5 82t-82 55.5t-100 20.5q-78 0 -122 -30.5t-91 -77.5l59 -58q33 33 66.5 56.5t87.5 23.5q72 0 121 -50t49 -122v-139l-31 -31h-139q-53 0 -100.5 -20.5 t-82 -55.5t-54 -82t-19.5 -100zM158 256q0 72 50 122t122 50h147l33 -33v-139q0 -72 -54.5 -121t-125.5 -49q-72 0 -122 49t-50 121zM166 764l12 12h-2q-2 -4 -6 -8z" />
<glyph unicode="b" horiz-adv-x="772" d="M106 0h259q53 0 100 19.5t82 54.5t54.5 82t19.5 100v428q0 53 -19.5 100t-54.5 82t-82 55.5t-100 20.5h-140l-32 31v504h-87v-1477zM193 117v706l32 33h140q72 0 121 -50t49 -122v-428q0 -72 -49.5 -121t-120.5 -49h-140z" />
<glyph unicode="c" horiz-adv-x="657" d="M82 256q0 -53 19.5 -100t54 -82t82 -54.5t100.5 -19.5q70 0 116 28.5t93 75.5l-58 58q-33 -31 -67.5 -53.5t-83.5 -22.5q-72 0 -122 49t-50 121v428q0 72 50 122t122 50q53 0 87 -23.5t64 -56.5l62 58q-47 47 -91 77.5t-122 30.5q-53 0 -100.5 -20.5t-82 -55.5t-54 -82 t-19.5 -100v-428zM489 162q4 8 9 12l2 4q-4 -4 -5 -7t-6 -7v-2zM489 776q6 -6 11 -12l-2 4q-2 2 -4.5 3t-4.5 5zM547 104l24 -20v45z" />
<glyph unicode="d" horiz-adv-x="768" d="M84 256q0 -53 19.5 -100t54.5 -82t82 -54.5t100 -19.5q35 0 68.5 8t62.5 29l49 -29v-8h76v1477h-84v-504l-33 -31h-139q-53 0 -100 -20.5t-82 -55.5t-54.5 -82t-19.5 -100v-428zM170 256v428q0 72 49 122t121 50h139l33 -33v-567q0 -72 -50 -121t-122 -49t-121 49 t-49 121z" />
<glyph unicode="e" horiz-adv-x="747" d="M84 256q0 -53 19.5 -100t54.5 -82t82 -54.5t100 -19.5h223v86h-223q-72 0 -121 49t-49 121v139l31 33h395v256q0 53 -19.5 100t-54.5 82t-82 55.5t-100 20.5t-100 -20.5t-82 -55.5t-54.5 -82t-19.5 -100v-428zM170 545v139q0 72 49 122t121 50t122 -50t50 -122v-139 l-33 -31h-278z" />
<glyph unicode="f" horiz-adv-x="512" d="M106 0h87v827l32 33h183v86h-183l-32 31v244q0 70 51 120t121 50h43v86h-43q-53 0 -100.5 -19.5t-82.5 -54.5t-55.5 -82t-20.5 -100v-1221z" />
<glyph unicode="g" horiz-adv-x="753" d="M88 250q0 -53 19.5 -99.5t54.5 -80t82 -53t100 -19.5q66 0 127 31l45 -31v-172q0 -72 -50 -121t-122 -49q-51 0 -86 23.5t-68 54.5l-57 -58q45 -45 89 -75.5t122 -30.5q53 0 100.5 19.5t82 54t55 82t20.5 100.5v862q0 53 -20.5 100.5t-55 82t-82 55t-100.5 20.5 t-100 -20.5t-82 -55t-54.5 -82t-19.5 -100.5v-438zM174 250v438q0 72 49 122t121 50t122 -50t50 -122v-438q0 -72 -50 -121t-122 -49t-121 49t-49 121zM182 -252l2 -4q4 -4 6 -10h3q-4 4 -5.5 7t-5.5 7z" />
<glyph unicode="h" horiz-adv-x="761" d="M106 0h87v823l32 33h140q72 0 121 -50t49 -122v-684h86v684q0 53 -19.5 100t-54.5 82t-82 55.5t-100 20.5h-140l-32 31v504h-87v-1477z" />
<glyph unicode="i" horiz-adv-x="372" d="M106 1307h87v139h-87v-139zM115 0h86v942h-86v-942z" />
<glyph unicode="j" horiz-adv-x="333" d="M-109 -336v-86h43q49 0 94.5 20.5t80 55.5t55 82t20.5 100v1106h-86v-1106q0 -35 -14 -66.5t-37.5 -55t-52.5 -37t-60 -13.5h-43zM96 1290h86v140h-86v-140z" />
<glyph unicode="k" horiz-adv-x="751" d="M92 0h86v451l31 32h139q72 0 122 -49t50 -121v-313h86v313q0 106 -84 191l-2 47q41 41 63.5 88t22.5 100v197h-86v-197q0 -70 -50 -120t-122 -50h-139l-31 33v875h-86v-1477z" />
<glyph unicode="l" horiz-adv-x="364" d="M106 0h87v1477h-87v-1477z" />
<glyph unicode="m" horiz-adv-x="1220" d="M106 0h87v694q0 70 50 120t122 50t121 -50t49 -120v-694h86v694q0 70 50 120t122 50t121 -50t49 -120v-694h86v694q0 86 -52.5 155t-138.5 91h-133q-78 -18 -123 -74h-47q-53 53 -125 74h-133q-86 -23 -138.5 -91.5t-52.5 -154.5v-694z" />
<glyph unicode="n" horiz-adv-x="757" d="M92 0h86v694q0 70 49 120t121 50t122 -50t50 -120v-694h86v694q0 86 -52 155t-138 91h-133q-86 -23 -138.5 -91.5t-52.5 -154.5v-694z" />
<glyph unicode="o" horiz-adv-x="747" d="M88 256q0 -53 19.5 -100t54.5 -82t82 -54.5t100 -19.5t100.5 19.5t82 54.5t55 82t20.5 100v428q0 53 -20.5 100t-55 82t-82 55.5t-100.5 20.5t-100 -20.5t-82 -55.5t-54.5 -82t-19.5 -100v-428zM174 256v428q0 72 49 122t121 50t122 -50t50 -122v-428q0 -72 -50 -121 t-122 -49t-121 49t-49 121z" />
<glyph unicode="p" horiz-adv-x="757" d="M106 -211h3v-33v-182h84v393l32 33h140q53 0 100 19.5t82 54.5t54.5 82t19.5 100v428q0 53 -19.5 100t-54.5 82t-82 55.5t-100 20.5h-259v-1153zM193 117v706l32 33h140q72 0 121 -50t49 -122v-428q0 -72 -49.5 -121t-120.5 -49h-140z" />
<glyph unicode="q" horiz-adv-x="768" d="M84 256q0 -53 19.5 -100t54.5 -82t82 -54.5t100 -19.5h139l33 -33v-391h82v182l4 33h-2v1151h-256q-53 0 -100 -20.5t-82 -55.5t-54.5 -82t-19.5 -100v-428zM170 256v428q0 72 49 122t121 50h139l33 -33v-706l-33 -31h-139q-72 0 -121 49t-49 121z" />
<glyph unicode="r" horiz-adv-x="634" d="M90 0h86v684q0 72 49 122t121 50q55 0 89 -24.5t63 -55.5l61 58q-31 31 -63.5 57.5t-75.5 42.5h-148q-84 -23 -133 -91.5t-49 -158.5v-684zM498 776q2 -4 7 -6t1 2q-2 2 -4 2t-4 2z" />
<glyph unicode="s" horiz-adv-x="710" d="M70 684q0 -53 20.5 -100t55 -82t81.5 -54.5t101 -19.5q72 0 121 -50t49 -122t-49.5 -121t-120.5 -49q-53 0 -87 22.5t-67 55.5l-59 -58q47 -45 91 -75.5t122 -30.5q53 0 100 19.5t82 54.5t54.5 82t19.5 100t-19.5 100t-54.5 82t-82 55.5t-100 20.5q-72 0 -122 49t-50 121 t50 122t122 50q53 0 87 -24.5t64 -55.5l60 58q-23 23 -44.5 43t-46 34.5t-53 22.5t-67.5 8q-53 0 -100.5 -20.5t-82 -55.5t-55 -82t-20.5 -100zM164 178l2 -4q4 -4 5 -6t3 -4h2q-4 6 -12 14zM479 776q2 -4 6 -6t0 2q-2 2 -4 2z" />
<glyph unicode="t" horiz-adv-x="509" d="M96 256q0 -53 19.5 -100t54.5 -82t82 -54.5t100 -19.5h43v86h-43q-72 0 -121 49t-49 121v567l31 33h182v86h-182l-31 31v504h-86v-1221z" />
<glyph unicode="u" horiz-adv-x="765" d="M82 256q0 -53 19.5 -100t54 -82t82 -54.5t100.5 -19.5h256v942h-84v-825l-33 -31h-139q-72 0 -122 49t-50 121v686h-84v-686z" />
<glyph unicode="v" d="M106 324q0 -45 28 -99.5t68 -103.5t86 -83t85 -40l12 -6l-6 4q41 8 84 44t77.5 85t57.5 102.5t23 96.5v622h-86v-622q0 -18 -14.5 -49t-36 -63t-44 -62.5t-39.5 -51.5l-45 -6q-23 18 -51.5 48t-53 61.5t-41.5 64.5t-17 58v622h-87v-622z" />
<glyph unicode="w" horiz-adv-x="1220" d="M106 256q0 -86 52.5 -154.5t138.5 -91.5h133q37 10 66.5 27.5t58.5 46.5h47q49 -57 123 -74h133q86 23 138.5 91.5t52.5 154.5v686h-86v-686q0 -72 -49.5 -121t-120.5 -49q-72 0 -122 49t-50 121v686h-86v-686q0 -72 -49.5 -121t-120.5 -49q-72 0 -122 49t-50 121v686 h-87v-686z" />
<glyph unicode="x" horiz-adv-x="759" d="M90 0h86v256q0 72 49 122t121 50t122 -50t50 -122v-256h86v256q0 113 -84 190l-2 48q41 41 63.5 89t22.5 101v258h-86v-258q0 -72 -50 -121t-122 -49t-121 49t-49 121v258h-86v-258q0 -115 84 -190l2 -48q-41 -41 -63.5 -88t-22.5 -102v-256z" />
<glyph unicode="y" horiz-adv-x="761" d="M86 256q0 -53 19.5 -100t54.5 -82t82 -54.5t100 -19.5h139l33 -33v-137q0 -72 -51 -121t-121 -49h-205v-86h205q53 0 100 19.5t82 54.5t55.5 82t20.5 100v1112h-86v-825l-33 -31h-139q-72 0 -121 49t-49 121v686h-86v-686z" />
<glyph unicode="z" horiz-adv-x="743" d="M84 0h512v84l-395 2l-31 31v104l12 25l414 313v383h-512v-86h397l33 -33v-209l-14 -26l-416 -312v-276z" />
<glyph unicode="{" horiz-adv-x="512" d="M47 641h6l33 -25q8 -37 12 -82t4 -102v-72q0 -25 -1 -49t-1 -51v-154q0 -53 19.5 -100t54.5 -81t82 -53t100 -19h43v84h-43q-70 0 -120 49t-50 120v66q0 29 1 64.5t1 76.5q0 51 -1 104.5t-5 102.5t-10 89t-16 63v26q20 43 25 97.5t5 103.5v406q0 35 14.5 66.5t37 55 t53.5 37t65 13.5h43v86h-43q-53 0 -100 -20.5t-82 -55.5t-54.5 -82t-19.5 -100v-406q0 -35 -2 -73t-14 -76l-31 -23h-6v-86z" />
<glyph unicode="|" horiz-adv-x="364" d="M106 0h87v1477h-87v-1477z" />
<glyph unicode="}" horiz-adv-x="512" d="M47 -63v-84h43q53 0 100.5 19t82 53t54 81t19.5 100v154q0 27 -1 51.5t-1 48.5v72q0 51 3 100.5t18 88.5l28 20h6v86h-6l-28 23q-14 39 -16.5 76.5t-2.5 72.5v410q0 53 -19.5 100t-54 82t-82 55.5t-100.5 20.5h-43v-86h43q72 0 121 -50.5t49 -121.5v-410q0 -49 7 -103.5 t24 -97.5v-24q-10 -25 -16.5 -65t-9.5 -88t-5 -100t-2 -104q0 -39 1 -74.5t1 -66.5v-70q0 -72 -49 -120.5t-121 -48.5h-43z" />
<glyph unicode="~" horiz-adv-x="854" d="M113 1319l32 -19q41 105 125 105q33 0 52.5 -10.5t42.5 -22.5v-2q4 -4 8 -6t8 -6q29 -18 57.5 -33.5t73.5 -15.5q125 0 166 137l-35 18q-20 -35 -34.5 -55t-28 -31.5t-28.5 -15.5t-36 -4q-29 0 -49.5 9t-40.5 24q-4 2 -8 5t-8 5h-2q-29 18 -59 33.5t-68 15.5 q-70 0 -109 -35t-59 -96z" />
<glyph unicode="&#xa1;" horiz-adv-x="364" d="M106 496v-1049h87v1049h-87zM106 801h87v139h-87v-139z" />
<glyph unicode="&#xa2;" horiz-adv-x="759" d="M106 256q0 -86 52.5 -154.5t138.5 -91.5l25 -30v-84h86v84l22 28q49 14 81 37t64 57l-59 62q-33 -31 -66.5 -54.5t-84.5 -23.5q-72 0 -122 49t-50 121v428q0 72 50 122t122 50q53 0 86.5 -24.5t64.5 -55.5l59 58q-31 31 -64.5 58.5t-80.5 43.5l-22 29v84h-86v-86l-25 -33 q-86 -20 -138.5 -89t-52.5 -157v-428zM516 164l8 10l2 4q-4 -4 -5 -7t-5 -7zM516 776q2 -4 6 -6t0 2q-2 2 -4 2zM575 102l21 -18v43q-6 -8 -11 -13t-10 -12z" />
<glyph unicode="&#xa3;" horiz-adv-x="727" d="M106 0h259q53 0 100 19.5t82 54.5t54.5 82t19.5 100v43h-86v-43q0 -72 -49.5 -121t-120.5 -49h-140l-32 31v706l32 33h183v86h-183l-32 31v248q0 70 51 120t121 50q53 0 86.5 -25t64.5 -55l59 59q-45 45 -89 76t-121 31q-53 0 -100.5 -19.5t-82.5 -54.5t-55.5 -82 t-20.5 -100v-1221zM516 1311q2 -4 6 -6t0 2q-2 2 -4 2z" />
<glyph unicode="&#xa5;" horiz-adv-x="712" d="M61 213h183l32 -31v-182h86v182l31 31h182v86h-182l-31 33v278l31 31h182v86h-182l-31 33v74l23 32q86 23 138 91.5t52 154.5v365h-86v-365q0 -72 -49 -121t-121 -49t-122 49t-50 121v365h-86v-365q0 -86 52.5 -154.5t138.5 -91.5l24 -32v-74l-32 -33h-183v-86h183 l32 -31v-278l-32 -33h-183v-86z" />
<glyph unicode="&#xa6;" horiz-adv-x="364" d="M106 0h87v442h-87v-442zM106 1042h87v435h-87v-435z" />
<glyph unicode="&#xa7;" horiz-adv-x="724" d="M59 684q0 -49 14.5 -85t37.5 -67l4 -6q27 -55 87 -85.5t140 -30.5h31l24 -2q41 -23 65.5 -62t24.5 -90q0 -72 -49 -121t-121 -49q-53 0 -87.5 22.5t-67.5 55.5l-58 -58q45 -45 90.5 -75.5t122.5 -30.5q53 0 100.5 19.5t82.5 54.5t54 82t19 100q0 51 -17 93t-46 77l2 45 q41 37 64.5 86.5t23.5 108.5q0 72 -36 130t-93 93l-4 2q-31 23 -66.5 37t-83.5 14q-16 0 -26 -2h-6q-2 0 -4 -1t-5 -1l-16 4q-88 45 -88 152q0 72 49 121t121 49q55 0 88 -23.5t64 -54.5l61 57q-47 45 -91 76t-122 31q-53 0 -100 -19.5t-82 -54.5t-54.5 -82t-19.5 -100 t17.5 -95.5t46.5 -76.5l-3 -45q-41 -37 -64.5 -86.5t-23.5 -106.5zM145 684q0 53 30 96t77 66l22 2q41 -10 68 -10q25 0 45.5 -7.5t40.5 -19.5h4q23 -16 39 -39l14 -14l4 -6q25 -41 25 -86q0 -55 -30.5 -99.5t-82.5 -60.5l-18 -2q-45 10 -66 10q-49 0 -81 18l-7 5 q-16 14 -30.5 27.5t-26.5 25.5l-6 10q-20 37 -21 84zM154 178l2 -4q4 -8 6 -10h2q-4 4 -5 7t-5 7zM494 1186q2 -4 6 -6t0 2q-2 2 -4 2z" />
<glyph unicode="&#xa8;" horiz-adv-x="636" d="M106 1337h87v140h-87v-140zM381 1337h86v140h-86v-140z" />
<glyph unicode="&#xa9;" horiz-adv-x="1159" d="M106 715q0 -92 27 -190.5t82 -179.5t138 -134t194 -53q53 0 129 26.5t145.5 91t118.5 171t49 264.5q0 14 -5 61t-20.5 109.5t-45 130t-78.5 125t-121 95.5t-172 38q-68 0 -144.5 -33t-142 -101.5t-110 -173t-44.5 -247.5zM123 715q0 125 39 225t100.5 170t136 107.5 t148.5 37.5q111 0 190.5 -55t132 -137t78 -177t25.5 -173q0 -98 -30 -195.5t-85 -174.5t-134 -125t-177 -48q-66 0 -140.5 36t-137 105.5t-104.5 171t-42 232.5zM377 670q0 -39 14.5 -73t40 -58.5t59 -39t72.5 -14.5q49 0 82 19.5t64 50.5l-33 33q-23 -23 -47.5 -39.5 t-65.5 -16.5q-57 0 -97 40t-40 98v82q0 55 40 95t97 40q45 0 72 -20.5t51 -47.5l-10 10l35 33q-31 31 -63 52.5t-85 21.5q-39 0 -72.5 -14.5t-59 -39t-40 -58t-14.5 -72.5v-82zM709 555q6 4 11 10t11 13v-46z" />
<glyph unicode="&#xab;" horiz-adv-x="864" d="M123 475l160 -162l59 60l-78 80v43l92 100l-55 59zM446 471l162 -164l60 62l-80 80v43l94 100l-55 59z" />
<glyph unicode="&#xac;" horiz-adv-x="1005" d="M106 602h611l33 -33v-182h84v299h-728v-84z" />
<glyph unicode="&#xad;" horiz-adv-x="495" d="M57 637h316v86h-316v-86z" />
<glyph unicode="&#xae;" horiz-adv-x="1159" d="M106 715q0 -92 27 -190.5t82 -179.5t138 -134t194 -53q53 0 129 26.5t145.5 91t118.5 171t49 264.5q0 14 -5 61t-20.5 109.5t-45 130t-78.5 125t-121 95.5t-172 38q-68 0 -144.5 -33t-142 -101.5t-110 -173t-44.5 -247.5zM123 715q0 125 39 225t100.5 170t136 107.5 t148.5 37.5q111 0 190.5 -55t132 -137t78 -177t25.5 -173q0 -98 -30 -195.5t-85 -174.5t-134 -125t-177 -48q-66 0 -140.5 36t-137 105.5t-104.5 171t-42 232.5zM401 795l33 -33v-459h23v459l30 33h80q45 0 77 -34t32 -81v-377h22v377q0 57 -43 100v47q43 47 43 101v61 q0 55 -37.5 95t-93.5 40h-133v-276l-33 -33v-20zM457 848v219l30 33h80q45 0 77 -33t32 -78v-61q0 -47 -32 -80t-77 -33h-80z" />
<glyph unicode="&#xb0;" d="M106 1221q0 -53 20.5 -100.5t55.5 -82t82 -55t101 -20.5q53 0 100 20.5t82 55t54.5 82t19.5 100.5t-19.5 100t-54.5 82t-82 54.5t-100 19.5t-100.5 -19.5t-82.5 -54.5t-55.5 -82t-20.5 -100zM193 1221q0 70 51 120t121 50q72 0 121 -50t49 -120q0 -72 -49.5 -122 t-120.5 -50q-72 0 -122 50t-50 122z" />
<glyph unicode="&#xb1;" d="M106 428h515v86h-515v-86zM106 856h183l33 -33v-182h86v182l30 33h183v86h-183l-30 31v182h-86v-182l-33 -31h-183v-86z" />
<glyph unicode="&#xb4;" horiz-adv-x="520" d="M115 1339l63 -59l162 231l-61 60z" />
<glyph unicode="&#xb5;" horiz-adv-x="901" d="M106 -377h87v369l47 26q10 -4 24.5 -9t34.5 -11q70 0 115 6t71.5 15.5t38 19.5t17.5 16v2q20 18 39 19q4 0 9 -1t15 -7l2 -2q35 -23 59.5 -36.5t44 -20.5t40 -9t47.5 -2h22v86h-22q-72 0 -122 49t-50 121l-2 684h-86v-694q0 -72 -49.5 -121t-120.5 -49q-72 0 -122 49 t-50 121v694h-89v-1315z" />
<glyph unicode="&#xb6;" horiz-adv-x="743" d="M66 582q0 -84 47 -148.5t118 -93.5l21 -31v-413h133v1265l33 33h92l31 -33v-1259h37l2 1366h-256q-53 0 -100.5 -20.5t-82.5 -55.5t-55 -82t-20 -100v-428z" />
<glyph unicode="&#xb7;" horiz-adv-x="376" d="M106 588h99v139h-99v-139z" />
<glyph unicode="&#xb8;" horiz-adv-x="471" d="M98 -233h8h-8zM106 -233v-86h44q63 0 106 44t43 105v256h-86v-256q0 -41 -28.5 -53.5t-61.5 -12.5q-6 0 -9 1.5t-8 1.5z" />
<glyph unicode="&#xbb;" horiz-adv-x="864" d="M117 592l94 -100v-43l-78 -80l60 -62l159 164l-178 180zM442 596l95 -100v-43l-78 -80l59 -60l160 162l-180 180z" />
<glyph unicode="&#xbf;" horiz-adv-x="593" d="M106 244v-535q0 -53 20.5 -100t55.5 -82t82 -54.5t101 -19.5q53 0 100 19.5t82 54.5t54.5 82t19.5 100v43h-86v-43q0 -72 -49.5 -122t-120.5 -50q-72 0 -122 50.5t-50 121.5v535q0 72 50 122t122 50h43v200h-82v-92l-25 -32q-86 -23 -140.5 -89.5t-54.5 -158.5zM324 805 h86v139h-86v-139z" />
<glyph unicode="&#xc0;" horiz-adv-x="827" d="M82 856h20l33 -33v-823h86v823l31 33h278l33 -33v-823h86v1221q0 53 -20.5 100t-55 82t-82 54.5t-100.5 19.5t-100 -19.5t-82 -54.5t-54.5 -82t-19.5 -100v-248l-33 -31h-20v-86zM221 973v248q0 70 50.5 120t119.5 50q72 0 122 -50.5t50 -119.5v-248l-33 -31h-278z M313 1849l111 -112l57 59l-110 111z" />
<glyph unicode="&#xc1;" horiz-adv-x="827" d="M84 860h20l33 -33v-827h86v827l31 33h278l33 -33v-827h86v1221q0 53 -20.5 100t-55 82t-82 54.5t-100.5 19.5t-100 -19.5t-82 -54.5t-54.5 -82t-19.5 -100v-244l-33 -31h-20v-86zM223 977v244q0 70 50.5 120t119.5 50q72 0 122 -50.5t50 -119.5v-244l-33 -31h-278z M354 1786l60 -60l114 115l-57 60z" />
<glyph unicode="&#xc2;" horiz-adv-x="827" d="M84 860h20l33 -33v-827h86v827l31 33h278l33 -33v-827h86v1221q0 53 -20.5 101t-55 84t-82 56.5t-100.5 20.5t-100 -20.5t-82 -56.5t-54.5 -84t-19.5 -101v-244l-33 -31h-20v-86zM223 977v244q0 70 50.5 120t119.5 50q72 0 122 -50.5t50 -119.5v-244l-33 -31h-278z M258 1759l61 -59l50 51l45 2l53 -53l59 59l-133 133z" />
<glyph unicode="&#xc3;" horiz-adv-x="827" d="M78 860h20l33 -33v-827h86v827l31 33h278l33 -33v-827h84v1221q0 53 -19.5 100t-54 82t-82 54.5t-100.5 19.5t-100 -19.5t-82 -54.5t-54.5 -82t-19.5 -100v-244l-33 -31h-20v-86zM96 1726l33 -16q39 105 123 105q33 0 52.5 -10.5t41.5 -24.5v-2q6 -4 19 -11 q27 -20 56.5 -34.5t72.5 -14.5q125 0 168 137l-35 17q-20 -35 -34.5 -55.5t-28 -31.5t-29 -14.5t-37.5 -3.5q-29 0 -48.5 8.5t-39.5 24.5q-4 2 -9.5 5t-9.5 5h-2q-29 16 -57.5 33t-67.5 17q-70 0 -108.5 -35t-59.5 -99zM217 977v244q0 70 50 120t120 50q72 0 122 -50.5 t50 -119.5v-244l-33 -31h-278z" />
<glyph unicode="&#xc4;" horiz-adv-x="827" d="M82 858h20l33 -33v-825h86v825l31 33h278l33 -33v-825h86v1221q0 53 -20.5 100t-55 82t-82 54.5t-100.5 19.5t-100 -19.5t-82 -54.5t-54.5 -82t-19.5 -100v-246l-33 -31h-20v-86zM207 1716h86v139h-86v-139zM221 975v246q0 70 50.5 120t119.5 50q72 0 122 -50.5 t50 -119.5v-246l-33 -31h-278zM500 1716h86v139h-86v-139z" />
<glyph unicode="&#xc5;" horiz-adv-x="827" d="M82 858h20l33 -33v-825h86v825l31 33h278l33 -33v-825h86v1221q0 53 -20.5 100t-55 82t-82 54.5t-100.5 19.5t-100 -19.5t-82 -54.5t-54.5 -82t-19.5 -100v-246l-33 -31h-20v-86zM221 975v246q0 70 50.5 120t119.5 50q72 0 122 -50.5t50 -119.5v-246l-33 -31h-278z M256 1831q0 -51 34 -85t87 -34q51 0 86 35t35 86q-4 53 -38 87t-83 34q-53 0 -87 -34t-34 -85v-4zM279 1849q2 4 3 5t3 6l2 4q2 4 4 7t2 7v4l33 33q14 0 30 14l43 -2q14 -12 29 -12l33 -33q0 -14 10 -29l2 -38q-12 -18 -12 -33l-33 -31q-14 0 -33 -16l-43 2q-12 14 -26 14 l-33 31q0 16 -10 30z" />
<glyph unicode="&#xc6;" horiz-adv-x="1155" d="M94 852h21l32 -33v-819h86v819l33 33h277l32 -33v-819h461v86h-342l-32 31v702l32 33h180v86h-180l-32 31v252q0 70 50 120t119 50h205v86h-205q-117 0 -190 -84h-47q-78 84 -191 84q-53 0 -100 -19.5t-82 -54.5t-54.5 -82t-19.5 -100v-252l-32 -31h-21v-86zM233 969v252 q0 35 14.5 65.5t37 54t53.5 37t65 13.5q72 0 122 -50.5t50 -119.5v-252l-32 -31h-277z" />
<glyph unicode="&#xc7;" horiz-adv-x="686" d="M106 256q0 -86 52.5 -154.5t138.5 -91.5l25 -30v-150q0 -41 -29 -53.5t-64 -12.5q-4 0 -8 1.5t-8 1.5v-86h43q63 0 107.5 44t44.5 105v150l22 28q49 14 81 37t64 57l-59 62q-33 -31 -66.5 -54.5t-84.5 -23.5q-72 0 -122 49t-50 121v965q0 70 51 120t121 50q51 0 85.5 -24 t65.5 -56l59 59q-45 45 -89 76t-121 31q-53 0 -100.5 -19.5t-82.5 -54.5t-55.5 -82t-20.5 -100v-965zM205 -233h8h-8zM516 164l8 10l2 4q-4 -4 -5 -7t-5 -7zM516 1311q6 -6 10 -13l-2 5q-2 2 -4 3t-4 5zM575 102l21 -18v43q-6 -8 -11 -13t-10 -12z" />
<glyph unicode="&#xc8;" horiz-adv-x="698" d="M78 1391h20l33 -33v-1358h459v86h-342l-31 31v710l31 33h182v86h-182l-31 31v381l31 33h342v86h-512v-86zM193 1841l110 -112l59 57l-112 112z" />
<glyph unicode="&#xc9;" horiz-adv-x="696" d="M78 1391h20l33 -33v-1358h459v86h-342l-31 31v710l31 33h182v86h-182l-31 31v381l31 33h342v86h-512v-86zM254 1784l59 -60l115 113l-57 61z" />
<glyph unicode="&#xca;" horiz-adv-x="700" d="M82 1391h20l33 -33v-1358h459v86h-342l-31 31v710l31 33h182v86h-182l-31 31v381l31 33h342v86h-512v-86zM156 1778l57 -60l55 54h47l52 -52l57 58l-133 133z" />
<glyph unicode="&#xcb;" horiz-adv-x="706" d="M74 1716h84v139h-84v-139zM80 1477l2 -86h20l33 -33l-2 -1358h459v86h-342l-31 31v710l31 33h182v86h-182l-31 31l2 381l31 33h342l-2 86h-512zM500 1716h86v139h-86v-139z" />
<glyph unicode="&#xcc;" horiz-adv-x="376" d="M66 0h192v86h-20l-33 31v1241l33 33h20v86h-192v-86h22l33 -33v-1241l-33 -31h-22v-86zM68 1829l112 -111l58 58l-111 110z" />
<glyph unicode="&#xcd;" horiz-adv-x="376" d="M39 0h192v86h-22l-31 31l2 1241l31 33h22v86h-192v-86h20l33 -33l-2 -1241l-33 -31h-20v-86zM88 1774l57 -58l113 111l-57 57z" />
<glyph unicode="&#xce;" horiz-adv-x="376" d="M20 1788l60 -59l53 53h47l51 -51l58 57l-133 133zM68 0h192v86h-20l-33 31l2 1241l33 33h22v86h-194v-86h22l33 -33l-2 -1241l-33 -31h-22v-86z" />
<glyph unicode="&#xcf;" horiz-adv-x="376" d="M-35 1716h86v139h-86v-139zM59 0h193v86h-21l-32 31v1241l32 33h21v86h-193v-86h23l31 -33v-1241l-31 -31h-23v-86zM260 1716h86v139h-86v-139z" />
<glyph unicode="&#xd0;" horiz-adv-x="833" d="M0 858h145l33 -33v-825h256q53 0 100.5 19.5t82 54.5t54 82t19.5 100v965q0 53 -19.5 100t-54 82t-82 54.5t-100.5 19.5h-309v-86h20l33 -33v-383l-33 -31h-145v-86zM264 117v708l31 33h162v86h-162l-31 31v383l31 33h139q72 0 122 -50.5t50 -119.5v-965q0 -72 -50 -121 t-122 -49h-139z" />
<glyph unicode="&#xd1;" horiz-adv-x="862" d="M78 86h28v-86h89v1221q0 70 51 120t121 50q72 0 121 -50.5t49 -119.5v-1221h86v1221q0 86 -51.5 154.5t-137.5 90.5h-141q-82 -23 -133 -91t-51 -154v-1104zM123 1718l31 -16q43 104 125 104q33 0 52 -11t42 -23v-3q4 -4 8 -5t8 -5q29 -20 58.5 -34.5t72.5 -14.5 q125 0 166 137l-33 17q-23 -35 -37 -55.5t-27.5 -32t-28.5 -14.5t-36 -3q-29 0 -48 8.5t-42 22.5q-8 8 -16 12h-2q-29 16 -58.5 32.5t-68.5 16.5q-70 0 -109 -34.5t-57 -98.5z" />
<glyph unicode="&#xd2;" horiz-adv-x="761" d="M94 256q0 -53 19.5 -100t54.5 -82t82 -54.5t100 -19.5t100.5 19.5t82 54.5t55 82t20.5 100v965q0 53 -20.5 100t-55 82t-82 54.5t-100.5 19.5t-100 -19.5t-82 -54.5t-54.5 -82t-19.5 -100v-965zM180 256v965q0 70 50.5 120t119.5 50q72 0 122 -50.5t50 -119.5v-965 q0 -72 -50 -121t-122 -49t-121 49t-49 121zM233 1841l111 -112l57 57l-110 112z" />
<glyph unicode="&#xd3;" horiz-adv-x="765" d="M100 256q0 -53 19.5 -100t54.5 -82t82 -54.5t100 -19.5t100.5 19.5t82 54.5t55 82t20.5 100v965q0 53 -20.5 100t-55 82t-81.5 54.5t-101 19.5q-53 0 -100 -19.5t-82 -54.5t-54.5 -82t-19.5 -100v-965zM186 256v965q0 35 14.5 65.5t37 54t53.5 37t65 13.5q72 0 122 -50.5 t50 -119.5v-965q0 -72 -50 -121t-122 -49q-70 0 -120 49t-50 121zM307 1780l60 -60l114 113l-57 61z" />
<glyph unicode="&#xd4;" horiz-adv-x="761" d="M90 256q0 -53 19.5 -100t54.5 -82t82 -54.5t100 -19.5t100.5 19.5t82 54.5t55 82t20.5 100v965q0 53 -20.5 100t-55 82t-82 54.5t-100.5 19.5t-100 -19.5t-82 -54.5t-54.5 -82t-19.5 -100v-965zM176 256v965q0 70 50 120t120 50q72 0 122 -50.5t50 -119.5v-965 q0 -72 -50 -121t-122 -49t-121 49t-49 121zM205 1788l59 -59l53 53h48l51 -51l57 57l-133 133z" />
<glyph unicode="&#xd5;" horiz-adv-x="772" d="M70 1714l32 -16q43 104 125 104q33 0 52.5 -11t42.5 -24v-2q4 -4 8 -5t8 -5q29 -20 58.5 -34.5t72.5 -14.5q125 0 166 137l-33 17q-23 -35 -37 -55.5t-27.5 -32t-28.5 -14.5t-36 -3q-29 0 -48 8.5t-42 22.5q-4 2 -8 6t-8 6h-2q-29 16 -59 32.5t-68 16.5q-70 0 -109 -34.5 t-59 -98.5zM98 256q0 -53 19.5 -100t54.5 -82t82 -54.5t100 -19.5t100.5 19.5t82 54.5t55 82t20.5 100v965q0 53 -19.5 100t-54 82t-81.5 54.5t-101 19.5q-55 0 -101 -19.5t-81 -54.5t-54.5 -82t-19.5 -100zM184 256v965q0 70 49.5 120t120.5 50q70 0 121 -50.5t51 -119.5 v-965q0 -72 -50 -121t-122 -49t-121 49t-49 121z" />
<glyph unicode="&#xd6;" horiz-adv-x="770" d="M94 256q0 -53 19.5 -100t54.5 -82t82 -54.5t100 -19.5t100.5 19.5t82 54.5t55 82t20.5 100v965q0 53 -20.5 100t-55 82t-82 54.5t-100.5 19.5t-100 -19.5t-82 -54.5t-54.5 -82t-19.5 -100v-965zM106 1712h87v139h-87v-139zM180 256v965q0 70 50.5 120t119.5 50 q72 0 122 -50.5t50 -119.5v-965q0 -72 -50 -121t-122 -49t-121 49t-49 121zM500 1712h86v139h-86v-139z" />
<glyph unicode="&#xd7;" horiz-adv-x="665" d="M96 526l58 -57l129 127h47l129 -127l57 57l-129 129v47l129 127l-57 60l-129 -129h-47l-129 129l-58 -60l129 -127v-47z" />
<glyph unicode="&#xd8;" d="M106 256q0 -53 20.5 -100t55.5 -82t82 -54.5t101 -19.5q53 0 100 19.5t82 54.5t54.5 82t19.5 100v965q0 23 -7.5 48t-23.5 64q-35 63 -93 103.5t-132 40.5q-53 0 -100.5 -19.5t-82.5 -54.5t-55.5 -82t-20.5 -100v-965zM193 567v654q0 70 51 120t121 50q76 0 124 -56 l7 -32l-242 -746zM223 184l250 766l62 -10v-684q0 -72 -49.5 -121t-120.5 -49q-88 0 -138 68z" />
<glyph unicode="&#xd9;" d="M106 256q0 -53 20.5 -100t55.5 -82t82.5 -54.5t100.5 -19.5h256v1477h-86v-1360l-31 -31h-139q-72 0 -122 49t-50 121v1221h-87v-1221zM276 1829l111 -111l57 58l-110 110z" />
<glyph unicode="&#xda;" d="M106 256q0 -53 20.5 -100t55.5 -82t82.5 -54.5t100.5 -19.5h256v1477h-86v-1360l-31 -31h-139q-72 0 -122 49t-50 121v1221h-87v-1221zM338 1782l57 -60l117 113l-59 61z" />
<glyph unicode="&#xdb;" d="M106 256q0 -53 20.5 -100t55.5 -82t82.5 -54.5t100.5 -19.5h256v1477h-86v-1360l-31 -31h-139q-72 0 -122 49t-50 121v1221h-87v-1221zM229 1772l58 -60l53 53h47l51 -51l58 58l-131 133z" />
<glyph unicode="&#xdc;" d="M106 256q0 -53 20.5 -100t55.5 -82t82.5 -54.5t100.5 -19.5h256v1477h-86v-1360l-31 -31h-139q-72 0 -122 49t-50 121v1221h-87v-1221zM106 1718h87v140h-87v-140zM535 1718h86v140h-86v-140z" />
<glyph unicode="&#xdd;" horiz-adv-x="735" d="M76 1112q0 -86 52 -154.5t138 -91.5l23 -32v-832h86v832l22 32q86 23 138.5 91.5t52.5 154.5v367h-84v-367q0 -72 -50.5 -121t-121.5 -49q-72 0 -122 49t-50 121v367h-84v-367zM274 1776l58 -60l114 113l-57 61z" />
<glyph unicode="&#xde;" horiz-adv-x="845" d="M106 0h140v182l33 31h139q53 0 100 20.5t82 55.5t54.5 82t19.5 100v535q0 53 -19.5 100t-54.5 82t-82 54.5t-100 19.5h-139l-33 32v183h-140v-86h23l31 -33v-1241l-31 -31h-23v-86zM246 332v813l33 33h139q72 0 121 -50.5t49 -121.5v-535q0 -72 -49.5 -122t-120.5 -50 h-139z" />
<glyph unicode="&#xdf;" horiz-adv-x="915" d="M106 -205h89v1415q0 92 35.5 158t111.5 68q49 0 79 -16.5t45 -40t20.5 -51.5t5.5 -50q0 -27 -19.5 -72t-48.5 -100q-16 -35 -33.5 -72t-32 -72.5t-23.5 -68.5t-9 -59q0 -41 7 -73t19.5 -57.5t30.5 -48t41 -47.5l143 -162q47 -51 68.5 -114.5t21.5 -138.5 q0 -96 -31.5 -124t-97.5 -28q-63 0 -87.5 29.5t-24.5 113.5v70h-90v-68q0 -102 56 -151t144 -49q102 0 160.5 56t58.5 187q0 78 -26.5 142.5t-79.5 122.5l-139 149q-8 12 -13 16v3q-41 45 -65.5 80.5t-24.5 97.5q0 53 26 106t58 107q33 57 61.5 113.5t28.5 115.5 q0 94 -67.5 151.5t-169.5 57.5q-45 0 -86 -15.5t-73 -51t-50.5 -92t-18.5 -136.5v-1401z" />
<glyph unicode="&#xe0;" horiz-adv-x="751" d="M70 258q0 -53 20.5 -100t55 -82t81.5 -54.5t101 -19.5q76 0 135 39l49 -29v-10h70l2 684q0 53 -19.5 100.5t-54.5 82t-82 55t-100 20.5q-78 0 -122 -30.5t-91 -75.5l59 -60q33 33 66.5 56.5t87.5 23.5q72 0 121 -50t49 -122v-139l-31 -31h-139q-53 0 -100.5 -20.5 t-82 -55t-55 -82t-20.5 -100.5zM156 258q0 72 50 122t122 50h147l33 -33v-139q0 -72 -54.5 -121t-125.5 -49q-72 0 -122 49t-50 121zM164 766l12 12h-2q-2 -6 -8 -8zM252 1386l113 -110l57 57l-113 111z" />
<glyph unicode="&#xe1;" horiz-adv-x="751" d="M78 254q0 -53 19.5 -100.5t54 -81t82 -53t100.5 -19.5q39 0 72.5 8t62.5 29l49 -29v-8h72v682q0 53 -19.5 100t-54.5 82t-82 55.5t-100 20.5q-78 0 -122 -31.5t-89 -77.5l57 -57q33 33 68 56.5t86 23.5q72 0 122 -50t50 -122v-139l-33 -31h-139q-53 0 -100.5 -20.5 t-82 -55.5t-54 -82t-19.5 -100zM162 254q0 72 50 122t122 50h147l33 -33v-139q0 -72 -54 -121t-126 -49t-122 49t-50 121zM172 762q4 6 10 12h-2q-2 -4 -6 -8zM264 1335l58 -59l114 113l-57 59z" />
<glyph unicode="&#xe2;" horiz-adv-x="751" d="M76 260q0 -53 19.5 -100t54 -82t82 -54.5t100.5 -19.5q76 0 135 39l49 -29v-10h72v684q0 53 -19.5 100.5t-54.5 82t-82 55t-100 20.5q-78 0 -122 -30.5t-89 -75.5l57 -60q33 33 68 56.5t86 23.5q72 0 122 -50t50 -122v-137l-33 -33h-139q-53 0 -100.5 -20.5t-82 -55 t-54 -82t-19.5 -100.5zM160 260q0 72 50 122t122 50h147l33 -33v-139q0 -72 -54.5 -121t-125.5 -49q-72 0 -122 49t-50 121zM170 768q4 6 10 12h-2q-2 -4 -6 -8zM211 1298l59 -59l54 53h47l51 -51l57 57l-133 134z" />
<glyph unicode="&#xe3;" horiz-adv-x="749" d="M59 1292l33 -16q43 104 125 104q31 0 50.5 -10t41.5 -24v-3q12 -6 19 -10q29 -20 57.5 -34.5t73.5 -14.5q123 0 166 137l-35 17q-20 -35 -34.5 -55.5t-28 -32t-29 -14.5t-35.5 -3q-29 0 -49.5 8.5t-40.5 24.5q-4 2 -9.5 5t-9.5 5h-2q-27 16 -56.5 32.5t-68.5 16.5 q-70 0 -108.5 -34.5t-59.5 -98.5zM78 252q0 -53 19.5 -99.5t54 -80t82 -53t100.5 -19.5q82 0 137 35l47 -29v-6h74l-2 680q0 53 -19.5 100t-54.5 82t-82 55.5t-100 20.5q-78 0 -122 -32t-89 -77l57 -57q33 33 68 56.5t86 23.5q72 0 122 -50t50 -122v-139l-33 -31h-139 q-53 0 -100.5 -20.5t-82 -55.5t-54 -82t-19.5 -100zM162 252q0 72 50 122t122 50h147l33 -33v-139q0 -72 -54 -121t-126 -49t-122 49t-50 121zM172 760q4 6 10 12h-2q-2 -4 -6 -8z" />
<glyph unicode="&#xe4;" horiz-adv-x="755" d="M70 260q0 -53 20.5 -100t55 -82t81.5 -54.5t101 -19.5q76 0 135 39l49 -29v-10l72 -2v686q0 53 -19.5 100.5t-54.5 82t-82 55t-100 20.5q-78 0 -122 -30.5t-91 -75.5l59 -60q33 33 66.5 56.5t87.5 23.5q72 0 121 -50t49 -122v-137l-31 -33h-139q-53 0 -100.5 -20.5 t-82 -55t-55 -82t-20.5 -100.5zM156 260q0 72 50 122t122 50h147l33 -33v-139q0 -72 -54.5 -121t-125.5 -49q-72 0 -122 49t-50 121zM162 1288h86v139h-86v-139zM164 768l12 12h-2q-2 -6 -8 -8zM485 1288h86v139h-86v-139z" />
<glyph unicode="&#xe5;" horiz-adv-x="747" d="M82 256q0 -53 19.5 -100t54 -82t82 -54.5t100.5 -19.5q76 0 135 39l49 -29v-10h70l2 684q0 53 -19.5 100t-54.5 82t-82 55.5t-100 20.5q-78 0 -122 -31.5t-89 -76.5l57 -58q33 33 68 56.5t86 23.5q72 0 122 -50t50 -122v-139l-33 -31h-139q-53 0 -100.5 -20.5t-82 -55.5 t-54 -82t-19.5 -100zM166 256q0 72 50 122t122 50h147l33 -33v-139q0 -72 -54 -121t-126 -49t-122 49t-50 121zM176 764q4 6 10 12h-2q-2 -4 -6 -8zM252 1395q0 -51 33.5 -85t87.5 -34q49 0 84 34t37 85q-4 53 -37 88t-84 35q-53 0 -87 -34t-34 -85v-4zM274 1413q2 4 3.5 5 t3.5 5l2 4q2 4 4 7.5t2 7.5v4l33 33q14 0 30 14l43 -2q12 -12 29 -12l33 -33q0 -14 10 -29l2 -39q-12 -18 -12 -32l-33 -33q-16 0 -33 -15l-43 2q-12 12 -26 13l-33 33q0 16 -10 30z" />
<glyph unicode="&#xe6;" horiz-adv-x="1163" d="M78 256q0 -53 19.5 -100t54 -82t82 -54.5t100.5 -19.5q117 0 190 84h47q78 -84 191 -84h231v86h-231q-72 0 -122 49t-50 121v139l33 33h395v256q0 53 -19.5 100t-54.5 82t-82 55.5t-100 20.5q-117 0 -191 -84h-47q-78 84 -190 84q-78 0 -122 -31.5t-89 -76.5l57 -58 q33 33 68 56.5t86 23.5q72 0 122 -50t50 -122v-139l-33 -31h-139q-53 0 -100.5 -20.5t-82 -55.5t-54 -82t-19.5 -100zM162 256q0 72 50 122t122 50h139l33 -33v-139q0 -72 -50 -121t-122 -49t-122 49t-50 121zM172 764q4 6 10 12h-2q-2 -4 -6 -8zM590 545v139q0 72 50 122 t122 50t122 -50t50 -122v-139l-33 -31h-278z" />
<glyph unicode="&#xe7;" horiz-adv-x="694" d="M106 256q0 -86 52.5 -154.5t138.5 -91.5l25 -30v-150q0 -41 -29 -53.5t-64 -12.5q-4 0 -8 1.5t-8 1.5v-86h43q63 0 107.5 44t44.5 105v150l22 28q49 14 81 37t64 57l-59 62q-33 -31 -66.5 -54.5t-84.5 -23.5q-72 0 -122 49t-50 121v428q0 72 50 122t122 50 q53 0 86.5 -24.5t64.5 -55.5l59 58q-23 23 -44 43t-45.5 34.5t-53.5 22.5t-67 8q-53 0 -100.5 -20.5t-82.5 -55.5t-55.5 -82t-20.5 -100v-428zM205 -233h8h-8zM516 164l8 10l2 4q-4 -4 -5 -7t-5 -7zM516 776q2 -4 6 -6t0 2q-2 2 -4 2zM575 102l21 -18v43q-6 -8 -11 -13 t-10 -12z" />
<glyph unicode="&#xe8;" horiz-adv-x="757" d="M90 264q0 -53 19.5 -100t54.5 -82t82 -55.5t100 -20.5h223v86h-223q-72 0 -121 50.5t-49 121.5v137l31 33h397v256q0 53 -20.5 100.5t-55 82t-82 55t-100.5 20.5t-100 -20.5t-82 -55t-54.5 -82t-19.5 -100.5v-426zM176 553v137q0 72 49 122t121 50t122 -50t50 -122v-137 l-33 -33h-278zM258 1395l113 -111l57 57l-111 111z" />
<glyph unicode="&#xe9;" horiz-adv-x="757" d="M90 264q0 -53 19.5 -100t54.5 -82t82 -55.5t100 -20.5h223v86h-223q-72 0 -121 50.5t-49 121.5v137l31 33h397v256q0 53 -20.5 100.5t-55 82t-82 55t-100.5 20.5t-100 -20.5t-82 -55t-54.5 -82t-19.5 -100.5v-426zM176 553v137q0 72 49 122t121 50t122 -50t50 -122v-137 l-33 -33h-278zM279 1333l57 -59l115 112l-58 60z" />
<glyph unicode="&#xea;" horiz-adv-x="757" d="M90 256q0 -53 19.5 -100t54.5 -82t82 -54.5t100 -19.5h223v86h-223q-72 0 -121 49t-49 121v139l31 33h397v256q0 53 -20.5 100t-55 82t-82 55.5t-100.5 20.5t-100 -20.5t-82 -55.5t-54.5 -82t-19.5 -100v-428zM176 545v139q0 72 49 122t121 50t122 -50t50 -122v-139 l-33 -31h-278zM236 1290l57 -59l53 53h47l51 -51l60 57l-133 133z" />
<glyph unicode="&#xeb;" horiz-adv-x="757" d="M90 266q0 -53 19.5 -100t54.5 -82t82 -55.5t100 -20.5h223v86h-223q-72 0 -121 50.5t-49 121.5v137l31 33h397v258q0 53 -20.5 100.5t-55 82t-82 54t-100.5 19.5t-100 -19.5t-82 -54t-54.5 -81.5t-19.5 -101v-428zM150 1286h86v139h-86v-139zM176 555v139q0 70 49 120 t121 50t122 -50t50 -120v-139l-33 -33h-278zM489 1286h86v139h-86v-139z" />
<glyph unicode="&#xec;" horiz-adv-x="479" d="M123 1399l113 -113l57 60l-113 114zM162 0h86l2 942h-86z" />
<glyph unicode="&#xed;" horiz-adv-x="479" d="M123 1380l57 -57l113 111l-57 57zM150 0h83l3 942h-86v-942z" />
<glyph unicode="&#xee;" horiz-adv-x="575" d="M123 1282l57 -59l53 53h48l51 -51l57 57l-133 133zM231 0h88v942h-86z" />
<glyph unicode="&#xef;" horiz-adv-x="565" d="M106 1294h87v140h-87v-140zM203 0h86v942h-86v-942zM307 1296h86v140h-86v-140z" />
<glyph unicode="&#xf0;" horiz-adv-x="755" d="M70 256q0 -53 20.5 -100t55 -82t81.5 -54.5t101 -19.5q53 0 100 19.5t82 54.5t54.5 82t19.5 100v965q0 31 -6 59l6 29l121 135l-68 55l-84 -96l-47 -2q-35 35 -81 55.5t-97 20.5q-78 0 -122 -31t-91 -76l59 -59q29 31 62.5 55.5t91.5 24.5q76 0 125 -58v-43l-127 -143 l65 -55l51 57l56 -21v-333l-47 -29q-61 33 -123 33q-53 0 -100.5 -20.5t-82 -55.5t-55 -82t-20.5 -100v-285zM156 256v285q0 72 50 122t122 50t121 -50.5t49 -121.5v-285q0 -72 -49.5 -121t-120.5 -49q-72 0 -122 49t-50 121zM169 1305q3 2 5 6l-4 -4q-4 -4 -1 -2zM174 1311 h2q2 2 0 2z" />
<glyph unicode="&#xf1;" horiz-adv-x="768" d="M88 1300l33 -16q39 105 123 105q33 0 52 -10.5t42 -24.5v-2q4 -4 8 -5t8 -6q29 -18 58.5 -33.5t72.5 -15.5q125 0 168 138l-35 16q-20 -35 -34.5 -55.5t-28.5 -31.5t-29.5 -14.5t-36.5 -3.5q-29 0 -48 8.5t-42 24.5q-4 2 -8 5t-8 5h-2q-29 16 -58.5 33t-68.5 17 q-70 0 -109 -35t-57 -99zM98 0h86v690q0 72 51.5 122t120.5 50q70 0 120 -50t50 -122v-690h86v690q0 88 -51 156.5t-137 91.5h-141q-82 -23 -133.5 -91.5t-51.5 -156.5v-690z" />
<glyph unicode="&#xf2;" horiz-adv-x="749" d="M86 256q0 -53 19.5 -100t54.5 -82t82 -54.5t100 -19.5t100 19.5t82 54.5t55.5 82t20.5 100v428q0 53 -20.5 100t-55.5 82t-82 55.5t-100 20.5t-100 -20.5t-82 -55.5t-54.5 -82t-19.5 -100v-428zM172 256v428q0 72 49 122t121 50t122 -50t50 -122v-428q0 -72 -50 -121 t-122 -49t-121 49t-49 121zM295 1407l113 -111l57 58l-113 112z" />
<glyph unicode="&#xf3;" horiz-adv-x="749" d="M86 256q0 -53 19.5 -100t54.5 -82t82 -54.5t100 -19.5t100 19.5t82 54.5t55.5 82t20.5 100v428q0 53 -20.5 100t-55.5 82t-82 55.5t-100 20.5t-100 -20.5t-82 -55.5t-54.5 -82t-19.5 -100v-428zM172 256v428q0 72 49 122t121 50t122 -50t50 -122v-428q0 -72 -50 -121 t-122 -49t-121 49t-49 121zM289 1350l57 -60l117 113l-60 61z" />
<glyph unicode="&#xf4;" horiz-adv-x="749" d="M86 256q0 -53 19.5 -100t54.5 -82t82 -54.5t100 -19.5t100 19.5t82 54.5t55.5 82t20.5 100v428q0 53 -20.5 100t-55.5 82t-82 55.5t-100 20.5t-100 -20.5t-82 -55.5t-54.5 -82t-19.5 -100v-428zM172 256v428q0 72 49 122t121 50t122 -50t50 -122v-428q0 -72 -50 -121 t-122 -49t-121 49t-49 121zM201 1290l57 -59l55 53h47l52 -51l57 57l-133 133z" />
<glyph unicode="&#xf5;" horiz-adv-x="749" d="M59 1296l33 -16q43 104 125 104q31 0 50.5 -10t41.5 -24v-2q12 -6 19 -11q29 -20 57.5 -34.5t73.5 -14.5q123 0 166 137l-35 17q-20 -35 -34.5 -55.5t-28 -32t-29 -14.5t-35.5 -3q-29 0 -49.5 8.5t-40.5 24.5q-4 2 -9.5 5t-9.5 5h-2q-27 16 -56.5 33t-68.5 17 q-70 0 -108.5 -35t-59.5 -99zM76 256q0 -53 19.5 -100t54 -82t82 -54.5t100.5 -19.5t100 19.5t82 54.5t54.5 82t19.5 100v428q0 53 -19.5 100t-54.5 82t-81 55.5t-101 20.5q-53 0 -100.5 -20.5t-82 -55.5t-54 -82t-19.5 -100v-428zM160 256v428q0 72 51 122t123 50 q70 0 120 -50t50 -122v-428q0 -72 -50.5 -121t-121.5 -49q-72 0 -122 49t-50 121z" />
<glyph unicode="&#xf6;" horiz-adv-x="749" d="M86 256q0 -53 19.5 -100t54.5 -82t82 -54.5t100 -19.5t100 19.5t82 54.5t55.5 82t20.5 100v428q0 53 -20.5 100t-55.5 82t-82 55.5t-100 20.5t-100 -20.5t-82 -55.5t-54.5 -82t-19.5 -100v-428zM150 1284h86v139h-86v-139zM172 256v428q0 72 49 122t121 50t122 -50 t50 -122v-428q0 -72 -50 -121t-122 -49t-121 49t-49 121zM473 1284h86v139h-86v-139z" />
<glyph unicode="&#xf7;" d="M106 428h515v86h-515v-86zM322 -51h86v137h-86v-137zM322 856h86v139h-86v-139z" />
<glyph unicode="&#xf8;" horiz-adv-x="749" d="M86 256q0 -53 19.5 -100t54.5 -82t82 -54.5t100 -19.5t100 19.5t82 54.5t55.5 82t20.5 100v428q0 53 -20.5 100t-55.5 82t-82 55.5t-100 20.5t-100 -20.5t-82 -55.5t-54.5 -82t-19.5 -100v-428zM172 303v381q0 72 49 122t121 50q53 0 92 -27l12 -38l-213 -500zM248 111 l6 59h-2l199 461l63 -13v-362q0 -72 -50 -121t-122 -49q-51 0 -94 25z" />
<glyph unicode="&#xf9;" horiz-adv-x="757" d="M66 256q0 -53 20 -100t55 -82t82 -54.5t101 -19.5h256v942h-86v-825l-31 -31h-139q-72 0 -122 49t-50 121v686h-86v-686zM270 1411l111 -113l57 58l-110 112z" />
<glyph unicode="&#xfa;" horiz-adv-x="757" d="M68 256q0 -53 20.5 -100t55 -82t81.5 -54.5t101 -19.5h256v942h-86v-825l-31 -31h-139q-72 0 -122 49t-50 121v686h-86v-686zM281 1343l57 -59l115 113l-58 59z" />
<glyph unicode="&#xfb;" horiz-adv-x="757" d="M66 256q0 -53 20 -100t55 -82t82 -54.5t101 -19.5h256v942h-86v-825l-31 -31h-139q-72 0 -122 49t-50 121v686h-86v-686zM209 1303l59 -60l54 53h47l51 -51l57 58l-133 133z" />
<glyph unicode="&#xfc;" horiz-adv-x="757" d="M66 256q0 -53 20 -100t55 -82t82 -54.5t101 -19.5h256v942h-86v-825l-31 -31h-139q-72 0 -122 49t-50 121v686h-86v-686zM74 1288h84v139h-84v-139zM500 1288h86v139h-86v-139z" />
<glyph unicode="&#xfd;" horiz-adv-x="761" d="M92 256q0 -53 19.5 -100t54.5 -82t82 -54.5t100 -19.5h139l33 -33v-133q0 -72 -51 -122t-121 -50h-182v-86h182q53 0 100.5 20.5t82 55.5t55 82t20.5 100v1108h-86v-825l-33 -31h-139q-72 0 -121 49t-49 121v686h-86v-686zM303 1341l59 -59l115 113l-57 59z" />
<glyph unicode="&#xfe;" horiz-adv-x="845" d="M106 -340v-86h140v393l33 33h139q53 0 100 19.5t82 54.5t54.5 82t19.5 100v428q0 53 -19.5 100t-54.5 82t-82 55.5t-100 20.5h-139l-33 31v397h-140v-86h23l31 -33v-1558l-31 -33h-23zM246 117v706l33 33h139q72 0 121 -50t49 -122v-428q0 -72 -49.5 -121t-120.5 -49 h-139z" />
<glyph unicode="&#xff;" horiz-adv-x="757" d="M92 256q0 -53 19.5 -100t54.5 -82t82 -54.5t100 -19.5h139l33 -33v-133q0 -72 -51 -122t-121 -50h-196v-86h196q53 0 100.5 20.5t82 55.5t55 82t20.5 100v1108h-86v-825l-33 -31h-139q-72 0 -121 49t-49 121v686h-86v-686zM98 1290h86v140h-86v-140zM526 1290h86v140h-86 v-140z" />
<glyph unicode="&#x152;" horiz-adv-x="1101" d="M96 256q0 -53 19.5 -100t54.5 -82t82 -54.5t100 -19.5q117 0 191 84h47q78 -84 190 -84h205v86h-205q-72 0 -121 49t-49 121v565l31 33h182v86h-182l-31 31v250q0 70 50.5 120t119.5 50h205v86h-205q-117 0 -190 -84h-47q-78 84 -191 84q-53 0 -100 -19.5t-82 -54.5 t-54.5 -82t-19.5 -100v-965zM182 256v965q0 70 50.5 120t119.5 50q72 0 122 -50.5t50 -119.5v-965q0 -72 -50 -121t-122 -49t-121 49t-49 121z" />
<glyph unicode="&#x153;" horiz-adv-x="1175" d="M92 256q0 -53 19.5 -100t54.5 -82t82 -54.5t100 -19.5q117 0 191 84h47q78 -84 190 -84h215v86h-215q-72 0 -121 49t-49 121v139l31 33h397v256q0 53 -20.5 100t-55 82t-82 55.5t-100.5 20.5q-117 0 -190 -84h-47q-78 84 -191 84q-53 0 -100 -20.5t-82 -55.5t-54.5 -82 t-19.5 -100v-428zM178 256v428q0 72 49 122t121 50t122 -50t50 -122v-428q0 -72 -50 -121t-122 -49t-121 49t-49 121zM606 545v139q0 72 49.5 122t120.5 50q72 0 122 -50t50 -122v-139l-33 -31h-278z" />
<glyph unicode="&#x178;" horiz-adv-x="720" d="M70 1110q0 -86 52 -154.5t138 -91.5l25 -33v-831h86v831l22 33q86 23 138.5 91.5t52.5 154.5v367h-86v-367q0 -72 -49.5 -121t-120.5 -49q-72 0 -122 49t-50 121v367h-86v-367zM70 1716h86v139h-86v-139zM498 1716h86v139h-86v-139z" />
<glyph unicode="&#x2c6;" horiz-adv-x="634" d="M121 1329l57 -59l74 80l45 2l92 -88l62 61l-175 168z" />
<glyph unicode="&#x2dc;" horiz-adv-x="854" d="M113 1305l32 -17q43 105 125 105q33 0 52.5 -10.5t42.5 -24.5v-2q4 -4 8 -5t8 -5q29 -18 57.5 -34t73.5 -16q125 0 166 138l-35 16q-20 -35 -34.5 -55.5t-28 -31.5t-28.5 -14t-36 -3q-29 0 -49.5 8t-40.5 24q-4 2 -8 5l-8 6h-2q-29 18 -59 33.5t-68 15.5q-70 0 -109 -35 t-59 -98z" />
<glyph unicode="&#x2000;" horiz-adv-x="1043" />
<glyph unicode="&#x2001;" horiz-adv-x="2087" />
<glyph unicode="&#x2002;" horiz-adv-x="1043" />
<glyph unicode="&#x2003;" horiz-adv-x="2087" />
<glyph unicode="&#x2004;" horiz-adv-x="695" />
<glyph unicode="&#x2005;" horiz-adv-x="521" />
<glyph unicode="&#x2006;" horiz-adv-x="347" />
<glyph unicode="&#x2007;" horiz-adv-x="347" />
<glyph unicode="&#x2008;" horiz-adv-x="260" />
<glyph unicode="&#x2009;" horiz-adv-x="417" />
<glyph unicode="&#x200a;" horiz-adv-x="115" />
<glyph unicode="&#x2010;" horiz-adv-x="495" d="M57 637h316v86h-316v-86z" />
<glyph unicode="&#x2011;" horiz-adv-x="495" d="M57 637h316v86h-316v-86z" />
<glyph unicode="&#x2012;" horiz-adv-x="495" d="M57 637h316v86h-316v-86z" />
<glyph unicode="&#x2013;" horiz-adv-x="1005" d="M106 428h728v86h-728v-86z" />
<glyph unicode="&#x2014;" horiz-adv-x="1220" d="M106 428h943v86h-943v-86z" />
<glyph unicode="&#x2018;" horiz-adv-x="376" d="M106 1126h99v121h-31l-33 39l47 250l-82 -276v-134z" />
<glyph unicode="&#x2019;" horiz-adv-x="376" d="M106 1415h33l33 -39l-43 -231l76 258v133h-99v-121zM125 1126h2l2 19z" />
<glyph unicode="&#x201a;" horiz-adv-x="376" d="M106 0h33l33 -39l-43 -227l76 258v135h-99v-127zM125 -285h2l2 19z" />
<glyph unicode="&#x201c;" horiz-adv-x="630" d="M106 1126h99v121h-31l-33 39l49 250l-84 -276v-134zM362 1126h99v121h-33l-33 39l49 250l-82 -276v-134z" />
<glyph unicode="&#x201d;" horiz-adv-x="630" d="M106 1415h33l33 -39l-47 -250l80 277v133h-99v-121zM362 1415h31l33 -39l-49 -250l84 277v133h-99v-121z" />
<glyph unicode="&#x201e;" horiz-adv-x="630" d="M106 0h33l33 -39l-47 -246l80 277v135h-99v-127zM362 0h31l33 -39l-45 -227l80 258v135h-99v-127zM377 -285h2l2 19z" />
<glyph unicode="&#x2022;" horiz-adv-x="860" d="M143 651l158 -82l14 -12l78 -139l92 141l13 10l157 88l-157 78l-13 13l-90 147l-90 -152l-12 -12z" />
<glyph unicode="&#x2026;" horiz-adv-x="1220" d="M106 2h87v137h-87v-137zM535 2h86v137h-86v-137zM963 2h86v137h-86v-137z" />
<glyph unicode="&#x202f;" horiz-adv-x="417" />
<glyph unicode="&#x2039;" horiz-adv-x="538" d="M123 475l160 -162l59 60l-78 80v43l92 100l-55 59z" />
<glyph unicode="&#x203a;" horiz-adv-x="538" d="M117 596l94 -100v-43l-78 -80l60 -60l159 162l-178 180z" />
<glyph unicode="&#x205f;" horiz-adv-x="521" />
<glyph unicode="&#x20ac;" horiz-adv-x="722" d="M57 582h66l31 -31v-295q0 -53 20.5 -100t55 -82t81.5 -54.5t101 -19.5q39 0 67.5 8t53 22.5t46 34t44.5 41.5l-60 58q-31 -33 -65.5 -55.5t-85.5 -22.5q-72 0 -122 49t-50 121v295l32 31h285v71h-285l-32 31v162l32 31h289v71h-289l-32 33v240q0 70 51 120t121 50 q51 0 85.5 -24t65.5 -56l60 59q-45 45 -89.5 76t-121.5 31q-53 0 -100.5 -19.5t-82 -54.5t-55 -82t-20.5 -100v-240l-31 -33h-62v-71h62l31 -31v-162l-31 -31h-66v-71zM563 164q6 6 8 10l2 4q-4 -4 -5 -7t-5 -7zM563 1311q6 -6 10 -13l-2 5q-2 2 -4 3t-4 5z" />
<glyph unicode="&#x2122;" horiz-adv-x="1570" d="M41 1391h160l32 -33v-613h70v613l33 33h160v86h-455v-86zM602 748h70v475q0 72 47 121t108 49q33 0 63 -13.5t51.5 -37t33.5 -54.5t12 -65v-475h70v475q0 72 47 121t108 49q33 0 63 -13.5t51.5 -37t33.5 -54.5t12 -65v-475h70v475q0 88 -43 155.5t-115 89.5h-127 q-35 -10 -62.5 -26.5t-47.5 -44.5l-50 -2q-27 29 -52 46t-50 27h-131q-74 -23 -118 -90t-44 -155v-475z" />
<glyph unicode="&#x25fc;" horiz-adv-x="942" d="M0 0v942h942v-942h-942z" />
</font>
</defs>
</svg>
